<svg version="1" xmlns="http://www.w3.org/2000/svg" width="2560" height="1706.667" viewBox="0 0 1920.000000 1280.000000"><path d="M0 640v640h1920V815.5h-4.6c-3.3 0-4.9.5-5.9 1.9-1.4 1.8-1.5 1.8-3.2-.3-1.8-2.2-2-2.2-6.1-.8-2.3.8-4.2 1.1-4.2.7 0-.5.6-1.1 1.3-1.3.6-.3.2-.6-1-.6-1.4-.1-2.3.5-2.3 1.4 0 1.1-.8 1.3-3 .8-2.6-.5-3-.3-3 1.7v2.3l-2.4-2.2c-1.4-1.3-3-2-3.6-1.6-1.6 1-10 1.2-10 .2 0-1.1-7.8-.8-8.5.3-.5.8-1.2.7-2.3-.2-1.2-1-1.6-1-1.9-.1-.3.7-.9 1.3-1.4 1.3-1.4 0-1.1-2.8.4-3.3.9-.4.9-.6-.1-.6-.7-.1-1.7 1-2.2 2.3-1.2 3.3-2.7 4-3.9 1.9-.6-1-1.1-1.2-1.1-.6 0 .7-.5 1.3-1.1 1.3-.5 0-.8-.3-.5-.8.2-.4-.2-1.6-1-2.7-.8-1-1.4-1.3-1.4-.6 0 .7-.5.9-1.2.5s-.8-.3-.4.5c.4.6 1.2.8 1.8.5.7-.4.8-.2.4.4-.4.7-2.2 1.2-4 1.2-1.8 0-3.6.3-4 .7-.4.5-4 .8-7.9.8-5.8 0-7.5-.4-8.9-1.9-1-1-1.5-2.3-1.2-2.7.9-1.5-1.3-1-2.6.6-.7.8-2.5 1.5-4.1 1.5-2.2 0-2.9.5-2.9 2 0 2.5-1.6 2.6-2.2.2-.6-2-5-2.7-7.9-1.2-1.4.8-1.9.7-1.9-.1 0-.8-1-.9-3.2-.4-1.8.4-4 .7-4.8.7-.8.1-2.1.5-2.7 1.1-.9.6-1.8.5-2.8-.3-1-.8-1.9-.9-2.7-.2-.7.5-2.8.9-4.5.7-1.8-.1-3.3.1-3.3.5 0 .3-2.4.4-5.2.2-7.5-.6-9-.5-11.5.3-1.8.6-2.3.3-2.3-.9 0-.9-.7-1.6-1.5-1.6s-1.5.7-1.5 1.6c0 1.1-.5 1.4-1.6 1-.8-.3-2.5-.1-3.6.5-1.7.9-2.4.8-3.4-.6-1.1-1.5-1.3-1.5-1.7.7-.4 2.3-.4 2.3-.6 0-.1-2.7-2.1-3-2.1-.2 0 1.1-.4 2-1 2-.5 0-1-.7-1-1.5s-.4-1.5-1-1.5c-.5 0-1 .7-1 1.5 0 1.8-1.6 2-2.3.2-.4-.9-.8-.8-1.6.3-1 1.3-1.2 1.3-2.2 0-.8-1.1-1.2-1.2-1.6-.3-.6 1.6-3 1.7-3.5.3-.2-.7-2.1-.5-5.3.5-5.9 1.8-6.5 1.8-4.5.4 1.2-.8.8-1-1.5-.6-1.6.3-3.9.9-5 1.2-1.6.6-1.7.5-.5-.4.9-.6 1-1.1.3-1.1-.6 0-1.9-.3-2.9-.7-1.1-.4-1.5-.3-1.1.4.4.6 0 1.3-.8 1.7-.9.3-1.5 0-1.5-.9 0-1.9-1.4-1.9-3.1.1-1.1 1.4-1.3 1.4-2.2-.1-.8-1.5-1-1.4-2.4.5-1.2 1.7-1.8 1.9-2.9.9-1.1-.9-1.8-.9-2.9.1-.8.7-1.5.9-1.5.5s.8-1.4 1.7-2.1c1-.7 1.5-1.5 1.2-1.8-.3-.4-1.8.5-3.2 1.8-2.5 2.3-2.7 2.4-2.7.6 0-1.1-.7-2-1.6-2-.8 0-1.2.4-.9 1 .3.5-.1 1-.9 1-.9 0-1.6.5-1.6 1.1 0 .5-.5.7-1 .4-.6-.4-.8-1-.5-1.5.3-.5 0-1.2-.6-1.5-.6-.4-1.3.2-1.6 1.4-.6 2.4-2.8 2.8-3.6.7-.7-1.7-7.5-.5-8.8 1.6-.7 1-.9 1-.9 0 0-1.6-2.7-1.6-3.3 0-.3 1-.7 1-1.9.1-.8-.7-1.7-1.1-2-.8-.8.8-15.8 1.1-16 .3-.2-.4-2-.9-4-1-2.1-.2-3.8-.7-3.8-1.2 0-.4-1.7-.5-3.7-.2-2.1.4-5.8.9-8.2 1.1-2.5.3-4.7.8-5 1.2-.3.5-1.8.9-3.3 1.1-2.1.2-2.8-.2-2.9-1.5 0-1-.3-1.3-.6-.6-.3.9-1 1-2.4.3-1.5-.8-1.9-.7-1.9.4s-1.2 1.3-6.2.8c-3.5-.3-6.9-1.1-7.6-1.9-1.7-1.6-3.3-1.7-2.9 0 .1.6-.6 1.1-1.5.9-.9-.1-1.9.2-2.3.8-1 1.5-3.5 1.2-3.5-.5 0-2.1-3.8-1.9-4.3.3-.4 1.6-.5 1.6-.6-.1-.1-2.1-2.1-2.3-2.1-.2 0 .8-.4 1.5-1 1.5-.5 0-1-.7-1-1.5s-.4-1.5-1-1.5c-.5 0-1 .8-1 1.7 0 1.4-.2 1.5-.9.4-.6-.9-1.8-1.1-4.2-.6-2.9.7-3.1.9-1.4 1.5l2 .8-2 .7c-1.1.5-2.4 1-2.9 1.3-.4.2-.5-.6-.1-1.8.6-1.9.4-2.2-1-1.7-.9.4-2.6.2-3.7-.4-1.5-.8-2.2-.8-2.8.1-.5.7-1.4 1.1-2.2.8-.8-.3-2.2 0-3.3.8-2.7 2-3.4 1.7-2.8-.8.5-1.9.3-2.1-.8-1.1-2 1.9-6.7 1.6-7.2-.4-.4-1.6-.5-1.6-.6-.1-.1 2-3.8 2.8-11.1 2.4-3.9-.3-6.6.1-9.3 1.4-3.7 1.8-3.8 1.8-3.2-.1.8-2.3-.3-2.4-3.2-.4-1.4 1-2.4 1.2-2.8.5-.4-.6-1.1-.8-1.6-.4-.5.3-1.6.1-2.4-.6-1-.9-1.9-.8-3.7.4-2.1 1.4-2.7 1.4-4.4.1-2.8-2.1-4.4-1.8-4.5.7 0 1.3-.3 1.7-.6 1-.4-1-.8-1-1.9-.1-.8.7-1.7.9-2.1.6-.3-.4-1.2-.2-2 .5-1.1.8-1.7.8-2.6-.2-.9-1-.9-1.1.1-.6.8.5 1.2-.1 1.1-2.1 0-1.5-.3-2.2-.6-1.6-.3.9-3 1.3-8.4 1.3-4.6 0-7.9.4-7.9 1 0 1.5-5.7 1.2-6.3-.3-.4-.8-.8-.9-1.4-.1-1.1 1.5-8.3 2.6-8.3 1.3 0-.6-.5-.7-1.1-.3-.6.3-2.2.1-3.5-.6-2-1.1-2.7-1.1-4.4.5-1.8 1.6-2 1.6-2 .2 0-2-2.1-2.2-3.8-.5-.9.9-1.2.9-1.2 0 0-1.6-3.7-1.5-4.3 0-.4 1-.8.9-1.7-.2-.9-1.1-1.3-1.2-1.7-.2-.2.6-.9.9-1.4.6-.6-.3-1.6-.1-2.4.6-.9.7-1.5.8-2 0-.3-.5-1.5-1-2.6-1-1 0-1.9-.5-1.9-1 0-1.5-2.8-1.2-3.7.4-1 1.7-6.3 3.3-6.3 1.8 0-.5-2.7-.9-6.2-.8-3.5.1-7.1-.2-8-.7-1.1-.4-2.7-.3-3.8.3-1.1.6-2 .7-2 .2 0-.5-1.2-.7-2.7-.5-2.3.4-3.1-.1-4.6-2.6-1-1.7-2.4-3.1-3-3-.9 0-.9.2.1.6.6.2 1.2 1.2 1.2 2 0 1.2-.3 1.3-1.5.3s-1.8-.8-3.2.6c-1.7 1.7-1.8 1.7-2.1-.4-.4-2.4-1.2-2.8-2.8-1.2-.8.8-2 .7-3.9 0-2.2-.8-3-.8-3.6.2-.6 1-1.4.7-3-1.1-2.2-2.3-2.3-2.3-3-.5-.4 1-.8 1.3-.8.6-.1-.6-1.3-1.2-2.7-1.2-1.4 0-2.3.4-1.9.9.3.6-.3.9-1.4.8-1.1 0-1.7-.5-1.5-.9.3-.4-1-.7-2.8-.6-1.8.1-4.1-.2-5.1-.6-1.2-.6-1.6-.4-1.2.5.4 1-.4 1.5-2.5 1.6-1.6.1-3-.3-3-.9 0-.7-.5-.6-1.5.2-.9.7-1.8 1-2.2.6-.3-.3-.1-.6.5-.6.7 0 1.2-.5 1.2-1 0-1.5-3-1.2-3.6.3-.2.7-2.1 1.4-4.1 1.4-2.1.1-3.1-.2-2.3-.7 1-.6 1-.9 0-1.5-1.4-.9-4.3 2.2-3.4 3.6.9 1.4-.6 1-2.2-.6-.9-.9-1.1-1.5-.4-1.5.6 0 .8-.5.5-1.1-.5-.7-1.4-.4-2.6.7-1.1.9-2.2 1.4-2.6 1.1-.3-.4 0-.7.7-.7 1.1 0 1.1-.3.2-1.2-.9-.9-1.5-.8-2.7.8-1.2 1.6-1.4 1.6-.9.2.4-1.3.1-1.8-1.2-1.8-1.1 0-3-.3-4.3-.7-2.1-.5-2.3-.4-1.8 1.7.4 1.7.3 2-.6 1.1-1.8-1.8-7.5-1.3-9.7.9-2.6 2.6-6 2.6-6 .1 0-1.1.8-2.2 1.8-2.4 1.3-.4 1.2-.5-.5-.6-1.2 0-2.6.5-3 1.2-.4.7-2.1 1.8-3.7 2.5-2.6 1.1-2.8 1.1-2.2-.5.4-1 .4-1.4 0-1-.4.4-1.3.2-2-.4-.9-.8-1.5-.5-2.4 1-1.4 2.7-4 2.7-4 .1 0-1.3-.6-2-1.7-1.9-2.1.1-6.3 1.7-4.8 1.8.6.1.4.5-.4 1s-2.4.6-3.6.1c-1.5-.6-2.7-.4-3.4.3-1 .9-1.6.7-2.7-.8-1.2-1.6-1.6-1.7-2.4-.6-.9 1.6-5 2.3-5 .9 0-.4-1.2-.8-2.7-.8-2.3 0-2.5.2-1.3 1.1 1.2.8.9.9-1.2.5-1.8-.4-2.8-.2-2.8.5 0 .8-.4.8-1.2.2-.7-.6-2.6-1.3-4.2-1.7-2.1-.5-2.6-1-1.7-1.5.9-.6.9-1.1.3-1.5-.6-.3-1.3.3-1.7 1.4-.7 2.3-2.1 2.6-2.8.7-.4-.9-.8-.8-1.7.3-.9 1.1-1.3 1.2-1.7.2-.2-.6-1.2-1.2-2.1-1.1-1.1 0-1.2.2-.4.6 2.1.8 1.3 2.3-1.2 2.3-1.3 0-2.7-.8-3-1.7-.6-1.4-.9-1.5-1.6-.3-.7 1.1-1.1 1.2-2.5 0-1.2-1-2.1-1-4-.2-1.9.9-2.5.9-2.5-.1 0-.8-.3-.7-1 .3-.8 1.2-1.1 1.2-2.8-.3-1-.9-2.2-1.4-2.6-1-1.2 1.2-5.8 1.5-5.1.3.8-1.3.3-1.3-3 0-1.9.7-2.4.7-1.9-.1.7-1.1-3.9-.7-9 .8-1.2.3-1.6.1-1.2-.6.5-.7-.6-1.1-3.3-1.1-2.2 0-5.1-.5-6.4-1.1-1.9-.9-3.1-.7-5.6.5-1.7.9-3.1 2.1-3.1 2.7 0 .6-.7.4-1.5-.5-.8-.8-1.5-2-1.5-2.6 0-.8-.6-.9-1.7-.4-1 .4-4.6.8-8 .8-4.7.1-6.4.5-6.7 1.6-.3 1.1-.6.9-1.1-.7-.5-1.7-1.5-2.3-3.6-2.3-1.6 0-2.9.5-2.9 1 0 .7-.6.7-1.9 0-3-1.6-5.1-1.3-4.4.6.4 1.2.2 1.5-.8 1.2-.8-.3-1.3-1.5-1.2-2.6.2-1.3-.5-2.3-1.7-2.7-2.3-.7-6 .2-6 1.6 0 .5.8.4 1.9-.2 1.1-.8 2.5-.9 3.7-.4 1.6.8 1.4 1-1.3 1.3-1.8.2-3.3.6-3.3 1s-2.1.7-4.7.7c-2.7.1-5.6.4-6.5.9-1.1.5-1.8.4-1.8-.2 0-.6.9-1.4 2-1.7 1.1-.3 2-1.4 2-2.3 0-1.2-.3-1.3-1.2-.4-.7.7-2 1.2-3 1.2s-1.8.6-1.8 1.4c0 .8-.6 1.6-1.2 1.9-1.9.6-4.8-1.1-4.8-2.8 0-.8-.7-1.5-1.5-1.5s-1.5.6-1.5 1.4c0 .8-.5 1.8-1.1 2.2-.9.5-1-.1-.5-1.9.5-2.1.3-2.5-.9-2.1-.8.4-1.5.9-1.5 1.3 0 .3-.5 1.3-1 2.1-.9 1.3-1.3 1.1-3-1-1.1-1.4-1.9-1.8-1.8-1 .4 1.7-7.6 3.2-9.2 1.6-.7-.7-1-.5-1 .7 0 .9-.4 1.7-1 1.7-.5 0-1-.7-1-1.6 0-1.3-.3-1.4-1.4-.5-1.1 1-1.5.8-1.9-.6-.4-1.6-.6-1.5-1.2.5-.9 2.7-2.5 2.9-2.5.2 0-2.7-1.8-2.5-3 .2-.6 1.6-.9 1.8-.9.6-.1-1-1.8-2.3-4.6-3.3-2.4-1-4.3-2.1-4-2.5.2-.3-.2-.7-1-.7-1.9 0-1.9.6.1 2.8 1.7 1.8 1.2 4-.9 3.8-.9 0-.8-.2.1-.6.9-.4.8-1.2-.5-3.4-1.8-3.1-2.8-3.5-3.8-1.9-.4.6-1.1.7-1.7.4-.6-.4-.8-.2-.4.4.3.6.2 1.4-.4 1.7-.6.4-1 .3-.9-.2.4-2.4-.4-3-4.1-2.8-2.2.1-4.3-.2-4.6-.7-1.2-1.9-2.4.4-1.3 2.5.7 1.5.3 1.3-1.5-.8l-2.6-3-2.2 2.5c-1.4 1.6-1.9 1.9-1.5.7.4-.9.2-1.7-.3-1.7-.6 0-1 .4-1 .8 0 .5-.7 1.7-1.5 2.8-1.4 1.8-1.5 1.7-.5-.8.8-2.3.7-2.6-.8-2.1-.9.4-2 1.1-2.4 1.7-.5.7-.8.7-.8-.2 0-.6-.9-1.2-2.1-1.2-1.1 0-1.8.4-1.4.9.8 1.3-9.7.6-12.4-.9-2.9-1.5-4.1-.4-1.5 1.5 1.8 1.4 1.8 1.4-.8 1.5-1.8 0-2.8-.5-2.8-1.4 0-1.1-1-1.3-4.2-.9-2.8.4-3.9.3-3.4-.5.4-.7-.3-.8-2.4-.2-3.2.9-11.7.7-12.7-.4-.4-.3 2.5-.7 6.3-.8l6.9-.2-7.5-.5c-7-.6-10.9-.2-8.2.7 2.8.9.9 2-3 1.7-2.4-.2-5.6-.4-7.3-.5-2.5-.1-2.7-.3-1-.9 1.5-.6 1.1-.9-2-1.4-6-1-9.5-.8-9.5.4 0 .8 1.3.9 4 .5 3.3-.5 4-.3 4 1 0 1.1-.5 1.4-1.6 1-.9-.3-3.4-.6-5.5-.6-2.4 0-3.8-.4-3.4-1 .3-.6-.5-1-1.9-1s-2.8.4-3.1 1c-1 1.6-2.5 1.2-2.5-.8 0-1.4-.2-1.5-1-.2-.5.8-.7 2.3-.4 3.4.4 1.3.2 1.7-.7 1.4-.8-.3-1.6-1.8-1.9-3.4-.5-2.4-1-2.8-3-2.6-1.4.2-3.3 1.1-4.2 1.9-.9.8-2.1 1.2-2.7.9-.5-.4-1.2-.2-1.6.4-.4.6-1.3.5-2.5-.2-1-.7-1.6-1.6-1.3-2.1.3-.5 0-1.3-.7-1.7-1.4-.9-4 1.1-4 2.9 0 .7-1 .9-2.5.5-1.8-.4-2.7-.1-3.1 1-.3.9-1.1 1.6-1.6 1.6-.6 0-.5-.6.2-1.5 1-1.2.9-1.5-.8-1.5-1.1 0-2.2.5-2.4 1.2-.3.8-.9.8-1.9.2-.8-.5-4.3-1-7.9-1.2-7.8-.3-10.2-.6-11.7-1.5-.6-.4-1.5-.3-1.8.3-.4.6-1.5.8-2.6.5-1-.4-1.9-.2-1.9.4 0 .6-1.1.7-2.8.2-1.5-.5-6.4-.6-10.8-.4-5.2.3-8.4.1-8.9-.6-.3-.6-1.7-1.1-3-1.1-1.8 0-2.3.4-1.8 1.6.3.8 1.1 1.3 1.8 1.1.6-.3 1.2.1 1.2.8 0 1.7-1.8 1.5-3.4-.5-.9-1.1-1.2-1.2-1.3-.2 0 .8-.8.6-2.2-.8-1.2-1.1-1.8-2.3-1.5-2.7.4-.3.7-.1.7.6s.5.9 1 .6c1.5-.9 1.2-2.5-.5-2.5-.7 0-1.9.8-2.5 1.8-1.1 1.7-.9-.1.6-7.3.2-1.1.1-1.4-.2-.7-.3.6-1 1.2-1.5 1.2-.6 0-.7-.4-.4-1 .3-.5-.6-1.5-2-2.2-2.2-1-2.8-.9-3.6.3-.7 1.1-.9.9-.9-.8 0-2.4-2.2-4.3-2.8-2.5-.2.7-1.3 1-2.7.6-1.3-.3-3.1-.1-4.2.4-2.1 1.1-4.6.5-3.7-1 .3-.5-.3-.4-1.5.4-1.6 1-2.3 1-3.3 0-.6-.6-1.6-1.2-2.2-1.2-.5 0-.7.3-.3.6.3.4-.1 1.3-1 2.2-1.4 1.4-1.7 1.4-2.9-.3s-1.4-1.7-2-.1c-.4.9-1.2 1.5-1.9 1.2-1.2-.4-2.9 2.8-2.6 4.8.1.5-.5.3-1.4-.4-1.2-1-1.8-1.1-2.8-.1-.9 1-.8 1.1.6.6 2.1-.9 2.2.1.3 2.1-.8.7-1.6 1-1.8.5-.2-.5-2.3-1.1-4.8-1.4-3.2-.5-3.8-.4-2 .2l2.5.9-2.7.1c-1.5.1-3 .6-3.3 1.1-.4.6-1.1.7-1.7.4-1.1-.7-8.5 1.3-10.5 2.9-1.7 1.2-1.7-.5-.1-2.1.6-.6.8-1.5.4-1.9-.5-.5-1.3-.1-1.9.8-1 1.6-1.4 1.5-5.3-.1-2.3-1-4.5-1.6-4.8-1.3-1.2 1.3-3.6-2-3-4.2.4-1.7.1-2.5-1.4-2.9-1.1-.4-2.3-1.3-2.6-2.1-.3-.8-2.3-1.8-4.6-2.1-2.2-.4-4-1.1-4-1.6s-.5-.6-1-.3c-1.7 1-1.1 2.5 1 2.5 1.6 0 2 .7 2 3 0 4.2-3.5 4.2-4.4 0-.4-2.4-1.1-3-3.3-3.1-2.4-.2-2.5-.2-.5-.6 1.7-.3 2.2-1.1 2.2-3.5 0-2.5-.3-2.9-2-2.5-1.1.3-2 .1-2-.3 0-.5 1.9-1.1 4.3-1.3 3.8-.4 3.7-.4-.8-.3-4.2.1-5 .4-4.7 1.9.2 1.1-.4 1.7-1.8 1.7-2.1 0-2.7-1.4-1-2.5 1.3-.8 1.3-4.5 0-4.5-.5 0-1 .9-1 2s-.4 2-1 2c-.5 0-.7.7-.4 1.5.5 1.1-.1 1.3-3 .8-2.2-.3-4.2-.1-5.1.7-.8.7-1.5.8-1.5.2 0-1.2-3.2-1.1-4.1.2-.9 1.2-2.9-.2-2.9-2 0-.9 1.1-1.4 3.5-1.4 3.7 0 5-2.5 2-3.6-1.9-.8-1.9-2.4 0-2.4.8 0 1.5-.5 1.5-1 0-.6-.4-1-1-1-.5 0-.7-.7-.4-1.5.4-.8.1-1.5-.5-1.5s-1.1-.9-1.1-2c0-4.7-3.2-.5-3.4 4.5-.1 1.7-.9 2.1-4.9 2.3-4.5.3-4.7.2-4.7-2.2 0-1.8-.5-2.6-1.7-2.6-1.6-.1-1.6-.2.2-1.6 1.4-1.1 1.6-1.8.8-2.1-.7-.3-1.3-1.1-1.3-1.9 0-1.2-.4-1.2-2.5.2-1.4.9-2.8 1.4-3.2 1-.3-.3-.2-.6.4-.6.6 0 .9-.9.6-2.1-.4-1.4-.8-1.7-1.3-.8-.5.8-2.1 1-4.4.6-4.4-.7-4.9 1.1-.6 1.9 3.1.7 3.8 1.8 1.8 3-.6.4-1.6 0-2.3-.9-1.6-2.2-3.5-2.2-3.5 0-.1 1.7-.2 1.7-1.5-.1-1.1-1.5-2.1-1.7-5-1.2-2.5.5-3.5.4-3.1-.3.4-.6.2-2-.4-3.1-1-1.8-1.8-2-7-1.5-3.3.3-6 .2-6-.3 0-.4-1.5-.6-3.4-.4-4 .5-5.7-1.4-2.4-2.7 1.3-.6 1.7-1 .8-1-.9-.1-2.6.6-3.8 1.5-1.2.8-2.7 1.2-3.4.8-.8-.5-.6-1 .8-1.5 1.6-.6 1.5-.8-1.1-1.4-1.6-.5-3.3-1.3-3.7-1.9-.4-.6-.9-.4-1.4.7-.8 2.1-4 2.2-4.8.1-.5-1.4-.7-1.4-2.2 0-1.7 1.8-2 1.8-4.9.7-1.6-.7-2.2-.2-3.2 2.1-.7 1.7-1.8 2.8-2.5 2.6-1.6-.6-1.8-2.8-.5-4.6.7-.9.3-1.2-1.7-1.2-2.1 0-2.6-.5-2.6-2.5 0-1.5-.6-2.5-1.4-2.5-.9 0-1.2.7-.9 2 .4 1.6-.1 2.1-2.6 2.6-2.9.6-3.2.9-2.7 3.8.6 3 .6 3.1-.5.4-1.1-2.9-3.1-4.1-5.4-3.2-1.8.7-2 2.4-.3 2.4.9 0 .9.3 0 1.2-.8.8-1.5.9-2 .3-1.3-1.8-6-3.8-7.7-3.2-.9.4-3.2-.2-5.1-1.2-3.5-1.9-3.6-1.9-5.6.1-1.2 1.2-2.6 1.7-3.6 1.2-.9-.3-2.7-.9-4-1.1-1.2-.3-2.5-.9-2.8-1.4-1.1-1.8-3.4-.9-3.4 1.3-.1 2-.2 2.1-1.3.7-.9-1.2-1.8-1.4-3.5-.8-2.5.9-3 2.9-.8 2.9.8 0 1.8.5 2.2 1.2.5.8 0 .9-1.7.4-5.8-1.7-5.9-1.6-6 1.7-.3 10-8.5-46-11.4-78.3-.8-9.6-1.8-19.5-2-22-.3-2.5-1.4-21.8-2.5-43-2.4-45.6-3.5-67.5-5.1-94.2-1.3-21.5-.8-28.6 2.2-34.5 1.1-2.1 2-5.8 2-8.3.1-5.2-1.6-10.4-3.1-9.5-1.6 1-1.2-1.2.5-2.9 1.9-1.9 1.9-5.6 0-5.6-.8 0-1.8-1.2-2.1-2.8-1-3.9-1.5-4.6-2.5-3.1-1.4 2.3-6.7-3.6-6.1-6.6.2-1.4 0-2.5-.6-2.5-.7 0-.9-3.3-.8-9 .2-5-.1-9.3-.6-9.6-.9-.6-1.1-15.7-.2-20.3.4-1.8 1.3-3.1 2.1-3.1s1.3-.6 1-1.3c-.2-.6-1-1.1-1.6-.9-.6.1-1-.2-.9-.7.3-1 0-1.1-4.4-1.1-2.3 0-2.9.3-1.9.9 1.1.7 1 1-.5 1.4-1.7.4-1.7.6.4 1.2 2.1.7 2.2 1.2 2.2 11.2 0 7.9-.4 11-1.6 12.8-.9 1.4-1.2 2.5-.8 2.5.5 0 1 1.8 1.2 4 .1 2.5-.2 4-.9 4-.9 0-.8.4 0 1.4.9 1.1.9 1.5-.1 1.8-1.1.4-1.1.8 0 2 1.4 1.7.1 3.4-1.7 2.4-.5-.4-.6.5-.2 2.1.5 2 .2 3.2-1.7 5.2-1.3 1.5-3.2 2.5-4.3 2.3-1.3-.2-1.9.3-1.9 1.7 0 1-.6 2.2-1.2 2.4-1 .4-.9.8.2 1.7 1.2.9 1.1 1-.8.5-2.2-.6-2.4-.4-2.1 3.2.2 2.1.8 4.1 1.4 4.5.6.5.6.8-.2.8-.7 0-1.3.7-1.3 1.6 0 .8-.4 1.2-1 .9-1.9-1.2-1.1 10.2.9 14.2 2.8 5.5 3.4 13.1 2.2 27.3-.6 6.9-1.3 15.6-1.6 19.5-.3 3.8-.8 9.5-1 12.5-.3 3-1.4 16.7-2.5 30.5-1.1 13.7-2.2 27.5-2.5 30.5-.9 9.8-1.5 17.2-3 36-2.3 27.4-2.7 30-3.8 29.3-.6-.4-.7-.1-.3.6 1 1.6-1.5 25.1-2.6 25.1-.5 0-.6-.5-.2-1.2.5-.7.3-.8-.5-.3-.9.5-1 1-.2 1.8 1.4 1.4 1.4 5.7 0 7.7-.7 1.1-.8.4-.4-2.5l.6-4-1.5 3.8c-.7 2.1-1.2 4.7-.9 5.7.3 1.1 0 2-.6 2s-1.1 1.5-1.2 3.2c0 3.6-1.7 8.6-1.8 5.7-.1-2.1-3.1-3.4-3.1-1.4 0 .8.5 1.5 1.2 1.5.6 0 .8.3.5.6-.3.4-.2 1.4.2 2.3.6 1.1.4 2.1-.7 3.1-1.4 1.3-1.5 1.2-.9-.4.9-2.3-1.3-7.6-3.1-7.6-.7 0-1.5.7-1.8 1.5-.9 2.3-2.3 1.8-3-1-.5-2-.9-2.3-2-1.4-.7.6-1.9.7-2.6.3-1.9-1.2 3.3-2.3 5.5-1.2 1.2.6 1.9.4 2.3-.7.3-.8 1.2-1.5 2-1.5s1.1-.6.8-1.5c-.4-.8-1-1.5-1.5-1.5s-.9.7-.9 1.5-.7 1.5-1.6 1.5c-1.1 0-1.4-.5-1-1.6.3-.8 0-2.2-.8-3-1.6-1.6-3.3-1.8-3.8-.6-.1.5-1.6 1.2-3.2 1.6-2.6.6-2.8.5-2.3-1.4.4-1.5.2-2-.7-1.7-.7.3-1.8-.4-2.5-1.5-.7-1.2-1.8-1.7-2.7-1.4-1 .4-1.4.1-1.1-.6.2-.8 1.7-1.2 3.5-1 1.8.2 3.2-.1 3.2-.7s-1.1-1.1-2.5-1.1c-1.5 0-3.6-1.1-4.9-2.5-2.8-3-4-3.2-3.3-.4.4 1.7.3 1.8-.9.8-.9-.7-1.1-1.6-.6-2.3.5-.6 1.2-1.9 1.5-2.9.6-1.7.5-1.7-1.5-.3s-2.4 1.4-4.1-.2c-1.5-1.2-2.1-1.4-2.4-.5-.3.7-1.2 1.3-2 1.3-1.3 0-1.3.3-.3 1.5.7.9 1.1 1.8.8 2-.3.3-1.1-.1-1.7-.9-.9-1.1-1-2-.1-3.5 1.2-2.4 1.1-2.5-2.4-1.1-3 1.1-5.6.4-5.6-1.5 0-1-.9-1.1-3.8-.4-5.3 1.2-6 1.1-7.9-1.1-1-1.1-2.6-2-3.7-2-2 0-2 0 0-1.6 1.8-1.5 1.8-1.5-.6-1-1.4.3-2.9.6-3.4.6s-.3.7.4 1.5c1.5 1.9.9 2.8-1.4 1.9-.9-.3-1.6-1.5-1.6-2.5 0-2.1-1.6-2.6-2.3-.7-.4 1-.6 1-.6.1-.1-.6.9-1.9 2.1-2.7 2.1-1.5 2.1-1.6.4-2.9-2.1-1.5-1.4-2.3 3.2-3.7 2.4-.7 2.2-.8-1.6-.9-2.4-.1-4.1.3-3.8.8.8 1.2-4.8 0-5.7-1.3-.5-.7-1.1-.5-1.8.6-.5 1-1.5 1.8-2.2 1.8-.8 0-.6-.4.3-1.1 1.2-.8.9-.9-1.1-.5-3.1.7-5.3-1.3-4.3-3.8.8-2-.9-2.1-2.6-.1-1.7 2-4.6 1.9-6.2-.3-.7-.9-2.4-2.3-3.8-3l-2.5-1.2 2.9.5c5.3 1.1 9.1 1.5 7.9.9-.7-.3-1.3-1.5-1.3-2.6 0-1.5.3-1.8 1.3-1.1.6.5 2.2 1 3.4 1.1 2 .1 2.1-.2 1.1-3-.8-2.2-1.3-2.6-1.9-1.6-.6 1-.9 1-.9 0 0-.6-1.1-1.2-2.5-1.2-1.9 0-2.5-.5-2.3-1.6.2-1-.3-1.9-.9-2.1-.7-.3-1.3 0-1.3.6 0 .7-.8.7-2.6.1-1.4-.6-4-1-5.7-1.1-1.8 0-2.6-.3-1.9-.6 1.7-.7 1.5-2.4-.5-3.9-1.7-1.2-1.6-1.3.4-1.4 1.5 0 2.3.7 2.5 2.2.3 2.6 3.8 3.8 3.8 1.5 0-.9-.6-1.7-1.2-2-1-.4-1-.7 0-1.8.6-.7 1.2-2.3 1.2-3.6 0-3 1.4-2.9 2.8.2.6 1.4 1.6 2.5 2.2 2.5.6 0 .8.5.4 1.1-.4.8-.9.8-1.7 0-1.6-1.6-3.7-1.3-3.7.4 0 .8.6 1.5 1.4 1.5.7 0 2.8.3 4.6.6 3 .7 3.2.6 2.1-1.3-.5-1.1-.8-2.3-.5-2.6.3-.3-.4-.8-1.6-1.2-1.7-.5-1.9-1-.9-2.1.6-.8 1.7-1.4 2.3-1.4 1.5 0 .9-5.7-.6-6.6-.5-.3-2 .3-3.2 1.5l-2.3 2.2-1.9-2.6c-1-1.4-2.7-2.5-3.7-2.5-1.5 0-1.6-.2-.5-1.4 1.1-1.1 1.6-1.2 2.8-.2 2.4 2.1 4.4 3 3.7 1.9-.4-.6 0-1.6.8-2.3 1.2-1 1.5-.9 1.5.4 0 .9.4 1.6 1 1.6.5 0 .7-.6.4-1.4-.3-.8-.1-1.7.5-2.1 1.9-1.1 1.2-2.8-.9-2.2-2 .5-4.5-1.5-3.3-2.6 1.7-1.8-1.4-.4-3.3 1.4-1.3 1.3-3.1 1.9-4.6 1.7-2.3-.4-2.3-.5.4-1.6 1.9-.8 2.6-1.6 2.2-2.7-.5-1.2.3-1.5 3.9-1.5 4.8 0 6.6-1.2 4.8-3.4-.6-.7-.9-1.5-.6-1.7.2-.3-1.3-.5-3.3-.4-2.1 0-3.7.5-3.7 1.2 0 .6-.3 1.5-.8 1.9-.4.4-.7-.6-.7-2.2 0-1.7.5-3.5 1.2-4.2.6-.6.8-1.5.4-1.9-.4-.4-1.1-.1-1.5.6-.5.7-1.4 1-2 .7-1.6-1-1.3-3.6.4-3.6.8 0 1.5-.9 1.5-2 0-1.5-.7-2-2.9-2-2.5 0-3 .5-3.7 3.7-.6 3-.9 3.3-1.2 1.5-.2-1.4-1-2.2-2.3-2.2-1 0-1.9-.5-1.9-1.1 0-.6.7-.8 1.6-.5 2.4.9 4.7-2 4-5-.4-1.4-.2-3.2.4-3.9.8-.9.8-1.5 0-2-1.6-1-1.2-6.5.5-6.5.8 0 1.5.5 1.5 1.2 0 .6.3.9.6.6.3-.4-.1-1.9-.9-3.5-1.3-2.4-1.6-2.5-2.2-1.1-.5 1.3-1.8 1.8-4.6 1.8-2.1 0-3.9.4-3.9 1 0 .5 1.6 1 3.6 1 2.4 0 3.4.4 3.1 1.2-.2.7-1.6 1.3-3.1 1.3-2.9 0-5.4 2.9-3.6 4 1.3.8 1.3 2.5 0 2.5s-2.9-6.3-1.9-7.5c.5-.5.9-2.2.9-3.7 0-2.1-.6-3.1-2.4-3.8-2.3-.8-4.5-3-3.1-3 1 0 4.9 2.2 6.3 3.7 1.6 1.6 2.9 1.7 3.7.3.9-1.5 3.8-1.2 2.9.2-.6 1-.4 1 .7 0 .7-.6 2.4-1.2 3.9-1.3l2.5-.1-2.5-.7c-2.1-.6-2.5-1.2-2.3-4.1.2-3.8-2.1-9-4.1-9-.7 0-1.9.7-2.6 1.5-.7.8-1.6 1.2-2.2.9-1.5-.9 1.2-3.4 3.8-3.4 1.3 0 2.4-.5 2.4-1.1 0-.6-.7-.9-1.5-.5-.9.3-2.5-.4-3.7-1.6-1.7-1.7-1.9-2.4-1-3.9.8-1.3.8-2 .1-2.5-.6-.3-.8-1.9-.5-3.5.5-2.9.5-2.9-4.4-2.9-2.8 0-5-.4-5-1 0-.5.6-.7 1.4-.4.9.4 1.4-.3 1.4-2 0-2.1-.5-2.6-2.7-2.6-1.4 0-3.3-.5-4.1-1.1-1.1-.8-.5-.9 2.4-.7 3.2.4 4 .1 4.9-1.9.5-1.3 1.4-2.3 1.8-2.3 1.4 0 2 3.3.7 4.2-.7.5.7.5 3.2.2 2.5-.4 4.5-.7 4.5-.8 0-.1 1.1-2.1 2.4-4.5 2.1-4 2.2-4.5.7-5.3-.9-.5-1.4-1.4-1-1.9.4-.6 1.3-.4 2.5.7 1.6 1.5 2 1.5 3.4.1.8-.9 1.5-1.9 1.5-2.3 0-.5-.5-.3-1.2.4-1.8 1.8-3 1.4-2.3-.8.7-2.1-1-2.8-1.8-.8-.3.8-.6.6-.6-.5-.1-.9.5-1.7 1.2-1.7.6-.1-.3-.7-2.1-1.5-4-1.7-7.2-.6-7.2 2.5 0 2.2-2.6 2.8-3.3.7-.3-.8-1.1-.5-2.5 1.1-1.8 2-2 2.1-2.6.5-.4-1.1-.1-2.2.8-2.9 1.7-1.2 2.1-2.4.8-2.4-1.8 0-4.8 3.6-4.4 5.2.5 2.3-.3 2.3-2.8-.2-1.1-1.1-3-2-4.2-2-2.1 0-2.1-.2 1-3.2 2.6-2.6 3.4-3 4.4-2 1.1 1.1.8 1.7-1.2 3.2-2.4 1.9-2.4 2-.4 2 3.2 0 5.1-2.7 3.6-5.1-.7-1-1.2-2.3-1.2-2.7 0-1.2 5.8-1.3 6.5-.2.3.4-.4.6-1.4.3-1.6-.4-1.9-.1-1.4 1.5.3 1.3 1.1 1.8 1.9 1.5.8-.3 2 0 2.8.6 1.1 1 1.4.7 1.2-1.4 0-1.4-.4-2.5-.8-2.5-.3 0-.4-.9-.1-2 .6-2.4 3.3-2.7 3.3-.3 0 1.1.3 1.4 1 .7s.6-1.9-.2-3.7c-1-2-2-2.7-4.1-2.7-1.6 0-2.6-.4-2.2-1 .8-1.3 5.2-1.3 6 0 1 1.6 3.5 1.2 3.5-.6 0-1-.7-1.4-2.1-1.2-2.6.4-3.5-2.7-1.9-6.4.9-2.1 1-2.1.7.7-.1 2.1.3 3.1 1.4 3.3 1.3.2 1.6-.6 1.6-3.8 0-3.5-.2-4-1.8-3.5-1.3.5-1.9.1-1.9-1 0-1.3.6-1.6 2.5-1.1 1.5.4 2.5.2 2.5-.4 0-2-3.3-2.4-6.1-.7-1.6.9-3.1 1.2-3.3.8-.3-.4.6-1.4 1.9-2.1 3.4-1.8 3.1-3.7-.5-4.2-2.4-.4-3-.1-3 1.4s-.8 1.8-4.4 1.8c-4.7 0-6.2 1.2-5.8 4.5.2 1.8.2 1.9-.8.2-1.3-2.1-3-2.2-3-.2 0 .8-.7 1.5-1.5 1.5s-1.5.4-1.5 1c0 .5-.8 1-1.7 1-1.3 0-.9-.8 1.5-3 1.8-1.7 4-3 4.8-3 .9 0 1.4-1.1 1.5-3.3 0-1.7.3-2.7.5-2 .3.7 1.2.9 2 .6 1.9-.7 1.8-2.3-.1-2.3-.8 0-1.5-.5-1.5-1 0-.6.9-1 2-1s2 .4 2 1c0 .5.9 1 1.9 1 2 0 3-1.7 3.2-5.3.1-1.7.3-1.5.8.7.7 3.5 3.1 4.7 3.1 1.7 0-2.4 1-2.7 2.8-.9 1.3 1.3 1.6 2.9.5 2.5-.5-.1-.9.1-1 .6-.2.4-.1.7.2.7h2.5c1.3 0 1.8-.5 1.4-1.5-.4-.8-.1-1.5.5-1.5s1.1.4 1.1 1c0 .5.6 1 1.4 1 .8 0 1.7.6 1.9 1.2.4 1 .6 1 .6.1.1-.6-.3-1.5-.9-1.8-1.5-.9-1.2-2.5.5-2.5.8 0 1.5-.9 1.5-2 0-2.3 1-2.6 2.8-.8.8.8 1.2.9 1.2.1 0-.6-.6-1.3-1.2-1.6-.7-.2-1.3-1.7-1.3-3.3 0-2.8-.2-2.9-4.9-3.1-5.7-.3-7.6-1.3-2.3-1.3 2.7 0 3.7-.4 3.7-1.6 0-1 .5-1.2 1.3-.7.6.4 2.3.7 3.7.5 1.4-.1 1.9.1 1.2.4-1.7.8-1.5 2.4.3 2.4.9 0 1.5-.9 1.5-2.5 0-2-.5-2.5-2.5-2.5-2.9 0-3.6-3.4-.9-4.4 2.5-1 3.7.4 1.7 2-1 .7-1.3 1.4-.6 1.4.6 0 1.8.3 2.7.6 1.2.4 1.6 0 1.6-1.5 0-1.2-.6-2.4-1.4-2.7-.8-.3-1.8-2.4-2.1-4.7-.4-2.3-1.1-5-1.7-6-1.2-2.4-4.9-2.2-5.5.3-.6 2.3-2.3 2.7-2.3.5 0-.8-.4-1.5-1-1.5-.5 0-1-.5-1-1 0-.6.9-1 2-1s2-.5 2-1.1c0-.6-.7-.9-1.5-.6-.8.4-1.7.2-2-.3-.4-.6.5-1 1.9-1s2.6-.5 2.6-1c0-1.3-4.5-1.3-7.3.1-2.1 1-2.1 1-.3-.5 1.1-.9 3.1-1.6 4.5-1.6 2.1 0 2.8-.7 3.8-3.7.6-2.1 1-4.1.7-4.4-.6-1-4.4.1-4.4 1.3 0 .6.7.8 1.5.4.8-.3 1.5-.1 1.5.5 0 .7-1.2.9-3.2.5-1.8-.4-4.2-.7-5.3-.7-1.4 0-.8-.6 1.8-1.9 2.1-1 4.4-1.7 5-1.4.7.2 2.9-.4 5-1.5 3.6-1.9 3.8-1.9 7.5-.1 4.2 2.1 7.4 2 8 0 .3-.9-.2-1.1-2.2-.6-1.5.4-2.6.2-2.6-.4 0-.5-1.3-1-3-1-2 0-3-.5-3-1.5 0-.9-.6-1.5-1.2-1.3-2.9.5-6.8-1.3-6.8-3.2 0-1.1.5-2 1-2 .6 0 1 .4 1 .9 0 1.1 7 2 7.6.9.3-.4 0-.8-.7-.8s.2-1.3 1.9-2.8c2.8-2.5 3-3.1 1.8-4.7-.9-1.2-1.5-1.5-2-.7-1 1.6-2.3 1.5-2.9-.1-.3-.9.2-1.3 1.5-1.3 1.2.1 2.3-.5 2.5-1.2.3-.7-.4-1.2-1.4-1.2-1.1 0-2.2-.3-2.6-.6-1-1 .5-3.4 2.2-3.4 1.4 0 1.4-.2.1-1-1-.6-1.1-1-.2-1 .6 0 1.2-.9 1.2-2 0-1.5.7-2 2.5-2 1.4 0 2.5.4 2.5 1 0 1.5 3.6 1.2 4.9-.4 1.5-1.8-.1-3-2.9-2.1-2.7.9-2.6-1.6 0-4 2.2-2 5.6-2.5 7.8-1.1 2.3 1.4 2.5-.2.3-3.2-1.8-2.6-1.9-3.1-.5-3.6 2-.8 3.4.1 3.5 2.2 0 1.2.3 1.1.9-.6.5-1.2 1.8-2.2 2.8-2.2 1 0 2.7-.7 3.8-1.5 1.4-1.1 1.5-1.4.4-1.5-.8 0-2.1.4-2.9.9-2.2 1.4-4.4.2-3-1.5.6-.8 1.8-1.4 2.5-1.4.8 0 1.4-.7 1.4-1.6 0-1.2-.7-1.5-2.7-1-1.6.3-2.2.3-1.5 0 1.4-.7 1.6-5 .2-5.9-1.9-1.2-1-2.2 2-2.2 3.3 0 4.1 1.3 1.3 2-1 .3.4.5 3 .4 2.7 0 4.2-.4 3.5-.8-.7-.4-.9-1.1-.5-1.5.9-1 3.7 1.5 4.8 4.3 1.1 3.1 2.9 2.9 2.9-.2 0-1.4-.4-2.5-1-2.5-.5 0-1-.5-1-1 0-1.8 1.7-1 2.8 1.2.9 2 1.1 1.7 1-2.2 0-2.8-.2-3.7-.6-2.5-.8 2.2-4.8 3.1-6.7 1.5-.7-.6-2-.8-2.9-.4-.9.3-1.6.2-1.6-.4 0-1.5 2.6-2.2 3.7-1.1.6.6 2.2.7 3.7.3 1.9-.4 2.6-1.3 2.6-3 0-1.3-.5-2.4-1.2-2.4-.9 0-.9-.3 0-1.2.7-.7 1.2-2.7 1.2-4.5 0-2.5.4-3.1 1.5-2.7.8.4 1.5.2 1.5-.4 0-.6-.6-1.2-1.2-1.5-.9-.3-.5-1.2 1.1-2.8 1.8-1.8 2.2-2 1.8-.7-.7 2.1-.3 2.2 2.4.8 1-.6 1.9-1.6 1.9-2.3 0-.8-.4-.7-1.1.3-.9 1.2-1 1.2-.5-.3.3-1 .6-2.1.6-2.3 0-.2.9-.4 2-.4 1.4 0 2 .6 1.8 1.7-.2 1 .3 1.8 1.1 1.8 1.6 0 2.5-5.2 1-6-1.3-.9-1.1-2.9.6-5.1 1.5-1.8 1.6-1.7 1 1.4-.4 1.8-.3 3.2.2 3.1 2.9-.5 4.3.3 4.3 2.6 0 3.2 1.6 3.2 2.2 0 .4-1.7 0-2.6-1.2-3-2-.6-2.4-6.5-.3-6.5 1.2 0 1.5.6 1.7 4 .1.8 1 1.6 2.1 1.8 1.2.2 1.6 0 .9-.5-.6-.4-1.3-2-1.6-3.6-.5-2.4-.2-2.7 2.1-2.6 1.7.1 2 .3.9.6-2.5.6-2.2 1.6.9 3 3.3 1.6 4.3 1.6 4.3.3 0-.6-.6-1-1.4-1-.7 0-1.6-.9-1.9-2-.4-1.4-1.4-2-3.5-2-1.6 0-4.1-.9-5.6-2.1l-2.6-2.1 2.2-1.8c1.4-1.1 1.8-1.9 1-2-2.1 0-.3-2 1.9-2 1.1 0 1.8-.4 1.5-.9-.3-.4.6-.6 1.9-.3 3.3.6 3.2-.6-.1-1.8-2.3-.9-2.4-1.2-1-2.5 1.9-1.9 3-1.9 2.2 0-.3 1 .1 1.5 1.3 1.5 1.4 0 1.7-.6 1.4-2.5-.3-1.5-1.1-2.4-2.2-2.2-.9.1-1.7-.3-1.8-.8-.2-.6 1.5-1 3.7-1 2.8 0 4 .4 4 1.4 0 1.2.3 1.2 1.2.3.9-.9.9-1.5.1-2.3-.8-.8-.9-2-.2-3.7.5-1.3.7-3.3.4-4.3-.4-1.1-.2-1.9.4-1.9.6 0 1.1.5 1.1 1.1 0 1.8 2.8 3.9 4.4 3.3 1.8-.7 2.2-2.4.5-2.4-1.9 0-3.9-2.8-3.9-5.4 0-1.4.5-2.6 1-2.6.6 0 1 1.4 1 3 0 2.6.3 3 2.3 2.5 1.2-.3 4.7-.8 7.7-1 7.8-.7 8-.7 7.4-1.7-.3-.4-2.1-.8-4-.8-2 0-4.2-.7-5-1.5-1.4-1.3-.9-1.4 4.1-1 4.2.3 6.1.1 7.2-1 .8-.8 2.8-1.5 4.4-1.5 1.6 0 2.9-.4 2.9-.9 0-.9-3.9-.7-9.2.4-1 .2-1.8 0-1.8-.4s2.2-1.3 4.9-2l4.9-1.2-.5-4c-.4-2.7-.2-3.9.7-3.9.6 0 1-.6.8-1.2-.3-.7.2-1.9.9-2.6 1.7-1.7 4.5.1 3.6 2.4-.3.8 0 1.4.6 1.4s1.1-1 1.1-2.2c0-1.2.3-1.8.6-1.5.4.3 1.5 0 2.6-.7 1.1-.8 2.8-1.2 3.9-.9 2.2.6 2.5 1.9.7 2.6-.7.3-.3.6 1 .6 3.1.1 2.6-3.3-.6-3.7-1.2-.2-2.2-.8-2.2-1.3 0-1.4-2.6-1.1-4 .6-1.4 1.7-5 2-5 .5 0-.5 1.4-1.6 3-2.5 3.4-1.8 4-3 1-2.2-1.1.3-1.8.1-1.5-.3.3-.5-.1-1-.7-1.3-.7-.2-1-.7-.7-1.1 1-1.1 5.9 1.2 5.9 2.8 0 1 .9 1.4 2.5 1.2 3.3-.4 4.5-1.6 1.5-1.6h-2.3l2.7-2.5c3.3-3 4.6-3.2 4.6-.5 0 1.1-.4 2-1 2-.5 0-1 .9-1 2s.5 2 1 2c.6 0 1-.7 1-1.5 0-.9.6-1.5 1.3-1.4 4.9.6 5-2.9.2-7.8-1.9-2-3.3-3.9-3-4.2.4-.3 1 .1 1.5.9.7 1.2 1 1.1 1.6-.4.4-1.1.2-2.1-.7-2.7-1-.6-1.1-.9-.1-.9.7 0 1.5.7 1.8 1.5.8 2 2.9 1.9 4.9-.1 1.3-1.4 1.4-1.9.4-2.5-1.1-.6-1-.9.3-1.4 1-.4 2.6.1 3.9 1.3l2.1 2-4.3 2.3c-2.4 1.2-4.8 2.7-5.2 3.3-.6.8-1 .8-1.4-.2-.2-.6-.9-1.2-1.5-1.2s-.5.6.2 1.6c.8.9 2.6 1.4 4.4 1.3 1.7-.2 4.4.1 5.9.5 1.8.6 3.3.4 4-.3 1-1-.6-1.5-5-1.4-.6 0-.9-.6-.6-1.3.3-.8 1.9-1.4 3.9-1.4 3.6 0 4.2-.8 2.2-2.8-.7-.7-.8-1.2-.2-1.2.5 0 .9-1.5.9-3.3 0-2.8.4-3.2 2.8-3.5 2-.2 2.7-.8 2.3-1.8-.3-.8-.1-1.4.4-1.4.6 0 1-.7 1-1.5s.7-1.5 1.5-1.5 1.5-.7 1.5-1.5 1.2-1.8 2.6-2.1c1.6-.4 2.3-1.1 2-2.1-.3-.7.1-1.6.9-1.9 1.9-.8 2-4.4.1-4.4-.8 0-1.8.5-2.1 1-.5.8-1.1.7-2.1-.1-1.1-.9-1.7-.9-2.9.1-.8.6-1.9.9-2.5.5-1.3-.8-1.3-3.5 0-3.5.6 0 1 .4 1 .8s1.6.8 3.6.9c3.3.1 3.6-.1 3.1-2.3-.2-1.3.2-2.9.9-3.5.8-.6 1.4-1.9 1.4-2.9 0-2 4.5-4.3 7-3.5 1.2.4 1.6 1.2 1.3 2.5-.6 2.2 2.6 3.4 7.3 2.7 2.2-.3 1.9-.4-1.3-.6-3.1-.1-4.3-.5-4.3-1.6 0-.8.5-1.5 1.1-1.5.6 0 2.2-.9 3.5-1.9l2.5-1.9-2.3-.8c-2.5-.7-3.9-2.4-3.2-3.6.9-1.3 2.4-.9 2.4.7 0 2.3 2.6 1.8 4.4-1 .9-1.4 1.2-2.5.6-2.5-.5 0-1 .4-1 1 0 1.6-4 1.1-4.7-.6-.3-.8-1.2-1.3-1.9-1-.8.3-1.4.1-1.4-.4 0-.6-.9-1-2-1s-2-.5-2-1.1c0-.7.7-.8 1.8-.4.9.4 3 .7 4.6.6 1.5-.1 3.5.4 4.2 1 1.8 1.5 2-1.1.2-2.9-.9-.9-.7-1.2.9-1.2 1.1 0 2 .6 1.9 1.2 0 .7.4 1.4.9 1.5.6.2 1-.5 1-1.5s.8-1.7 2-1.7 2 .6 1.9 1.5c-.1 1.1.8 1.5 3 1.4 4.9-.2 5-.2 1.6-3.4-2-1.9-3.9-2.8-5-2.5-2.8.9-5.3-.5-3.9-2.1.7-.8 1.7-1.1 2.8-.6.9.5 3 .6 4.6.3 2.6-.5 3-1.1 3.3-4.4.2-2.8 0-3.7-1.2-3.7-.9 0-1.6.6-1.6 1.4 0 .7-.7 1.9-1.5 2.6-1.1.9-1.5.9-1.5.1s-.5-.9-1.9-.2c-1.4.8-2.2.7-3.1-.4-1-1.3-.8-1.5 1.4-1.6 4.7-.3 5.1-.4 4.8-2.2-.2-1.3.5-1.7 3.4-1.7 2.7 0 3.5.4 3.1 1.4-.3.8 0 1.9.7 2.5 1.5 1.2 4.9.4 4.1-1-.3-.4-1.2-.6-2-.2-1 .3-1.5-.1-1.5-1.5 0-1.5.5-1.9 2-1.5 1.5.4 2 0 2-1.6 0-1.1.5-2.1 1.1-2.1.5 0 .8-.4.4-.9-.8-1.5.9-2 2-.7 1.7 2 1.7 3.9.1 3.3-2-.8-2.8.6-2.1 3.5.5 2 1.1 2.3 5 2 3.5-.3 4.4-.1 4.8 1.5.3 1.2.5.9.6-.9 0-1.6-.2-2.7-.6-2.7-.5.1-2.5.1-4.7 0-3.3-.1-3.7-.3-2.6-1.6 1.4-1.7 4-2 4-.5 0 1.8 2.9 1 3.5-1 .3-1.1 1.1-2 1.8-2 .6 0-.2-1.4-1.8-3-1.6-1.7-2.3-3-1.7-3 .7 0 1.2.4 1.2 1 0 .5.5 1 1.1 1 .7 0 1.8.8 2.5 1.7 1.7 2.4 3.2.8 1.6-1.7-1.5-2.4-1.5-3-.2-3 .6 0 1 .7 1 1.5 0 1.8 4.1 2.9 7.1 2 1.7-.6 1.9-.9.8-1.6-.8-.4-2.3-.6-3.5-.3-2.4.6-4.2-2.2-2.4-4 .7-.7 1-.6 1 .2 0 .7.9 1.2 2 1.2 1.7 0 1.9-.3 1.1-1.8-.7-1.4-.6-2.5.5-4 .9-1.3 1.1-2.2.5-2.2-.6 0-1.1-.5-1.1-1 0-.6.9-1 2-1 2.3 0 2.4.4.8 2.9-.6 1.1-.8 2.6-.3 3.7.7 1.7.9 1.7 1.2.2.5-2 3.3-1.3 3.3.8 0 .9 1.1 1.4 2.7 1.4 2.6 0 2.6-.1.7-1.5-1.2-.9-1.4-1.4-.6-1.5 2.8 0-.1-2-3.1-2.1-2.1-.1-2.5-.3-1.2-.6 1.1-.3 2.4-1.2 2.8-1.9.5-.8 1.3-1.2 1.8-.9.5.4.7 1 .4 1.5-.3.4.2 1.1 1.1 1.4 1.2.4 1.5.2 1-.9-.4-1.1.2-1.5 2.2-1.5 1.5 0 3.4-.4 4.1-.9 1.5-1 1.1-1.1-5.4-2.4-1.8-.4-1.8-.5.5-1.5 1.4-.6 1.9-1.1 1.2-1.1-1-.1-1-.6-.2-2.1 1.3-2.4 3-2.6 3-.5 0 1.9 1.4 1.9 2.9.1.9-1 .8-1.6-.4-2.6-.8-.7-1.5-1.9-1.5-2.6 0-1.2.4-1.2 2-.2 1.1.7 2 2 2 2.8 0 .9.5 2.1 1.2 2.8.9.9.6 1.2-1.5 1.2-3 0-3.7 2.4-1.1 3.4 2 .8 4.4-1 4.4-3.4 0-2.6 5.7-7.2 8-6.5 1.6.5 2 .2 2-1.8s-.4-2.4-2-2c-1.1.3-2 0-2-.6s-.7-1.1-1.5-1.1c-2.3 0-1.8-1.5 1.1-3.1 2.3-1.2 2.7-1.2 4 .6 1.2 1.6 1.4 1.6 1.4.3 0-.9-.4-2-1-2.3-.5-.3-1-1.2-.9-1.8 0-.9.2-.9.5-.1.3.7 1.3 1 2.4.7 1-.3 2.7 0 3.7.6 1.7 1 1.7 1 .1 1.1-1.1 0-1.8.8-1.8 2 0 1.1.7 2 1.5 2s1.5-.4 1.5-1c0-.5.7-.7 1.5-.4.8.4 1.5.1 1.5-.5s-.4-1.1-.9-1.1-1.1-.9-1.4-2c-.3-1.4-1.4-2-3.1-2-1.4 0-2.6-.4-2.6-.9 0-1.7 1.9-2.2 3.9-.9 1.5.9 2.3.9 3.5-.1.8-.7 2-1 2.6-.6.6.4 1.7.1 2.5-.5 1.2-1 1.5-.9 1.5.3 0 1.7-2.4 2.9-4.4 2.1-1.8-.7-2.7.8-1.5 2.6.8 1.3 1 1.3 1.8 0 .6-.8 1.3-1.1 1.7-.7.4.3.1 1.3-.6 2.2-1.5 1.8-.4 2 1.3.2 1.5-1.5 3.8-7.8 3.2-8.7-.6-1 3.4-4.5 4.2-3.7.4.4-.2 1.4-1.3 2.2-1.7 1.3-1.7 1.4-.2 1.5.9 0 2 1 2.3 2.1.4 1.2 1 1.7 1.4 1.2.3-.5 1.5-1.5 2.6-2.1 1.8-1.1 1.8-1.2-1-1.3-2.9-.1-2.9-.2-.5-.9 5.5-1.6 7-2.3 7.1-3.4.7-7.1.6-7.6-1.3-8.2-3.1-.9-4 1.5-1.7 4.4 2.6 3.4 2.4 4.4-.8 4-2.5-.3-2.8-.7-2.6-3.6.2-3.2-1.1-4.4-2-2-.3.7-.6.8-.6.2-.1-1.3 5.2-7.4 6.5-7.4.5 0 .2.5-.6 1-1.2.8-.9 1 1.3 1 1.9 0 3.9 1 5.8 3.1 1.7 1.8 3.3 2.8 4.1 2.3.8-.5.1-1.7-2.3-3.7l-3.4-2.9 4.3.7c3.9.6 4.4.5 4.9-1.4.3-1.2 1.3-2.1 2.4-2.1 1.1 0 1.9-.7 1.9-1.5 0-1.1 1.2-1.5 4.3-1.6 2.6-.1 3.3-.3 1.8-.6-1.4-.3-3.5-1.1-4.7-1.9-1.5-1-2.4-1.2-2.9-.5-.9 1.6-2.5 1.3-2.5-.4 0-.8.7-1.5 1.6-1.5 1.1 0 1.4-.6.9-2-.4-1.1-.2-2 .4-2 .6 0 1.1.7 1.1 1.6 0 1.3.3 1.4 1.3.5 1-.8 1.9-.6 3.6 1 3 2.8 3.6 1.9 1.4-1.9-2.1-3.6-1.3-5 1.5-2.7 1.1 1 1.8 2.5 1.5 3.6-.4 1.4 0 1.9 1.6 1.9 1.1 0 2.1.4 2.1 1 0 .5.5 1 1.1 1 .6 0 .8-.7.5-1.6-.8-2.2.4-4 1.5-2.3.7 1.1.9 1 .9-.4 0-2-3.2-3.6-3.8-1.9-.5 1.7-2.2 1.5-2.2-.3 0-.8-.7-1.5-1.5-1.5s-1.5-.7-1.5-1.5.6-1.5 1.4-1.5c.7 0 1.9.7 2.6 1.5 1.7 2.1 3.7 1.9 4.3-.5.6-2.3 2.7-2.7 2.7-.5 0 .8-.4 1.5-1 1.5-1.8 0-1 2.5 1.5 4.3 2.3 1.7 2.6 1.7 3.1.2.5-1.3.8-1.4 1.5-.3.5.8 1.1.9 1.7.3.5-.6.2-1.7-1-2.8-1-.9-1.8-1.3-1.8-.7 0 .5-.7 1-1.5 1s-1.5-.5-1.5-1c0-.6.4-1 .9-1s1.2-.8 1.6-1.8c.8-2.7 5.1-4.5 7.6-3.2 1 .6 1.9 1.5 1.9 2 0 .6.5 1 1 1 1.6 0 1.2-2.7-.5-3.4-.8-.3-1.5-1.1-1.5-1.8 0-1 .3-.9.9.1.7 1.1 1 1 1.4-.5.4-1.8.5-1.8.6 0 .1 1.1.6 1.6 1.5 1.3 1-.4 1.2 0 .8 1.5-.3 1.5-.1 1.9.9 1.6.8-.3 1.7-1.8 2-3.4.4-1.6.7-2.1.8-1.2.1 2.1 3.1 3.1 6.4 2.3 2.1-.6 2.6-.3 2.9 1.7l.5 2.3 1-2.5c.9-2 .8-2.6-.6-2.8-2.6-.6-3.7-2.2-1.5-2.2 2.7 0 7.4-2.2 7.4-3.5 0-.6 1.9-.9 4.6-.7 3.9.4 4.6.1 5.1-1.7.7-2.6 1.9-2.7 3.2-.4.9 1.5 1 1.3 1.1-1.4 0-3.5 1.6-5.1 3.3-3.4.6.6 1.9 1.1 2.8 1.1.9 0 2.2.7 2.9 1.5 1.9 2.3 2.2 1.2.6-2-1.2-2.3-1.2-3-.1-4.1.7-.8 1.8-1.4 2.4-1.4 1.6 0 1.3 2-.4 2.6-1.9.8-1.9 2.4 0 2.4.8 0 2 .9 2.7 2 1.4 2.2 3.3 2.6 4.3 1 .4-.6.3-.9-.2-.8-.4.2-1.9-.5-3.3-1.5-2-1.4-2.2-1.9-1.1-2.6 1.2-.8 1.2-1.3-.1-3.3-1.2-1.8-1.4-3.4-.8-5.9.8-3.5 1-3.3 1.5 1.1.5 3.6 3.2 8.5 3.8 6.8.3-.7.6-.3.6.9.1 1.3.6 2.3 1.1 2.3.6 0 1 .7 1 1.5s.5 1.5 1 1.5c.6 0 1-.5 1-1.1 0-.5 1-.9 2.3-.7 1.6.2 2.2-.2 2.1-1.5-.1-1.1.6-1.7 2-1.8 1.7-.1 1.7-.2.4-.6-1.9-.5-2.5-2.3-.8-2.3.6 0 1-.5 1-1 0-.6-.6-1-1.4-1-.8 0-1.7-.6-2-1.3-.2-.6-.4-.3-.4.8.2 4-.2 5.5-1.6 5.5-.8 0-1.6.6-1.9 1.2-.2.7-.8.9-1.3.5s-.4-1.1.2-1.5c.6-.4 1.6-2.2 2.3-4 1.2-2.9 1.2-3.5-.4-5.2-1.8-1.9-1.7-2 .4-2 1.2 0 2.4-.7 2.7-1.5.8-1.9 2.1-1.9 4-.1 1.6 1.7 1.9 3.6.4 3.6-.5 0-1-.7-1-1.5s-.7-1.5-1.7-1.5c-1.4 0-1.4.2.2 2 1 1.1 1.4 2 .9 2-.5 0 .2.7 1.4 1.6 1.3.9 2.6 1.3 3 .9.4-.4.1-1-.6-1.2-.6-.3-1-.9-.6-1.4 1.1-1.8 2.4-.9 2.4 1.7 0 1.4.4 2.3 1 1.9.6-.4.8-1.1.5-1.6-.4-.5-.1-.9.4-.9.6 0 1.1.8 1.2 1.7 0 1.5.2 1.5.8-.2.5-1.1.6-2.5.4-3.1-.2-.6.3-1.4 1.2-1.8 1.3-.5 1.5-1.3 1.1-3.4-.5-2-.4-2.3.4-1.2.5.8 1 2.3 1 3.2 0 1 .6 1.8 1.4 1.8 2 0 3.3-9.9 1.5-11.1-1.1-.7-1.1-.9.2-.9 1.7 0 3.1 2.2 3.3 5 .1.8.9 1.4 1.9 1.2.9-.2 1.7.2 1.7.8 0 .5-.6 1-1.4 1-2.2 0-4.1 2.9-2.8 4.2.9.9 1.2.8 1.2-.3 0-.8 1-1.9 2.3-2.4 1.2-.6 2.1-1.6 1.9-2.3-.1-.7.8-1.2 2-1.1 1.3 0 1.7.3 1 .6-1 .4-1 .8-.1 1.9.8 1 .8 1.4 0 1.4-.6 0-1.1.4-1.1 1 0 2.1 2 .9 2.6-1.5.3-1.4 1.3-2.5 2.1-2.5 1.1 0 .7-.7-1.1-2.1-1.5-1.2-2.5-2.9-2.5-4.2.2-2.2.2-2.2.6.1.2 1.2.8 2 1.3 1.7.5-.3 1.1-.1 1.5.5 1 1.6 2.5 1.2 2.5-.6 0-1 .6-1.4 1.5-1 1 .4 1.5-.1 1.5-1.6 0-2.1 0-2.1 1.5-.2 1.3 1.7 1.4 1.7 1.5.1 0-2.4 2-2.2 2 .3 0 2.2 2 2.6 3.8.8 1.5-1.5 1.6-2.8.2-2.8-.5 0-1 .8-1.1 1.7-.1 1.2-.4.9-.8-.7-.5-1.7-1.4-2.4-2.7-2.3-2.3.2-5.1-4.7-3.3-5.8.6-.3 1-1 .9-1.5-.1-.5.4-1 1-1.2.8-.3 1 .7.8 2.9-.3 3 0 3.4 2.2 3.7 2 .3 2.2.2 1.2-1.1-1-1.1-1-1.7-.2-2.2.7-.4.9-1.8.6-3.4-.5-2.1-.4-2.3.4-.9.6 1 .9 3.6.6 5.8l-.5 4.1 5.7-.3c5.2-.3 5.7-.5 6-2.8.2-1.4 1.1-3.1 2-3.8 1.8-1.4 1.9-1.3-2.5-1.7-3.2-.3-4.6 1.6-2.3 3 1.1.7.2 3.5-1.2 3.5-.5 0-.8-.6-.5-1.3.2-.6 0-2.2-.4-3.5-.7-1.9-.3-2.6 3.1-4.7 4-2.5 6-3.1 6-1.7 0 .4 1.8.8 4 .8 2.9.1 4-.3 4-1.3 0-1.1-.7-1.3-2.5-.9-2.5.6-6.5-.8-6.5-2.3 0-.4 1.3-.6 2.9-.3 1.6.2 3.2-.1 3.5-.7 1-1.6 2.6-1.3 2.6.4 0 .9.7 1.8 1.5 2.1.8.4 1.3 1 1 1.4-.2.4 1.4 1 3.7 1.4 3 .5 4.5.3 5.9-1 1.1-1 2.5-1.3 3.8-.9 1.4.4 2.1.2 2.1-.6 0-.7-.3-1-.6-.6-.3.3-2.1-.3-4-1.4-4.2-2.3-5.4-2.4-5.4-.4 0 .9.9 1.5 2.3 1.5 1.8 0 1.9.2.7 1-.8.5-2.6 1-3.9 1-2 0-2.1-.2-1.1-1.5 1.1-1.3.8-1.6-1.9-2.1-4.2-.9-3.1-2 2.8-2.8 5.2-.7 7.5-2.2 4.2-2.8-1.9-.3-1.9-.5.5-4.3l2.4-4v4.1c0 2.7.5 4.4 1.4 4.7 1.1.4 1.3.1.9-1.1-.6-1.5-.5-1.5 1-.3.9.7 1.7 2 1.7 2.7 0 .8.5 1.4 1 1.4.6 0 1-.7 1-1.5 0-2.4 1.5-1.7 2.8 1.2 1 2.4 1 2.4.4.3-.3-1.4-.6-5.4-.5-8.8.1-5.1-.1-6.3-1.2-5.8-1.6.6-3.9-2.9-3-4.4.3-.6 1.6-.9 2.8-.9 1.7.1 1.8.2.5.6-1 .2-1.8 1.1-1.8 1.9 0 .8.8 1.5 1.8 1.5.9.1 2.2.2 2.7.4.6.1 1.6.3 2.3.3 2 .3 1.4 1.9-1 2.7-2.1.6-2 .8 1.2 1.8 1.9.6 3.8 1.5 4.1 2 .8 1.1 4.9-2.3 4.9-4 0-.7.5-1.3 1.1-1.3.6 0 .9.9.6 2-.7 2.5 1.5 3.1 7.8 2.2 4.3-.6 5-1 4.7-2.9-.3-2.5 2.2-3.7 4.7-2.1 1.4.8 2.6.8 5-.3 4.1-1.8 4-3.2-.2-2.4-4.8.9-8.7-.8-8-3.6.6-2 .6-2.1 1.7-.3.6 1.1 2.1 2 3.4 2.2 2.3.3 3.1-1.3 1-2.1-.8-.3-.6-.6.5-.6 2.7-.1 2-3.6-1-4.9-2.4-1-2.5-1-.3-.5 1.4.4 3.5.7 4.7.8 1.2 0 2.1.2 2.1.5s0 1.5.1 2.8c.1 3.3 2.6 2.2 2.5-1.1 0-1.6.5-2.7 1.3-2.7.7 0 1 .7.7 1.5-.4.9 0 1.5 1 1.5.9 0 1.6-.7 1.6-1.6 0-1.3.2-1.3 1.3-.2.6.7 1.8 2.5 2.6 4 1.2 2.3 1.6 2.5 2.7 1.3 1.7-1.6 1.8-4.2.3-4.7-.5-.2-.7-1.1-.4-2.1.6-1.3 1.1-1.4 2.7-.6 1.1.6 3.1.8 4.4.5 1.9-.5 2.4-1.3 2.4-3.6 0-1.7.5-3 1-3 .6 0 1 .9 1 2.1 0 1.2.5 1.9 1.3 1.6.6-.2 1.1-1.1.9-2.1-.2-1.2.5-1.6 3.2-1.6 1.9 0 3.8.4 4.1 1 .3.5 1.7 1 3 1s2.7-.5 3-1c.3-.6-.2-1-1.2-1-3.1 0-4.7-1.6-3.5-3.5.9-1.7 1-1.7 1.7.4.6 1.8.9 2 2.2.9 1.2-1 1.7-.9 2.7.3.6.9 2.3 1.9 3.8 2.2 1.4.4 2.9 1.5 3.1 2.5.4 1.6.5 1.6.6-.1 0-.9.8-1.7 1.6-1.7s1.5-.5 1.5-1c0-.6-1.7-1-3.8-1-3.7 0-3.8-.1-3.4-2.8l.4-2.8 8.4.3c7.3.3 8.4.1 8.4-1.4 0-3.1 1.1-.6 1.4 3.3.3 2.8.9 4 2.2 4.3 1.6.3 1.7.1.5-1.3-1.2-1.5-1.2-1.9.2-3.3 1.3-1.3 1.9-1.4 3.1-.3 1.4 1.1 1.6.8 1.7-1.6.1-2.1.3-2.4.6-.9.8 3.4 2.3 4.1 2.3 1.1 0-2.3.3-2.6 1.3-1.7.8.6 1.7.8 2 .4.4-.3 1.6.2 2.7 1.2 1.9 1.8 2 1.7 2-.3 0-1.1.6-2.2 1.3-2.5.9-.4.9-.7-.1-1.8-1.1-1.2-1.5-1.1-2.6.3-1.9 2.5-2.6 2.2-2.6-1 0-2.7.2-2.9 4.5-3 3.2 0 4.5.4 4.5 1.4 0 .8.5 1.4 1 1.4.6 0 1-.5 1-1.2 0-.9.3-.9 1.2 0 .8.8.8 1.5-.2 2.6-1 1.3-.9 1.7.5 2.2.9.4 2.2.1 2.8-.5.9-.9.8-1.1-.5-.6-1 .4-1.8.5-1.8.2 0-1.2 2.6-5.3 3.5-5.4.5-.1 1.1-.6 1.3-1.2.4-1.3-6-1-7.1.4-.6.6-1 .6-1.4-.3-.6-1.4-9.3-1.7-9.3-.2 0 .5-.7 1-1.5 1s-1.5-.5-1.5-1c0-.7-166.8-1-498.5-1H0v640zM975.6 5.7c-1 1-1.9-.5-1-1.8.6-1.1.8-1.1 1.2 0 .2.7.1 1.5-.2 1.8zm9.1-.5c-.3.8-.6.5-.6-.6-.1-1.1.2-1.7.5-1.3.3.3.4 1.2.1 1.9zm10.1-.4c.2.7-.3 1.2-1.2 1.2-.9 0-1.6.4-1.6.9s-.8 1.2-1.7 1.5c-1.6.6-1.6.6 0-1.2.9-1 1.7-2.4 1.7-3.1 0-1.5 2.2-1 2.8.7zm-35.5 2.9c-.7.2-2.1.2-3 0-1-.3-.4-.5 1.2-.5 1.7 0 2.4.2 1.8.5zm11.7-.3c0 .2-.7.6-1.5 1-.8.3-1.5.1-1.5-.4 0-.6.7-1 1.5-1s1.5.2 1.5.4zm9.5.6l2 .9h-2c-1.1 0-2.7-.4-3.5-.9-1.3-.9-1.3-1 0-.9.8 0 2.4.4 3.5.9zm-16.4 1.5c-.1 1.5-2.4 1.2-2.9-.3-.3-.9.2-1.3 1.2-1 1 .1 1.7.7 1.7 1.3zM936 14c0 .5-1.2 1-2.7.9l-2.8-.1 2.5-.8c1.4-.4 2.6-.8 2.8-.9.1-.1.2.3.2.9zm5.8 4.3c.2 1.2-.3 1.7-1.7 1.7-1.2 0-2.1-.6-2.1-1.3 0-3.1 3.2-3.4 3.8-.4zm-9.3 2.7c-2 2.2-3.1 2-2.2-.5.4-.8 1.4-1.5 2.3-1.5 1.6 0 1.6.2-.1 2zm-8.6-.1c.8.5.9 1.1.3 1.5-1.4.8-4.3-.4-3.6-1.5.7-1.1 1.5-1.1 3.3 0zM905 25.1c-.6 1-1.4 1.9-1.9 1.9-1.4 0-3.4-3-2.6-3.8.4-.4 1-.1 1.2.5.7 1.8 2.3 1.6 2.3-.3 0-.8.5-1.2 1-.9.7.4.7 1.3 0 2.6zm-8 .9c0 .5-.5 1-1.1 1-.5 0-.7-.5-.4-1 .3-.6.8-1 1.1-1 .2 0 .4.4.4 1zm36.7 3.2c-.3.8-.6.5-.6-.6-.1-1.1.2-1.7.5-1.3.3.3.4 1.2.1 1.9zm-37.1 2.5c-.4 1.9 0 3.6 1.3 5.2 2.3 3 4.6 2.3 5.4-1.6.8-3.7 2.4-6 3.4-4.9.4.5.3 1.1-.3 1.3-.8.2-1 1.8-.7 4.3.5 3.9.5 4-2.3 4-1.6 0-3.8.3-5 .6-1.8.5-2.2 0-2.7-3.5-.5-3.9 0-8.1 1-8.1.3 0 .2 1.2-.1 2.7zm4.9.3c.3.5-.1 1-1 1s-1.3-.5-1-1c.3-.6.8-1 1-1 .2 0 .7.4 1 1zm-17.5.4c0 .3-.4.8-1 1.1-.5.3-1 .1-1-.4 0-.6.5-1.1 1-1.1.6 0 1 .2 1 .4zm9 1.1c0 .8-.2 1.5-.4 1.5s-.6-.7-1-1.5c-.3-.8-.1-1.5.4-1.5.6 0 1 .7 1 1.5zm-5.4 2.2c-1 1-1.9-.5-1-1.8.6-1.1.8-1.1 1.2 0 .2.7.1 1.5-.2 1.8zm-16.3 0c-.7.2-2.1.2-3 0-1-.3-.4-.5 1.2-.5 1.7 0 2.4.2 1.8.5zM891 38c0 1.1-.4 2-1 2-.5 0-1-.9-1-2s.5-2 1-2c.6 0 1 .9 1 2zm-17 0c0 .5-1.7.9-3.7.9-3.8-.1-3.8-.1-.8-.9 4.3-1.1 4.5-1.1 4.5 0zm3.9 2.1c-.7.4-1.3 2.2-1.4 3.8 0 1.7-.4 3.1-1 3.1-.5 0-1-1.6-1-3.5 0-2.1.5-3.5 1.3-3.5.6 0 1.2-.5 1.2-1.1 0-.5.5-.7 1.1-.3.8.4.7.9-.2 1.5zm-29.6.4c-.3.9-.8 1.4-1 1.1-.3-.3-.2-.9.2-1.5.9-1.6 1.5-1.3.8.4zm7.4-.9c-.3.3-1.2.4-1.9.1-.8-.3-.5-.6.6-.6 1.1-.1 1.7.2 1.3.5zm6.3.4c0 .5-.2 1-.4 1-.3 0-.8-.5-1.1-1-.3-.6-.1-1 .4-1 .6 0 1.1.4 1.1 1zm-6 4.6c0 .8-.5 1.2-1 .9-.6-.4-.8-1.1-.5-1.6.9-1.4 1.5-1.1 1.5.7zm-5.9 2.8c1.1-.6 1-.3-.1 1-.8 1.1-1.6 1.4-1.8.7-.2-.6-.8-.9-1.3-.5-1 .6-1.2-.9-.2-1.9.4-.4 1-.2 1.4.4.4.7 1.2.8 2 .3zm7.4.6c.3.5.1 1-.4 1-.6 0-1.1-.5-1.1-1 0-.6.2-1 .4-1 .3 0 .8.4 1.1 1zm5.5 0c.8.5 1.2 1.1 1 1.4-.3.2-1.4-.2-2.4-1-2.2-1.5-1-1.9 1.4-.4zm-35.5 3c.3.5.1 1-.4 1-.6 0-1.1-.5-1.1-1 0-.6.2-1 .4-1 .3 0 .8.4 1.1 1zm5.2 5.7c-.3 1-.5.4-.5-1.2 0-1.7.2-2.4.5-1.8.2.7.2 2.1 0 3zm7.6 1.1c-.3 1.2-1.2 2.2-1.9 2.2-1.2 0-1.1-.5.2-2.5 1.9-3 2.6-2.8 1.7.3zM823 60.9c0 .5.3 1.6.6 2.5.4 1 .1 1.6-.7 1.6-.8 0-1.4-1.1-1.4-2.5s.3-2.5.8-2.5c.4 0 .7.4.7.9zm-16.6 1.5c-.4.9.3 1.6 1.8 1.9 2.2.5 2.2.5-.2.4-2.4-.2-4.4-3.7-2.1-3.7.6 0 .8.6.5 1.4zM837 64c0 1.1-.4 2-1 2-.5 0-1-.9-1-2s.5-2 1-2c.6 0 1 .9 1 2zm-14.5 4c.3.5.2 1-.4 1-.5 0-1.3-.5-1.6-1-.3-.6-.2-1 .4-1 .5 0 1.3.4 1.6 1zm14.5 0c0 .5-.4 1-1 1-.5 0-1-.5-1-1 0-.6.5-1 1-1 .6 0 1 .4 1 1zm-35.4.9c1-.8 1.4-.8 1.4 0 0 .6-.4 1.1-1 1.1-.5 0-1 .7-1 1.5 0 1.2-.3 1.2-1.8-.3-1.2-1.1-1.4-2-.8-2.4.6-.4 1.3-.3 1.4.3.3.6.9.6 1.8-.2zm16.4 0c0 .5-.8 1.5-1.7 2.2-1.4 1.2-1.5 1.2-.9 0 .5-.8.3-1.7-.5-2.2-1-.6-.8-.9.9-.9 1.2 0 2.2.4 2.2.9zm-7.5 2.1c-.3.5-1.2 1-1.8 1-.7 0-.6-.4.3-1 1.9-1.2 2.3-1.2 1.5 0zm11.5.4c0 .2-.9.6-2 .9-1.1.3-1.8.1-1.4-.4.5-.9 3.4-1.3 3.4-.5zM796.1 77c2.2 0 3.9.5 3.9 1.1 0 .7-.9.9-2.1.6-1.2-.3-3.1-.2-4.3.2-1.9.8-2.1.5-2.2-2.3-.1-1.7.1-2.3.3-1.4.3 1.3 1.5 1.8 4.4 1.8zm15.9.1c0 .5-.4.9-1 .9-.5 0-1-.7-1-1.6 0-.8.5-1.2 1-.9.6.3 1 1 1 1.6zm-33.9 2.2c-1.3 1.3-2.6.3-1.6-1.2.3-.6 1.1-.8 1.7-.5.6.4.6 1-.1 1.7zm6.1-.5c.5 1.7.2 1.7-1.8.8-2-1-2.1-1.2-.6-1.8.9-.4 1.8-.7 1.8-.7.1-.1.4.7.6 1.7zm19.2-.3c.3.9 0 1.5-.9 1.5-.8 0-1.5-.7-1.5-1.5s.4-1.5.9-1.5 1.1.7 1.5 1.5zm-7.9 4.5c1.3.5 1.4.9.5.9-.8 0-2.4-.4-3.5-.9-1.3-.5-1.4-.9-.5-.9.8 0 2.4.4 3.5.9zm-19.8 6.7c-.3 1-.5.2-.5-1.7s.2-2.7.5-1.8c.2 1 .2 2.6 0 3.5zm-11.2-.2c2.2 1.4 3.6 2.5 3.2 2.5-1.1 0-8.7-3.9-8.7-4.5 0-1 1.6-.4 5.5 2zm-8.5 1.1c0 .8-.5 1.2-1 .9-.6-.4-.8-1.1-.5-1.6.9-1.4 1.5-1.1 1.5.7zm2.7 3.1c-.3 1-.5.2-.5-1.7s.2-2.7.5-1.8c.2 1 .2 2.6 0 3.5zm-15 1.5c-.3.8-.6.5-.6-.6-.1-1.1.2-1.7.5-1.3.3.3.4 1.2.1 1.9zm20.4-.5c-1.1.5-1.1.7 0 1.5 1.2.8 1.2.9 0 .6-2.2-.6-2.5-2.8-.4-2.7 1.2 0 1.4.2.4.6zm-12.5 1.1c2.1 1.4 2 3.7-.2 5.9-1.3 1.3-3.1 2.3-4.1 2.2-1.6 0-1.5-.2.2-1 2.5-1.2 4.8-4.6 4-5.9-1.1-1.7-3.5-1.1-3.5.8 0 1.1-.9 2.7-2 3.7-1.7 1.6-2 1.6-2 .2 0-.9.5-1.9 1.1-2.2.6-.4.8-1.3.5-2-.8-2.1 3.6-3.3 6-1.7zm-8.2 3.9c-.4 1-.8 2.5-.8 3.3-.1.8-1 1.6-2.1 1.8-1.5.2-1.6.1-.7-.6.8-.5 1.4-1.3 1.4-1.8.1-1.9 1.9-5.6 2.5-5.1.3.3.2 1.4-.3 2.4zm-10 4.8c-.6 1.6-2.4 2.1-2.4.7 0-1.1 1.1-2.2 2.1-2.2.5 0 .6.7.3 1.5zm-4.4.5c0 .5-.5 1-1.1 1-.5 0-.7-.5-.4-1 .3-.6.8-1 1.1-1 .2 0 .4.4.4 1zm8.8 1.2c-.5 1.5-2.3 1.1-2.6-.6-.2-1.1.2-1.4 1.3-1 .9.4 1.4 1.1 1.3 1.6zm-29.8 3c0 1.6-.3 1.9-1.1 1.1-.6-.6-.8-1.6-.5-2.2 1.1-1.7 1.6-1.3 1.6 1.1zm18-1.2c0 .5-.4 1-.9 1-.6 0-1.3-.5-1.6-1-.3-.6.1-1 .9-1 .9 0 1.6.4 1.6 1zm-13.1 3.4c-.2.2-1.5.7-2.9 1l-2.5.7 2.5-1.5c2.1-1.2 4.2-1.4 2.9-.2zm-10.3 3.3c-1 1-1.9-.5-1-1.8.6-1.1.8-1.1 1.2 0 .2.7.1 1.5-.2 1.8zM674 125c0 .5-.5 1-1.1 1-.5 0-.7-.5-.4-1 .3-.6.8-1 1.1-1 .2 0 .4.4.4 1zm5.5 0c-.3.5-1 1-1.6 1-.5 0-.9-.5-.9-1 0-.6.7-1 1.6-1 .8 0 1.2.4.9 1zm2 1.9c.3.5.1 1.2-.5 1.6-.5.3-1-.1-1-.9 0-1.8.6-2.1 1.5-.7zm-6.8 1.7c-.3.3-1.2.4-1.9.1-.8-.3-.5-.6.6-.6 1.1-.1 1.7.2 1.3.5zm-.9 3.4c1.6 0 3.3-.5 3.8-1 1.2-1.2 4.4-.3 4.4 1.2 0 .6-.7.7-1.6.4-.9-.4-2.2-.2-2.9.4-1.3 1.1-10.3.9-12.3-.4-.6-.4-1.2-1.3-1.1-1.9 0-.9.2-.9.6 0 .7 1.8 3.2 1.6 4-.3.5-1.5.7-1.5 1.5 0 .5.9 2.1 1.6 3.6 1.6zm13.2-2c0 .5-.4 1-1 1-.5 0-1-.5-1-1 0-.6.5-1 1-1 .6 0 1 .4 1 1zm-29.8 8.4c-1 1.4-2.2 2.2-2.6 1.9-.3-.4.4-1.7 1.6-3 2.8-3 3.6-2.2 1 1.1zm-4.2-2c0 1.1-1.9 1.5-2.5.6-.3-.5.1-1 .9-1 .9 0 1.6.2 1.6.4zm5.7 6.1c-2 1.4-2.2 3.2-.4 3.8.6.2.8.8.4 1.3-.5.5-1.3.1-1.8-.9-.7-1.2-2.4-1.7-5.7-1.8-2.6-.1-3.7-.4-2.5-.6 1.4-.3 2-.9 1.6-1.9-.3-.8 0-1.4.6-1.4s1.1.7 1.1 1.5c0 2.2 3.3 1.8 4.8-.5.7-1.2 1.8-1.8 2.4-1.4.7.5.6 1.1-.5 1.9zm3.3 2.5c0 .5-.2 1-.4 1-.3 0-.8-.5-1.1-1-.3-.6-.1-1 .4-1 .6 0 1.1.4 1.1 1zm-19.6 7.1c-1.1 1.8-3.2.9-2.7-1.1.4-1.6.8-1.8 1.9-.9.8.6 1.1 1.5.8 2zm13.6-1.7c0 .9-1.5 1.5-4.3 1.7-3.8.4-4.3.2-3.9-1.4.6-2.2 8.2-2.5 8.2-.3zm-18 3.6c0 .5-.7 1-1.6 1-.8 0-1.2-.5-.9-1 .3-.6 1-1 1.6-1 .5 0 .9.4.9 1zm-14 5.5c0 1.2.7 1.4 2.8.9l2.7-.6-2.4 1.8c-2.3 1.6-2.4 1.6-3.7-.1-1.7-2.2-1.8-3.5-.4-3.5.6 0 1 .7 1 1.5zm-4 3.1c0 .8-.4 1.4-1 1.4-.5 0-1-.9-1-2.1 0-1.1.5-1.7 1-1.4.6.3 1 1.3 1 2.1zm14.5 4.6c.7.5.6.8-.1.8-1.5 0-4.5-4.6-3.6-5.5.4-.3 1.1.4 1.7 1.7.5 1.3 1.4 2.6 2 3zm-10.8-1c-.3.8-.6.5-.6-.6-.1-1.1.2-1.7.5-1.3.3.3.4 1.2.1 1.9zm4.8-1.1c1 1.5-.1 2.3-2 1.5-.9-.3-1.3-1-1-1.6.8-1.3 2.2-1.3 3 .1zm-19.8 3.1c-.3.8-.6.5-.6-.6-.1-1.1.2-1.7.5-1.3.3.3.4 1.2.1 1.9zm8.3 6.8c0 .5-.5 1-1.1 1-.5 0-.7-.5-.4-1 .3-.6.8-1 1.1-1 .2 0 .4.4.4 1zm-2.6 4.1c-.3.5-1 .7-1.5.3-.5-.3-.7-1-.3-1.5.3-.5 1-.7 1.5-.3.5.3.7 1 .3 1.5zm-19.4 4.8c0 .5-.7 1.2-1.6 1.5-1.4.5-1.5.4-.4-.9 1.4-1.7 2-1.9 2-.6zm-2.2 5.5c-.7.8-1.6 1.2-2.1.9-1.1-.7.2-2.3 1.9-2.3 1.2 0 1.2.2.2 1.4zm5.5-.7c-.7.2-1.9.2-2.5 0-.7-.3-.2-.5 1.2-.5s1.9.2 1.3.5zm-14.6 2.9c-.3.3-1.2.4-1.9.1-.8-.3-.5-.6.6-.6 1.1-.1 1.7.2 1.3.5zm-23 2.6c-.3.8-.6.5-.6-.6-.1-1.1.2-1.7.5-1.3.3.3.4 1.2.1 1.9zm25.3.2c0 .3-.4.8-1 1.1-.5.3-1 .1-1-.4 0-.6.5-1.1 1-1.1.6 0 1 .2 1 .4zm-7.7 3.6c1.6 0 2.6.4 2.2 1-.3.5-1.3.6-2.2.3-1-.4-1.4-.2-1 .4.4.6 0 1.4-.9 1.7-1.1.4-1.5.2-1.1-.8.4-1-.4-1.9-2.1-2.5-2.6-1.1-2.6-1.1-.2-.6 1.4.2 3.8.5 5.3.5zm-24.8 2c.3.6-.1.7-.9.4-1.8-.7-2.1-1.4-.7-1.4.6 0 1.3.4 1.6 1zm15 0c-.3.5-1.2.7-2 .3-2.1-.7-1.9-1.3.6-1.3 1.1 0 1.8.4 1.4 1zm23.5.5c0 .8-.4 1.5-1 1.5-.5 0-1-.7-1-1.5s.5-1.5 1-1.5c.6 0 1 .7 1 1.5zm-27.3 4.7c-.3.8-.6.5-.6-.6-.1-1.1.2-1.7.5-1.3.3.3.4 1.2.1 1.9zm-18 4.4c-.3.3-1.2.4-1.9.1-.8-.3-.5-.6.6-.6 1.1-.1 1.7.2 1.3.5zm9.1 5.6c-2.5 2.2-2.8 2.2-5.3.1-1.9-1.5-1.9-1.5.7-.9 3 .7 4.5-.8 2.9-2.8-.6-.7-.8-1.6-.4-2 .4-.4 1.5.3 2.4 1.6 1.6 2.1 1.6 2.3-.3 4zm3.9-4c-.3.8-.6.5-.6-.6-.1-1.1.2-1.7.5-1.3.3.3.4 1.2.1 1.9zm-34 1c-.3.8-.6.5-.6-.6-.1-1.1.2-1.7.5-1.3.3.3.4 1.2.1 1.9zm26-.6c-.3.3-1.2.4-1.9.1-.8-.3-.5-.6.6-.6 1.1-.1 1.7.2 1.3.5zm-5 1c-.3.3-1.2.4-1.9.1-.8-.3-.5-.6.6-.6 1.1-.1 1.7.2 1.3.5zm.3 3.8c0 .2-1.1.3-2.4.3-1.6 0-2.3-.4-1.9-1.3.4-1 1-1.1 2.4-.3 1 .5 1.9 1.1 1.9 1.3zm2.9 3.8c.1.5-.3.8-.9.8-.5 0-1-1.2-.9-2.8 0-2.4.1-2.5.9-.7.5 1.1.9 2.3.9 2.7zm-9.4-1.2c.3.5.1 1-.4 1-.6 0-1.1-.5-1.1-1 0-.6.2-1 .4-1 .3 0 .8.4 1.1 1zm-3.6 1.4c.9 1 .8 1.6-.4 2.6-.9.7-1.8 1-2.2.6-.3-.3-.1-.6.5-.6.7 0 1.2-.5 1.2-1 0-.6-1-1-2.2-1-1.9 0-2-.2-.8-1 2-1.3 2.6-1.2 3.9.4zm4.1 3.6c-.8.5-2.2.9-3 .9-1 0-.8-.3.5-.9 2.7-1.2 4.3-1.2 2.5 0zm-20.7 4c.3 1.1.1 1.8-.4 1.4-.5-.3-.9-1.2-.9-2 0-2 .7-1.7 1.3.6zm23.6-.3c.9 1.7 1 1.7 1.6 0 .4-1 1.8-1.7 3.4-1.7 2.1 0 2.3.2 1.1 1-1.3.9-1.3 1.2.3 2.4.9.7 1.7 1.8 1.7 2.3 0 .6 1 1.4 2.3 1.8 1.8.6 1.9.8.5 1.2-1 .2-2.7-.5-3.9-1.5-1.1-1.1-3.2-2.3-4.6-2.7-3.5-.8-7-4.5-4.3-4.5.5 0 1.3.8 1.9 1.7zm-1.2 3.9c-.3.3-1.2.4-1.9.1-.8-.3-.5-.6.6-.6 1.1-.1 1.7.2 1.3.5zm-18 1c-.3.3-1.2.4-1.9.1-.8-.3-.5-.6.6-.6 1.1-.1 1.7.2 1.3.5zm24 0c-.3.3-1.2.4-1.9.1-.8-.3-.5-.6.6-.6 1.1-.1 1.7.2 1.3.5zm-13.9 7.3c.3.8-.1 1.2-.9.9-.7-.2-1.5-1-1.7-1.7-.3-.8.1-1.2.9-.9.7.2 1.5 1 1.7 1.7zm1.7 3c-.6 2.1-2.5 2-2.5 0 0-.6.5-.7 1-.4.6.3 1-.2 1-1.1 0-1 .3-1.5.6-1.1.3.3.3 1.5-.1 2.6zm-7.5 2.6c-.7.8-2 1.4-2.9 1.4-1.3-.1-1.3-.2.2-.6.9-.2 1.7-.9 1.7-1.4 0-.5.5-.9 1.1-.9.8 0 .8.5-.1 1.5zm-3 5.5c0 .5-.4 1-.9 1-.6 0-1.3-.5-1.6-1-.3-.6.1-1 .9-1 .9 0 1.6.4 1.6 1zm5.8 1.1c-.2.6-.8 1-1.3 1s-1.1-.4-1.3-1c-.2-.6.4-1.1 1.3-1.1s1.5.5 1.3 1.1zm-9.7 3.9c.5 0 .9.5.9 1.1 0 .8-.5.8-1.5-.1-.8-.7-1.4-2-1.4-2.9.1-1.3.2-1.3.6.1.2 1 .9 1.8 1.4 1.8zm-11.6-1c-.3.5-1.1 1-1.6 1-.6 0-.7-.5-.4-1 .3-.6 1.1-1 1.6-1 .6 0 .7.4.4 1zm19 0c.3.5.1 1-.4 1-.6 0-1.1-.5-1.1-1 0-.6.2-1 .4-1 .3 0 .8.4 1.1 1zm6.5.6c0 .2-1.2.4-2.7.4-2.1 0-2.4-.3-1.4-.9 1.3-.8 4.1-.5 4.1.5zm-6.3 2c3.1.8 1.9 2.4-1.8 2.4-2.8 0-3.7-.9-2.2-2.3.8-.8 1.2-.8 4-.1zm-9.7 5c0 .8-.4 1.2-1 .9-.5-.3-1-1-1-1.6 0-.5.5-.9 1-.9.6 0 1 .7 1 1.6zm6.5.4c.3.5-.1 1-1 1s-1.3-.5-1-1c.3-.6.8-1 1-1 .2 0 .7.4 1 1zm-2.5 4.9c0 1.1-.4 2.3-1 2.6-.6.4-1-.5-1-1.9s.5-2.6 1-2.6c.6 0 1 .9 1 1.9zm-16.6 4.6c.3.8.2 1.5-.3 1.5s-1.4-.7-2.1-1.5c-1-1.2-1-1.5.3-1.5.8 0 1.7.7 2.1 1.5zM498 274c0 .5-.4 1-1 1-.5 0-1-.5-1-1 0-.6.5-1 1-1 .6 0 1 .4 1 1zm6.7 3.2c-.3.8-.6.5-.6-.6-.1-1.1.2-1.7.5-1.3.3.3.4 1.2.1 1.9zm1.7 3.3c-.4.8-1 1.5-1.5 1.5s-.9-.7-.9-1.5.7-1.5 1.5-1.5c.9 0 1.2.6.9 1.5zm-25.4 4.8c0 1.2-.4 2.7-.8 3.4-.4.6-.7-.5-.7-2.7 0-2.1.3-3.6.7-3.4.5.3.8 1.5.8 2.7zm13.5-2.3c-.3.5-1.1 1-1.6 1-.6 0-.7-.5-.4-1 .3-.6 1.1-1 1.6-1 .6 0 .7.4.4 1zm7.8-.4c1.1 1.1-.3 2.4-1.8 1.8-.8-.4-1.2-1-.9-1.5.6-1.1 1.8-1.2 2.7-.3zm-16.1 7.9c0 .5-.5 1.1-1.1 1.3-.6.2-1.1-.4-1.1-1.3s.5-1.5 1.1-1.3c.6.2 1.1.8 1.1 1.3zm3.8-.5c0 .5-.4 1-1 1-.5 0-1-.5-1-1 0-.6.5-1 1-1 .6 0 1 .4 1 1zm-2 5.8c0 1.3-1.2 2.2-2.2 1.6-1-.6-.1-2.4 1.3-2.4.5 0 .9.4.9.8zm-4.8 6.9c-.2.7-.8 1.3-1.3 1.3-1.1 0-1.1-2.5-.2-6 .7-2.5.7-2.5 1.3.5.4 1.6.4 3.6.2 4.2zM477 300c2 1.6 2.2 2 .8 2-1 0-1.8-.5-1.8-1.1 0-.6-.9-.9-2-.6-2 .5-2.6-.3-1.3-1.6 1-1 1.6-.8 4.3 1.3zm-20.8 4.6c-.8 1.5-1 1.5-1.5 0-.4-1-.3-1.5.3-1.1.6.3 1.1-.4 1.1-1.7.1-1.6.3-1.8.6-.6.2 1 0 2.5-.5 3.4zm14.2-2.5c-.3.5-1 .7-1.5.3-.5-.3-.7-1-.3-1.5.3-.5 1-.7 1.5-.3.5.3.7 1 .3 1.5zm16.6.4c0 .8-.2 1.5-.4 1.5s-.6-.7-1-1.5c-.3-.8-.1-1.5.4-1.5.6 0 1 .7 1 1.5zm-26 .9c0 .2-.7.7-1.6 1-.8.3-1.2.2-.9-.4.6-1 2.5-1.4 2.5-.6zm23 1.6c3.3 0 4.1.3 3 1-.8.5-3.2 1-5.2 1-2.1 0-3.8.4-3.8 1 0 .5-.9 1-2 1s-2 .4-2 1c0 .5.8 1 1.7 1 .9 0 1.4.3 1.1.6-1.2 1.1-8.6-1.9-9.1-3.7-.6-2.3.8-2.6 1.7-.4.6 1.7 4.6 2.1 4.6.5 0-.6.9-1 2-1 2.2 0 2.7-1.6.8-2.3-.7-.2-.4-.3.7-.1 1.1.2 4 .4 6.5.4zm-21 1.9c0 1.2-2 2.5-2.7 1.8-.7-.7.6-2.7 1.8-2.7.5 0 .9.4.9.9zm-2.3 4.7c-.3.3-1.2.4-1.9.1-.8-.3-.5-.6.6-.6 1.1-.1 1.7.2 1.3.5zm-1.7 3.5c0 .5-.4.9-1 .9-.5 0-1-.7-1-1.6 0-.8.5-1.2 1-.9.6.3 1 1 1 1.6zm7.7 1.5c-.3.3-1.2.4-1.9.1-.8-.3-.5-.6.6-.6 1.1-.1 1.7.2 1.3.5zm-11.1 4.1c-.2.9-.8 1.9-1.5 2.1-1 .3-1 0-.2-1.7 1.4-2.5 2-2.7 1.7-.4zm-14.6 4.4c0 .6-.4.7-1 .4-.5-.3-1-1.1-1-1.6 0-.6.5-.7 1-.4.6.3 1 1.1 1 1.6zm15.5.5c-.8.9-1.5 2-1.5 2.5s-1.5.9-3.2.9c-1.8 0-2.8-.4-2.2-.8.6-.4 1.4-1.4 1.7-2.2.4-1.2.6-1.1.6.2.1 1 .5 1.8 1.1 1.8.5 0 .7-.7.4-1.5-.4-.9 0-1.5 1-1.5.9 0 1.6-.5 1.6-1.1 0-.5.5-.7 1-.4.6.4.4 1.2-.5 2.1zm-8 1.4c-.4 1.2-.9 1.9-1.2 1.7-.3-.3-.2-1.5.2-2.7.4-1.2.9-1.9 1.2-1.7.3.3.2 1.5-.2 2.7zm-4.5 1.5c-.7.9-1.5 1.3-1.8 1-.3-.2.1-1.1.8-2 .7-.9 1.5-1.3 1.8-1 .3.2-.1 1.1-.8 2zm-2.5 2.9c1 .7 2.6 1.1 3.6.9.9-.3 2 0 2.3.6.4.6.1 1.1-.7 1.1-.8 0-1.7.7-2.1 1.5-.3.8-1.2 1.5-2 1.5-1 0-1.3-.6-1-1.5.4-.8.1-1.5-.5-1.5s-1.1.8-1.1 1.7c0 1.5-.2 1.6-1 .3-.6-.9-.5-1.7.2-2.1.9-.6.8-1.2-.1-2.3-1.6-2-.2-2.1 2.4-.2zm2.4 8.2c.2.2-.6.4-1.9.4-1.9 0-2 .2-1 1.5.9 1.1.9 1.5.1 1.5-.6 0-1.4-.7-1.7-1.5-.4-.8-1.2-1.5-2-1.5s-1.4-.5-1.4-1c0-1 6.7-.4 7.9.6zm-10.4 4.3c.3.5.1 1.2-.5 1.6-.5.3-1-.1-1-.9 0-1.8.6-2.1 1.5-.7zm5 .1c.3.5-.1 1-.9 1s-1.8-.5-2.1-1c-.3-.6.1-1 .9-1s1.8.4 2.1 1zm-1.5 8.5c0 .8-.4 1.5-.9 1.5s-1.1-.7-1.5-1.5c-.3-.9 0-1.5.9-1.5.8 0 1.5.7 1.5 1.5zm-5 2.5c0 .5-.7 1-1.5 1s-1.5-.5-1.5-1c0-.6.7-1 1.5-1s1.5.4 1.5 1zm2.5 5.7c-1.1.3-2.4.9-2.9 1.4-1.5 1.4-2.6 1.1-2-.6.4-.9 1.8-1.5 3.8-1.4 2.1.1 2.4.3 1.1.6zm-17.5 2.4c0 .6-.4.7-1 .4-.5-.3-1-1.1-1-1.6 0-.6.5-.7 1-.4.6.3 1 1.1 1 1.6zm10.5-1.1c.3.5.2 1-.4 1-.5 0-1.3-.5-1.6-1-.3-.6-.2-1 .4-1 .5 0 1.3.4 1.6 1zm-2.8 5.2c-.3.8-.6.5-.6-.6-.1-1.1.2-1.7.5-1.3.3.3.4 1.2.1 1.9zm-1.8 2.7c1.7 1.1.5 3.1-1.9 3.1s-3.6-2-1.9-3.1c.8-.5 1.6-.9 1.9-.9.3 0 1.1.4 1.9.9zm-6.5 6c.4.5-.3.7-1.4.4-1.4-.4-2 0-2 1.2 0 .9-.6 1.5-1.2 1.2-.7-.2-1.2-1-1-1.7.2-.9-.5-1-2.5-.6-2.1.5-2.4.4-1.3-.4 1.9-1.2 8.7-1.3 9.4-.1zm6 0c.3.5-.1 1.1-.9 1.5-1.5.6-2.9-.7-1.8-1.8.9-.9 2.1-.8 2.7.3zm-1.9 4c.7 1.2-1.2 2.4-2.5 1.6-1.1-.7-.4-2.5 1-2.5.5 0 1.1.4 1.5.9zm-17.5 1.5c0 .3-.4.8-1 1.1-.5.3-1 .1-1-.4 0-.6.5-1.1 1-1.1.6 0 1 .2 1 .4zm4.5 1.6c.3.5-.1 1-1 1s-1.3-.5-1-1c.3-.6.8-1 1-1 .2 0 .7.4 1 1zm7.5 1c-1.4.4-3.2.8-4 .9-1.3.1-1.3 0 0-.9.8-.5 2.6-.9 4-.9l2.5.1-2.5.8zm7.5 0c-.3.5-1.6 1-2.8 1-1.8 0-1.9-.2-.7-1 2-1.3 4.3-1.3 3.5 0zm-18.5 6c0 .5-.4 1-1 1-.5 0-1-.5-1-1 0-.6.5-1 1-1 .6 0 1 .4 1 1zm-1.5 2.9c.3.6-.3 1.4-1.2 2-1.5.9-1.5 1.2-.4 2 .8.5.9 1.1.3 1.5-1.3.8-2.4-2.2-1.7-4.5.7-2 2-2.5 3-1zm-9.8 5.8c-.3 1-.5.4-.5-1.2 0-1.7.2-2.4.5-1.8.2.7.2 2.1 0 3zm4-.5c-.3.8-.6.5-.6-.6-.1-1.1.2-1.7.5-1.3.3.3.4 1.2.1 1.9zm3.3 3.3c0 .8-.2 1.5-.4 1.5s-.6-.7-1-1.5c-.3-.8-.1-1.5.4-1.5.6 0 1 .7 1 1.5zm4 .5c0 .5-.7 1-1.5 1s-1.5-.5-1.5-1c0-.6.7-1 1.5-1s1.5.4 1.5 1zm-12.6 8.4c-.3.9-1.3 1.6-2.2 1.6-1.3 0-1.2-.3.4-1.9 2.2-2.1 2.7-2.1 1.8.3zm-6.7 6.2c-.3.3-1.2.4-1.9.1-.8-.3-.5-.6.6-.6 1.1-.1 1.7.2 1.3.5zm-2.7 3.9c0 .8-.7 1.5-1.5 1.5s-1.5-.7-1.5-1.5.7-1.5 1.5-1.5 1.5.7 1.5 1.5zm-7 11.9c0 .3-.4.8-1 1.1-.5.3-1 .1-1-.4 0-.6.5-1.1 1-1.1.6 0 1 .2 1 .4zm-2 5c0 .3-.4.8-1 1.1-.5.3-1 .1-1-.4 0-.6.5-1.1 1-1.1.6 0 1 .2 1 .4zm3.5.6c.3.5.1 1-.4 1-.6 0-1.1-.5-1.1-1 0-.6.2-1 .4-1 .3 0 .8.4 1.1 1zm7.5-.1c0 1.2-2.9 2.3-4.1 1.5-1.8-1-.9-2.4 1.6-2.4 1.4 0 2.5.4 2.5.9zm-16.3 4.3c-.3.8-.6.5-.6-.6-.1-1.1.2-1.7.5-1.3.3.3.4 1.2.1 1.9zm7.3 1.8c0 .5-.7 1-1.5 1s-1.5-.5-1.5-1c0-.6.7-1 1.5-1s1.5.4 1.5 1zm-25 3c0 .5-.5 1-1.1 1-.5 0-.7-.5-.4-1 .3-.6.8-1 1.1-1 .2 0 .4.4.4 1zm17.7 1.6c-.3.3-1.2.4-1.9.1-.8-.3-.5-.6.6-.6 1.1-.1 1.7.2 1.3.5zm10.2-.2c-1.2 1-5.9 1.5-5.9.6 0-.5 1.4-1 3.2-1 1.7 0 2.9.2 2.7.4zm-14.7 9.2c-1.3.9-2.6 1.3-3 .9-.8-.8 1.7-2.5 3.8-2.5.9 0 .6.6-.8 1.6zm-1.4 6.8c1.2.3 1.2.4-.3.3-1.1-.1-2-.9-2.1-1.7 0-.8.1-1 .3-.3.2.6 1.2 1.4 2.1 1.7zm6 5.8c-1.9 1.9-2 1.9-3.3.1-1.7-2.2-1.9-3.3-.5-3.3.6 0 1 .4 1 1 0 .5.5 1 1 1 .6 0 1-1 1-2.2 0-2.1.1-2.1 1.3-.3 1.2 1.5 1.1 2.1-.5 3.7zm10.2.8c.9 1.6.8 1.8-.5 1.4-.8-.4-1.5-1.2-1.5-2 0-2 .7-1.7 2 .6zm144-.6c0 .3-.4.8-1 1.1-.5.3-1 .1-1-.4 0-.6.5-1.1 1-1.1.6 0 1 .2 1 .4zm-147.9 4.9c-1.2 1.2-3.1 0-3.1-1.9 0-1.2.3-1.2 2-.2 1.1.7 1.6 1.6 1.1 2.1zm-4 1.7c1.4 0 1.1 2.7-.4 3.3-.8.3-2 .1-2.8-.5-1.1-.8-1.1-.9.3-.5 1.3.5 1.6 0 1.4-2.6-.2-1.8-.1-2.4.1-1.5.2 1 .9 1.8 1.4 1.8zm-8.6-2.1c.3.5.1 1.2-.5 1.6-.5.3-1-.1-1-.9 0-1.8.6-2.1 1.5-.7zm15.1 5.2c.3.6.1 1.6-.6 2.2-1 .9-1.1.9-.5-.2.4-.8.2-1.7-.6-2.2-.9-.6-1-.9-.2-.9.6 0 1.5.5 1.9 1.1zm-3 6c.5.8-.3 1-2.4.7-1.7-.2-3.4 0-3.6.6-.2.6-.5.3-.5-.7-.1-1.2.7-1.7 2.8-1.7 1.7 0 3.3.5 3.7 1.1zm2.4 7.1c0 .6-1.4.8-3.7.3-5.5-1-6-2.1-.8-1.7 2.5.2 4.5.9 4.5 1.4zm.2 2.4c.3.3.4 1.4.1 2.5-.8 2.8-3.3 2.4-3.3-.6 0-2.3 1.8-3.4 3.2-1.9zM360 498c0 .5-.9 1-2 1-2.7 0-2.5 1.8.3 2.3 2 .3 2 .4.3 1.2-1.1.5-2.1.3-2.6-.4-.5-.8-1.9-1-4.4-.6-3.7.7-6 2.5-3.1 2.5.9 0 1.4.4 1.1.9-.3.5-2.1.2-4.1-.7-3.5-1.6-3.8-2.4-.7-2.8 2.7-.4 12.3-3.2 13-3.8.9-.9 2.2-.7 2.2.4zm11.5 1c.3.5-.3 1-1.4 1-1.2 0-2.1-.5-2.1-1 0-.6.6-1 1.4-1 .8 0 1.8.4 2.1 1zm-33.5 3.4c0 .2-.7.7-1.6 1-.8.3-1.2.2-.9-.4.6-1 2.5-1.4 2.5-.6zm7 3.5c0 2.1-1.3 4.1-2.6 4.1-1.7 0-1.7-.5-.4-3.1 1.1-2 3-2.6 3-1zm4 3.1c0 .5-.4 1-1 1-.5 0-1-.5-1-1 0-.6.5-1 1-1 .6 0 1 .4 1 1zm11 5.6c0 .8-.5 1.2-1 .9-.6-.4-.8-1.1-.5-1.6.9-1.4 1.5-1.1 1.5.7zm.8 6.9c-.3.3-.9-.2-1.2-1.2-.6-1.4-.5-1.5.5-.6.7.7 1 1.5.7 1.8zm-1.6 3.7c-.8.8-1.7.8-3.4 0-2.2-1-2.1-1.1 1.2-1.1 2.6-.1 3.1.2 2.2 1.1zm-5.5 9c-.3.8-.6.5-.6-.6-.1-1.1.2-1.7.5-1.3.3.3.4 1.2.1 1.9zM351 538c1.2.8 1.2 1-.3 1.6-2.2.8-5-.3-4.2-1.6.8-1.2 2.5-1.3 4.5 0zm14 10c0 .5-.2 1-.4 1-.3 0-.8-.5-1.1-1-.3-.6-.1-1 .4-1 .6 0 1.1.4 1.1 1zm4-.1c0 .5-.6 1.4-1.4 2-1.2 1-1.3.8-.9-.8.5-2.1 2.3-3 2.3-1.2zm4.7 1.7c1.3 2.8 0 4-3.4 3.1-1.4-.4-1.3-.5.5-.6 2.3-.1 3-1.5 1.2-2.6-1.2-.7-1.3-2.5-.2-2.5.4 0 1.2 1.2 1.9 2.6zm-5 7.6c-.3.8-.6.5-.6-.6-.1-1.1.2-1.7.5-1.3.3.3.4 1.2.1 1.9zm175 11c-.3.8-.6.5-.6-.6-.1-1.1.2-1.7.5-1.3.3.3.4 1.2.1 1.9zm-197 2c-.3.8-.6.5-.6-.6-.1-1.1.2-1.7.5-1.3.3.3.4 1.2.1 1.9zm20.3 1c0 .7.3 2.3.6 3.5.5 1.8.2 2.1-1.3 1.7-1.5-.4-1.8-1.2-1.5-3.5.4-2.8 2.2-4.2 2.2-1.7zm-10 2.3c0 .8-.2 1.5-.4 1.5s-.6-.7-1-1.5c-.3-.8-.1-1.5.4-1.5.6 0 1 .7 1 1.5zm-21.7 3.2c-.7.2-2.1.2-3 0-1-.3-.4-.5 1.2-.5 1.7 0 2.4.2 1.8.5zm209.4 5.5c-.3.7-.5.2-.5-1.2s.2-1.9.5-1.3c.2.7.2 1.9 0 2.5zm-178.2 3c-1.5 1.3-3.8 3.4-5.1 4.6-1.3 1.3-2.9 2.2-3.6 1.9-.9-.4-.8-.6.3-.6 1.1-.1 1.9-1.4 2.3-3.7.6-3 .9-3.4 2.2-2.3 1.2 1 1.8.9 3.2-.4.9-1 2-1.7 2.5-1.7s-.4 1-1.8 2.2zM357 587c0 .5-.4 1-1 1-.5 0-1-.5-1-1 0-.6.5-1 1-1 .6 0 1 .4 1 1zm12.1 5.6c.6.8.4 1.4-.5 1.7-.9.4-1.8.2-2.1-.3-.4-.6-.1-1 .5-1 .7 0 .8-.6.1-1.9-.6-1-.7-2.2-.3-2.6.4-.4.9.1 1.1 1.2.2 1 .7 2.3 1.2 2.9zm6.9-.1c0 2.6-.5 4.5-1.1 4.5-.6 0-.9-.6-.6-1.4.3-.8-.1-2-.9-2.6-2.1-1.9-1.8-5 .6-5 1.7 0 2 .7 2 4.5zm-11.5-.5c-.3.5-1.4 1-2.3.9-1.4 0-1.3-.2.3-.9 2.7-1.1 2.7-1.1 2 0zm-9.8.6c-.3.3-1.2.4-1.9.1-.8-.3-.5-.6.6-.6 1.1-.1 1.7.2 1.3.5zm5.3 2.4c0 .5-.4 1-.9 1-.6 0-1.3-.5-1.6-1-.3-.6.1-1 .9-1 .9 0 1.6.4 1.6 1zm12 2c0 .5-.4 1-1 1-.5 0-1-.5-1-1 0-.6.5-1 1-1 .6 0 1 .4 1 1zm-20 7c0 2.1-.5 3-1.6 3-.9 0-1.3-.5-1-1.3.3-.6.9-2 1.2-3 .9-2.5 1.4-2.1 1.4 1.3zm8 0c0 .5-.2 1-.4 1-.3 0-.8-.5-1.1-1-.3-.6-.1-1 .4-1 .6 0 1.1.4 1.1 1zm-3.6 3.5c.3.8.1 1.5-.4 1.5-.6 0-1-.7-1-1.5s.2-1.5.4-1.5.6.7 1 1.5zm154.3 3.7c-.3.7-.5.2-.5-1.2s.2-1.9.5-1.3c.2.7.2 1.9 0 2.5zm-134.7-.9c0 .7-.5 1.8-1.2 2.5-.8.8-.8 1.5.2 2.7 1.7 2-.4 2-2.4-.1-1.9-1.8-1.9-2-.6-4.5 1.2-2.1 4-2.6 4-.6zm169.7.9c-.3.8-.6.5-.6-.6-.1-1.1.2-1.7.5-1.3.3.3.4 1.2.1 1.9zM352 615c0 .5-.5 1-1.1 1-.5 0-.7-.5-.4-1 .3-.6.8-1 1.1-1 .2 0 .4.4.4 1zm193 1c0 .5-.4 1-1 1-.5 0-1-.5-1-1 0-.6.5-1 1-1 .6 0 1 .4 1 1zm-179.3.6c-.3.3-1.2.4-1.9.1-.8-.3-.5-.6.6-.6 1.1-.1 1.7.2 1.3.5zm5.3.8c0 .2-.9.6-2 .9-1.1.3-1.8.1-1.4-.4.5-.9 3.4-1.3 3.4-.5zm173.5 2.6c-.3.5-1.1 1-1.6 1-.6 0-.7-.5-.4-1 .3-.6 1.1-1 1.6-1 .6 0 .7.4.4 1zm-179 1c.3.5-.3 1-1.5 1s-1.8-.5-1.5-1c.3-.6 1-1 1.5-1s1.2.4 1.5 1zm181.2 6.7c-.3 1-.5.2-.5-1.7s.2-2.7.5-1.8c.2 1 .2 2.6 0 3.5zM366 625.5c0 .8-.7 1.5-1.5 1.5s-1.5-.7-1.5-1.5.7-1.5 1.5-1.5 1.5.7 1.5 1.5zm143.7 1.7c-.3.7-.5.2-.5-1.2s.2-1.9.5-1.3c.2.7.2 1.9 0 2.5zM374 626c0 .5-.9 1-2.1 1-1.1 0-1.7-.5-1.4-1 .3-.6 1.3-1 2.1-1s1.4.4 1.4 1zm-4.5 4c.3.5.1 1-.4 1-.6 0-1.1-.5-1.1-1 0-.6.2-1 .4-1 .3 0 .8.4 1.1 1zm150 .1c1.1 1.6.1 1.9-1.3.3-.7-.8-.8-1.4-.3-1.4s1.3.5 1.6 1.1zm-136.6 3.8c0 .9-.4 2.5-.8 3.5-.6 1.6-.9 1.3-1.8-2.1-.9-3.7-.9-4 .8-3.6 1.1.3 1.9 1.3 1.8 2.2zm162.6-1.9c.3.5.1 1-.4 1-.6 0-1.1-.5-1.1-1 0-.6.2-1 .4-1 .3 0 .8.4 1.1 1zm-169.3 2.2c-.7.7-1.2.8-1.2.2 0-1.4 1.2-2.6 1.9-1.9.2.3-.1 1.1-.7 1.7zm14.6-.4c.2.7-.3 1.2-1.2 1.2-.9 0-1.6-.7-1.6-1.6 0-1.7 2.2-1.4 2.8.4zm157.2 9.4c0 2.3-.3 2.9-.9 1.9-.8-1.2-.4-5.1.5-5.1.2 0 .4 1.5.4 3.2zm-39.3 0c-.3.8-.6.5-.6-.6-.1-1.1.2-1.7.5-1.3.3.3.4 1.2.1 1.9zm-137-.6c-.3.3-1.2.4-1.9.1-.8-.3-.5-.6.6-.6 1.1-.1 1.7.2 1.3.5zm3.1 3.2c.2.7-.3 1.2-1.2 1.2-.9 0-1.6-.7-1.6-1.6 0-1.7 2.2-1.4 2.8.4zm142.9 1.4c-.3.8-.6.5-.6-.6-.1-1.1.2-1.7.5-1.3.3.3.4 1.2.1 1.9zM546 649c0 .5-.5 1-1.1 1-.5 0-.7-.5-.4-1 .3-.6.8-1 1.1-1 .2 0 .4.4.4 1zm-35 1c0 .5-.5 1-1.1 1-.5 0-.7-.5-.4-1 .3-.6.8-1 1.1-1 .2 0 .4.4.4 1zm-134.7 4.5c-.3.9-.8 1.4-1 1.1-.3-.3-.2-.9.2-1.5.9-1.6 1.5-1.3.8.4zm169.7 0c-.7.9-1.5 1.3-1.7 1.1-.7-.7.7-2.6 1.9-2.6.6 0 .6.6-.2 1.5zm-160.2.8c1.4-.4 1.4-.3.2.5-1.6 1.2-3 .7-2.9-1.1 0-.9.2-.9.5 0 .3.7 1.3.9 2.2.6zm7.2-.3c0 .5-.4 1-1 1-.5 0-1-.5-1-1 0-.6.5-1 1-1 .6 0 1 .4 1 1zm118-.6c0 .3-.4.8-1 1.1-.5.3-1 .1-1-.4 0-.6.5-1.1 1-1.1.6 0 1 .2 1 .4zm27.4 2.2c1 2.5-.1 2.9-1.4.5-.6-1.2-.7-2.1-.1-2.1.5 0 1.2.7 1.5 1.6zm-159.4 3c0 .2-.7.4-1.5.4s-1.5-.4-1.5-1c0-.5.7-.7 1.5-.4.8.4 1.5.8 1.5 1zm170 2.1c-.1 2.4-.2 2.6-1.1 1-.5-.9-.7-2.2-.4-2.7 1-1.7 1.5-1.1 1.5 1.7zm-41.7.3c-.3 1.1-.7 2-.9 2-.2 0-.4-.9-.4-2s.4-2 .9-2 .7.9.4 2zM374 664c0 .5-.8 1-1.7 1-1.5 0-1.6-.2-.3-1 1.9-1.2 2-1.2 2 0zm6 .4c0 .3-.4.8-1 1.1-.5.3-1 .1-1-.4 0-.6.5-1.1 1-1.1.6 0 1 .2 1 .4zm138 1.7c0 .6-.4.7-1 .4-.5-.3-1-1.1-1-1.6 0-.6.5-.7 1-.4.6.3 1 1.1 1 1.6zm-8 1.9c0 .5-.5 1-1.1 1-.5 0-.7-.5-.4-1 .3-.6.8-1 1.1-1 .2 0 .4.4.4 1zm37.5 0c.3.5-.1 1-.9 1-.9 0-1.6-.5-1.6-1 0-.6.4-1 .9-1 .6 0 1.3.4 1.6 1zM370 674.1c0 .5-.4.9-1 .9-.5 0-1-.7-1-1.6 0-.8.5-1.2 1-.9.6.3 1 1 1 1.6zm22 2.1c0 2.4-2.1 2.3-2.7-.2-.3-1.1-.9-1.7-1.4-1.4-.5.3-.6-.2-.3-1 .8-2 4.4.1 4.4 2.6zm117-3.2c0 .5-.4 1-1 1-.5 0-1-.5-1-1 0-.6.5-1 1-1 .6 0 1 .4 1 1zm38-.6c0 1.1-1.9 1.5-2.5.6-.3-.5.1-1 .9-1 .9 0 1.6.2 1.6.4zm2.7 8.3c-.3 1-.5.2-.5-1.7s.2-2.7.5-1.8c.2 1 .2 2.6 0 3.5zm-44.6 0c-1.2 2-1.4 1.4-.5-1.2.4-.9.9-1.4 1.1-1.1.3.2 0 1.3-.6 2.3zm35.6-.5c-.3.8-.6.5-.6-.6-.1-1.1.2-1.7.5-1.3.3.3.4 1.2.1 1.9zm-162.7.2c0 .3-.4.8-1 1.1-.5.3-1 .1-1-.4 0-.6.5-1.1 1-1.1.6 0 1 .2 1 .4zm13.7 5.2c-.2.2-1.2.1-2.2-.3-1.8-.6-1.8-.7.1-1.3 1.7-.7 3.3.5 2.1 1.6zm156.7-.1c.3.8.1 1.5-.4 1.5-.6 0-1-.7-1-1.5s.2-1.5.4-1.5.6.7 1 1.5zm-40.4.5c0 .5-.5 1-1.1 1-.5 0-.7-.5-.4-1 .3-.6.8-1 1.1-1 .2 0 .4.4.4 1zm-109 3c0 .5-.2 1-.4 1-.3 0-.8-.5-1.1-1-.3-.6-.1-1 .4-1 .6 0 1.1.4 1.1 1zm-11 1c0 .5-1 1-2.2 1-1.9 0-2-.2-.8-1 1.9-1.3 3-1.3 3 0zm118.5 1c.3.5.1 1-.4 1-.6 0-1.1-.5-1.1-1 0-.6.2-1 .4-1 .3 0 .8.4 1.1 1zm41.9.5c-.4.8-.7 1.5-.9 1.5-.2 0-.5-.7-.9-1.5-.3-.9 0-1.5.9-1.5s1.2.6.9 1.5zm-8.7 3.7c-.3.7-.5.2-.5-1.2s.2-1.9.5-1.3c.2.7.2 1.9 0 2.5zm-27 3c-.3.8-.6.5-.6-.6-.1-1.1.2-1.7.5-1.3.3.3.4 1.2.1 1.9zm39.3.5c-.1 2.4-.2 2.6-1.1 1-.5-.9-.7-2.2-.4-2.7 1-1.7 1.5-1.1 1.5 1.7zm-49.3 1.5c-.3.7-.5.2-.5-1.2s.2-1.9.5-1.3c.2.7.2 1.9 0 2.5zm39 0c-.3.7-.5.2-.5-1.2s.2-1.9.5-1.3c.2.7.2 1.9 0 2.5zm-102 3.4c-.3.3-1.2.4-1.9.1-.8-.3-.5-.6.6-.6 1.1-.1 1.7.2 1.3.5zm110.3.9c1 1.2 1 1.5-.4 1.5-.9 0-1.6-.7-1.6-1.5s.2-1.5.4-1.5.9.7 1.6 1.5zm-44 .5c0 .5-.5 1-1.1 1-.5 0-.7-.5-.4-1 .3-.6.8-1 1.1-1 .2 0 .4.4.4 1zm-1.6 5.5c-.4.8-.7 1.5-.9 1.5-.2 0-.5-.7-.9-1.5-.3-.9 0-1.5.9-1.5s1.2.6.9 1.5zm46 0c-.4.8-1 1.2-1.5.9-1.4-.8-1-2.4.6-2.4.9 0 1.2.6.9 1.5zm-93.7 1.7c-.3.8-.6.5-.6-.6-.1-1.1.2-1.7.5-1.3.3.3.4 1.2.1 1.9zM452 715c0 .5-.2 1-.4 1-.3 0-.8-.5-1.1-1-.3-.6-.1-1 .4-1 .6 0 1.1.4 1.1 1zm48.7 2.2c-.3.7-.5.2-.5-1.2s.2-1.9.5-1.3c.2.7.2 1.9 0 2.5zm11 0c-.3.7-.5.2-.5-1.2s.2-1.9.5-1.3c.2.7.2 1.9 0 2.5zM461 716c0 .5-.4 1-1 1-.5 0-1-.5-1-1 0-.6.5-1 1-1 .6 0 1 .4 1 1zm80.7 3.7c-.3 1-.5.2-.5-1.7s.2-2.7.5-1.8c.2 1 .2 2.6 0 3.5zm12.3-.9c0 1.5-.2 1.5-1 .2-1.3-2-1.3-3.3 0-2.5.6.3 1 1.4 1 2.3zm-89 1.2c0 .5-.4 1-1 1-.5 0-1-.5-1-1 0-.6.5-1 1-1 .6 0 1 .4 1 1zm31.7 2.2c-.3.8-.6.5-.6-.6-.1-1.1.2-1.7.5-1.3.3.3.4 1.2.1 1.9zm6.3 1.8c0 .5-.5 1-1.1 1-.5 0-.7-.5-.4-1 .3-.6.8-1 1.1-1 .2 0 .4.4.4 1zm49.5 0c.3.5-.1 1-1 1s-1.3-.5-1-1c.3-.6.8-1 1-1 .2 0 .7.4 1 1zm-75 1c-.3.5-1 1-1.6 1-.5 0-.9-.5-.9-1 0-.6.7-1 1.6-1 .8 0 1.2.4.9 1zm18.2 2.7c-.3 1-.5.4-.5-1.2 0-1.7.2-2.4.5-1.8.2.7.2 2.1 0 3zm-25.2.3c-.3.5-1.4 1-2.3.9-1.4 0-1.3-.2.3-.9 2.7-1.1 2.7-1.1 2 0zm81.8 1.7c-.3.7-.9 1-1.4.7-1.4-.8-1.1-2.1.5-2.1.8 0 1.2.6.9 1.4zm-12.6 3.5c-.3.8-.6.5-.6-.6-.1-1.1.2-1.7.5-1.3.3.3.4 1.2.1 1.9zm-45 1c-.3.8-.6.5-.6-.6-.1-1.1.2-1.7.5-1.3.3.3.4 1.2.1 1.9zm61 2.5c-.3 1-.5.4-.5-1.2 0-1.7.2-2.4.5-1.8.2.7.2 2.1 0 3zm-92.3-1.8c.3.5-.1 1.1-.9 1.4-.9.4-1.2.1-.8-.9.6-1.6 1-1.7 1.7-.5zm34.3 2.3c-.3.7-.5.2-.5-1.2s.2-1.9.5-1.3c.2.7.2 1.9 0 2.5zm-11.7 1.3c0 .8-.4 1.5-1 1.5-.5 0-1-.7-1-1.5s.5-1.5 1-1.5c.6 0 1 .7 1 1.5zm-8 .5c0 .5-.4 1-1 1-.5 0-1-.5-1-1 0-.6.5-1 1-1 .6 0 1 .4 1 1zm15.2 3.2c-.6.6-.7 0-.4-1.9.5-2.1.7-2.3 1-.9.2 1 0 2.2-.6 2.8zm-4.1.9c-.5 1.3-1 1.9-1 1.2-.1-1.5 1-4.5 1.5-4 .3.2 0 1.5-.5 2.8zm16.4-.1c.3.5.1 1-.4 1-.6 0-1.1-.5-1.1-1 0-.6.2-1 .4-1 .3 0 .8.4 1.1 1zm42.5 0c0 .5-.5 1-1.1 1-.5 0-.7-.5-.4-1 .3-.6.8-1 1.1-1 .2 0 .4.4.4 1zm6.5 0c.3.5.1 1-.4 1-.6 0-1.1-.5-1.1-1 0-.6.2-1 .4-1 .3 0 .8.4 1.1 1zm-.7 6.5c-.3.3-.9-.2-1.2-1.2-.6-1.4-.5-1.5.5-.6.7.7 1 1.5.7 1.8zm-59.1 5.7c-.3.8-.6.5-.6-.6-.1-1.1.2-1.7.5-1.3.3.3.4 1.2.1 1.9zm52 2c-.3.8-.6.5-.6-.6-.1-1.1.2-1.7.5-1.3.3.3.4 1.2.1 1.9zm12.3-.7c0 .8-.2 1.5-.4 1.5s-.6-.7-1-1.5c-.3-.8-.1-1.5.4-1.5.6 0 1 .7 1 1.5zm-20.3 2.7c-.3.8-.6.5-.6-.6-.1-1.1.2-1.7.5-1.3.3.3.4 1.2.1 1.9zm5.1.3c-.3.3-.9-.2-1.2-1.2-.6-1.4-.5-1.5.5-.6.7.7 1 1.5.7 1.8zm11.2.6c0 .5-.4.9-1 .9-.5 0-1-.7-1-1.6 0-.8.5-1.2 1-.9.6.3 1 1 1 1.6zm-4.7 2.2c.3.8-.1 1.4-.9 1.4-1.5 0-1.8-.9-.7-2 .9-.9 1-.9 1.6.6zm-53.3.7c0 .5-.5 1-1.1 1-.5 0-.7-.5-.4-1 .3-.6.8-1 1.1-1 .2 0 .4.4.4 1zm60.4-.2c.3.5-.1.9-.9.9s-1.2-.4-.9-.9c.3-.4.7-.8.9-.8.2 0 .6.4.9.8zm-.4 5.2c0 .5-.2 1-.4 1-.3 0-.8-.5-1.1-1-.3-.6-.1-1 .4-1 .6 0 1.1.4 1.1 1zm91.8 1c.7 1.1.5 2.2-.4 3.5-1.4 1.9-1.4 1.9-1.2-.5.3-2.5.3-2.5-7.4-2.1-5 .2-7.8-.1-7.8-.7s1.9-1.2 4.3-1.4c8.7-.6 11.5-.4 12.5 1.2zm-47.8 0c0 .5-1.4 1-3.1 1-1.7 0-2.8-.4-2.4-1 .3-.6 1.7-1 3.1-1 1.3 0 2.4.4 2.4 1zm4 .6c0 .8-.4 1.2-1 .9-.5-.3-1-1-1-1.6 0-.5.5-.9 1-.9.6 0 1 .7 1 1.6zm19.5 1.1c-2.5 1.7-3.5 1.7-3.5-.3 0-1 .6-1.4 1.5-1 .8.3 1.5.1 1.5-.5s.5-.7 1.2-.3c.7.5.5 1.1-.7 2.1zm-119.8 3.9c-.3.3-1.2.4-1.9.1-.8-.3-.5-.6.6-.6 1.1-.1 1.7.2 1.3.5zm64.6 2.9c-.3.9-.8 1.4-1 1.1-.3-.3-.2-.9.2-1.5.9-1.6 1.5-1.3.8.4zM674 779c0 .5-.4 1-.9 1-.6 0-1.3-.5-1.6-1-.3-.6.1-1 .9-1 .9 0 1.6.4 1.6 1zm24.5 1c.3.5-.1 1-.9 1s-1.8-.5-2.1-1c-.3-.6.1-1 .9-1s1.8.4 2.1 1zm-5.5 3.5c0 .8-.4 1.5-1 1.5-.5 0-1-.7-1-1.5s.5-1.5 1-1.5c.6 0 1 .7 1 1.5zm16.5 6.5c.3 1.1 1.1 2 1.6 2s0 .9-1.2 2.1c-2 2-2.1 2-3.4.2-.7-1-1.7-1.5-2-1.1-.4.4-1.6.3-2.6-.3-1.5-.7-1.9-.6-1.9.6 0 1.6-1.5 2-2.4.6-1-1.6.5-4.1 2.5-4.1 1 0 1.9.4 1.9 1 0 1.9 3.9 1 4.5-1 .3-1.1 1-2 1.5-2s1.2.9 1.5 2zm-18.5 3.2c0 .6-.6.5-1.5-.2-.8-.7-1.5-1.4-1.5-1.6 0-.2.7-.1 1.5.2.8.4 1.5 1.1 1.5 1.6zm4-.8c0 1.1-1.9 1.5-2.5.6-.3-.5.1-1 .9-1 .9 0 1.6.2 1.6.4zm39.5 5.6c-.3.5-1 1-1.6 1-.5 0-.9-.5-.9-1 0-.6.7-1 1.6-1 .8 0 1.2.4.9 1zm-14.4 4.3c-1 .9-1.1.8-.5-.6.3-1 .9-1.5 1.2-1.2.3.3 0 1.1-.7 1.8zm6.9-1.3c0 .5-.4 1-1 1-.5 0-1-.5-1-1 0-.6.5-1 1-1 .6 0 1 .4 1 1zm8 0c0 .5-.4 1-1 1-.5 0-1-.5-1-1 0-.6.5-1 1-1 .6 0 1 .4 1 1zm17.4 10.5c-.4.8-1 1.5-1.5 1.5-.4 0-.6-.7-.3-1.5.4-.8 1-1.5 1.5-1.5.4 0 .6.7.3 1.5zm42 2.7c-.3.4-1.2.8-2 .8s-1.4-.4-1.4-.8.9-.8 1.9-.8c1.1 0 1.7.4 1.5.8zm-5.7 1.7c0 1.1-.5 1.8-.9 1.5-.4-.3-.5-1.1-.1-1.9.7-2.1 1.2-1.9 1 .4zm124 1.3c-.3.8-.6.5-.6-.6-.1-1.1.2-1.7.5-1.3.3.3.4 1.2.1 1.9zm14.8-.2c-.3.5-1.3 1-2.1 1s-1.2-.5-.9-1c.3-.6 1.3-1 2.1-1s1.2.4.9 1zm104.4.3c1.3-.5 1.4-.3.3.8-1 1.1-1.5 1-2.7-.4-.8-.9-1-1.3-.4-.8s1.9.7 2.8.4zm12 3.5c-.5.2-.7.9-.3 1.5.3.7-.1.4-.9-.5-.8-1-1.7-1.4-2.2-1-.4.4-.2-.3.6-1.5 1.2-2 1.4-2 2.5-.5.7 1 .8 1.8.3 2zM855 819c0 .5-.4 1-1 1-.5 0-1-.5-1-1 0-.6.5-1 1-1 .6 0 1 .4 1 1zm166.6 3.8c-1.7 1.6-1.8 1.6-.5-.5.7-1.2 1.5-2 1.8-1.7.3.2-.3 1.2-1.3 2.2zM1869 821c0 .5-.4 1-1 1-.5 0-1-.5-1-1 0-.6.5-1 1-1 .6 0 1 .4 1 1zm7.3-.3c-.7.2-2.1.2-3 0-1-.3-.4-.5 1.2-.5 1.7 0 2.4.2 1.8.5zm-105.8 2.3c.3.5-.1 1-.9 1-.9 0-1.6-.5-1.6-1 0-.6.4-1 .9-1 .6 0 1.3.4 1.6 1zm-720 .7c-1.1.3-2.7 1-3.5 1.7-1.3 1-1.3.9-.1-.7.7-.9 2.3-1.6 3.5-1.6 2 .1 2 .2.1.6zm112 .3c-.3.5-1.3 1-2.1 1s-1.2-.5-.9-1c.3-.6 1.3-1 2.1-1s1.2.4.9 1zm-296.1.8c.3.5-.1.9-.9.9s-1.2-.4-.9-.9c.3-.4.7-.8.9-.8.2 0 .6.4.9.8zm149.9.7c-.3.9-.8 1.4-1 1.1-.3-.3-.2-.9.2-1.5.9-1.6 1.5-1.3.8.4zm324.7.1c0 .8-.5 1.2-1 .9-.6-.4-.8-1.1-.5-1.6.9-1.4 1.5-1.1 1.5.7zm289.4-.7c.3.5-.9 1.1-2.7 1.4-3.7.5-4.8 0-2.7-1.3 1.9-1.2 4.7-1.3 5.4-.1zm41.6 1.1c0 .5-.7.7-1.5.4-.8-.4-1.5-.8-1.5-1 0-.2.7-.4 1.5-.4s1.5.4 1.5 1zm-826.3 2.2c-.3.8-.6.5-.6-.6-.1-1.1.2-1.7.5-1.3.3.3.4 1.2.1 1.9zm480.8-1.2c.3.5-.1 1-1 1s-1.3-.5-1-1c.3-.6.8-1 1-1 .2 0 .7.4 1 1zm10 .1c1.1 1.7 0 2-2.1.4-1.7-1.3-1.7-1.4-.2-1.5.9 0 2 .5 2.3 1.1zm283-.1c.3.5-.3 1-1.4 1-1.2 0-2.1-.5-2.1-1 0-.6.6-1 1.4-1 .8 0 1.8.4 2.1 1zm-145 3c.3.5-.1 1-.9 1-.9 0-1.6-.5-1.6-1 0-.6.4-1 .9-1 .6 0 1.3.4 1.6 1zm-4.2.7c-.7.2-1.9.2-2.5 0-.7-.3-.2-.5 1.2-.5s1.9.2 1.3.5zm49.4.9c-.3.3-1.2.4-1.9.1-.8-.3-.5-.6.6-.6 1.1-.1 1.7.2 1.3.5zm-544 163c-.9.9-2.8-.6-2.1-1.8.4-.6 1-.6 1.7.1.6.6.8 1.3.4 1.7zm-384.3 31.5c-.3.5-1 .7-1.5.3-.5-.3-.7-1-.3-1.5.3-.5 1-.7 1.5-.3.5.3.7 1 .3 1.5zM1718 1030c0 .5-.6 1-1.4 1-.8 0-1.8-.5-2.1-1-.3-.6.3-1 1.4-1 1.2 0 2.1.4 2.1 1zm88.5 8c.3.5-.1 1-1 1s-1.3-.5-1-1c.3-.6.8-1 1-1 .2 0 .7.4 1 1zm-1297.4 4c2.3 1.3 2.5 2.8.4 3.6-2 .8-4.5-1.3-3.8-3.2.6-1.7.9-1.7 3.4-.4zm-122.1 9c0 2.1-3.3 2.9-4.5 1-.9-1.5.4-3 2.6-3 1.2 0 1.9.7 1.9 2zm402 .2c0 .4-.9.8-2 .8s-2-.4-2-.8.9-.8 2-.8 2 .4 2 .8zm-6.2 5.1c-.2 1.8-1 2.2-3.8 2.3-3.1.1-3.6-.2-3.8-2.3-.1-1.6.5-2.6 2.1-3.2 3-1.2 5.9.5 5.5 3.2zm133.1-2.9c.8 1 .8 1.6-.2 2.4-1.7 1.4-4.2-.2-3.4-2.2.8-2 2.1-2 3.6-.2zm-813.1 5.2c2.6.7 2.7 1.3.8 3.9-1.2 1.6-1.6 1.7-3 .6-1.6-1.4-2.2-5.1-.8-5.1.4 0 1.7.3 3 .6zm730 .7c.8-.3 1.2.8 1.2 3.6 0 4-1.5 5.5-2.6 2.6-.8-2-2.4-1.9-2.4.2s-1.3.8-1.5-1.5c-.1-.9-.5-2.7-.9-3.9-.6-2-.5-2.1 2.1-1.4 1.5.4 3.4.6 4.1.4zm6.2 1.7c0 .5-.2 1-.4 1-.3 0-.8-.5-1.1-1-.3-.6-.1-1 .4-1 .6 0 1.1.4 1.1 1zm-76.7 3.9c-1.1 2.9-1.5 3.2-2.8 2.1-1-.8-1.5-.6-2 .9-1 3.2-2.5 2.5-2.5-1.2 0-4.2.2-4.4 4.4-3.9 2.7.3 3.3.8 2.9 2.1zm270.3-1.8c.8 1.4-1.1 3.3-2.5 2.5-1.1-.7-.4-3.6.9-3.6.5 0 1.2.5 1.6 1.1zm-168.9 11.1c-.3.7-.5.2-.5-1.2s.2-1.9.5-1.3c.2.7.2 1.9 0 2.5zm-106-.1c-1.4.8-2.2.8-3 0-.8-.8-.3-1.1 1.9-1.1 2.5.1 2.7.2 1.1 1.1zm82.2 8.1c-.1 5.2-.3 6.6-.9 4.8-1.5-4.7-1.1-12 .7-12 .2 0 .3 3.3.2 7.2zm-10.2 3c-.2 1.8-.4.4-.4-3.2s.2-5 .4-3.3c.2 1.8.2 4.8 0 6.5zm-19.7-5.1c0 .5-.4.9-1 .9-.5 0-1-.7-1-1.6 0-.8.5-1.2 1-.9.6.3 1 1 1 1.6zm-359 64.4c0 .8-.4 1.5-.9 1.5s-1.1-.7-1.5-1.5c-.3-.9 0-1.5.9-1.5.8 0 1.5.7 1.5 1.5zm494 8.1c0 .8-.7 1.4-1.5 1.4-1.5 0-2.1-2.1-.9-3.3 1-.9 2.4.2 2.4 1.9z"/><path d="M706.8 793.2c.9.9 1.5.9 2.4 0 .9-.9.7-1.2-1.2-1.2s-2.1.3-1.2 1.2zm316.5-792c1.5 1 5.4 1 6 0 .3-.4-1.2-.7-3.4-.7-2.2-.1-3.3.2-2.6.7zm17.5-.5c.6.2 1.8.2 2.5 0 .6-.3.1-.5-1.3-.5-1.4 0-1.9.2-1.2.5zm-2.8 2.4c0 .5.5.7 1 .4.6-.3 1-.8 1-1.1 0-.2-.4-.4-1-.4-.5 0-1 .5-1 1.1zm-13.2 1.6c.7.3 1.6.2 1.9-.1.4-.3-.2-.6-1.3-.5-1.1 0-1.4.3-.6.6zM1033 6c0 .5.4 1 .9 1 .6 0 1.3-.5 1.6-1 .3-.6-.1-1-.9-1-.9 0-1.6.4-1.6 1zm-25.4 1.7c-.4.9-.3 2 .2 2.5.6.6 1-.1 1-1.6 0-3-.3-3.2-1.2-.9zM1022 10c0 .5.5 1 1 1 .6 0 1-.5 1-1 0-.6-.4-1-1-1-.5 0-1 .4-1 1zm-23.9 2.6c0 1.1.3 1.4.6.6.3-.7.2-1.6-.1-1.9-.3-.4-.6.2-.5 1.3zM970 14c0 .5 1.3 1 2.9 1 1.7 0 3.3-.5 3.6-1 .4-.6-.8-1-2.9-1-2 0-3.6.4-3.6 1zm27 4c0 .5.5 1 1 1 .6 0 1-.5 1-1 0-.6-.4-1-1-1-.5 0-1 .4-1 1zm-8.5 1c-.3.5.1 1 1 1s1.3-.5 1-1c-.3-.6-.8-1-1-1-.2 0-.7.4-1 1zm-37.3 1.7c.2 1.2-.6 1.9-2.7 2.4-2.7.6-2.3.9 1.5 1.3 1.3.1 6-3.4 6-4.5 0-.5-1.1-.9-2.5-.9-1.9 0-2.5.5-2.3 1.7zm13.3-.7c-.3.5.1 1 .9 1 .9 0 1.6-.5 1.6-1 0-.6-.4-1-.9-1-.6 0-1.3.4-1.6 1zm19.6.6c0 1.1.3 1.4.6.6.3-.7.2-1.6-.1-1.9-.3-.4-.6.2-.5 1.3zM959.5 22c-.3.5-.2 1 .4 1 .5 0 1.3-.5 1.6-1 .3-.6.2-1-.4-1-.5 0-1.3.4-1.6 1zm.5 2.9c0 .4 1.1.6 2.5.3 1.4-.2 2.5-.6 2.5-.8 0-.2-1.1-.4-2.5-.4s-2.5.4-2.5.9zm-8 4.1c0 .5.5 1 1 1 .6 0 1-.5 1-1 0-.6-.4-1-1-1-.5 0-1 .4-1 1zm-34.4 1.5c.4.9 1.7 1.5 3.3 1.4 1.7-.1 2-.3.9-.6-1-.2-1.8-.9-1.8-1.4 0-.5-.7-.9-1.5-.9-.9 0-1.2.6-.9 1.5zm11.9.5c-.3.5-.1 1 .4 1 .6 0 1.1-.5 1.1-1 0-.6-.2-1-.4-1-.3 0-.8.4-1.1 1zm-6.5 5c0 .5.5 1 1 1 .6 0 1-.5 1-1 0-.6-.4-1-1-1-.5 0-1 .4-1 1zm-6 2c0 .5.7 1 1.5 1s1.5-.5 1.5-1c0-.6-.7-1-1.5-1s-1.5.4-1.5 1zm-6.4.8c-.9.9-.7 4.2.3 4.2.5 0 1.2-.7 1.5-1.6.5-1.2 1.3-1.4 3.4-.9 1.5.4 2.4.4 2.1.1-1-1.1-6.7-2.5-7.3-1.8zM880 43c0 .5.5 1 1.1 1 .5 0 .7-.5.4-1-.3-.6-.8-1-1.1-1-.2 0-.4.4-.4 1zm12-.3c0 .5 2.6 1.6 5.8 2.7 3.1 1 6.4 2 7.2 2.3.9.3.7-.1-.4-.9-1.2-1-1.6-2-1.1-2.8.6-1-.1-1.2-3.3-.7-2.4.4-4.3.3-4.7-.3-.7-1.2-3.5-1.4-3.5-.3zm22 .3c0 .5.5 1 1 1 .6 0 1-.5 1-1 0-.6-.4-1-1-1-.5 0-1 .4-1 1zm-7.2.7c.7.3 1.6.2 1.9-.1.4-.3-.2-.6-1.3-.5-1.1 0-1.4.3-.6.6zm11.7.3c.3.5.8 1 1.1 1 .2 0 .4-.5.4-1 0-.6-.5-1-1.1-1-.5 0-.7.4-.4 1zm-34.6 2.1c-.8.5-.8.9 0 1.3.6.4 1.6.4 2.1.1 1.7-1 11.9.6 11.7 1.9-.1.6 1.3 1.2 3.1 1.4 1.8.2 3.2-.1 3.2-.7s-.9-1.1-1.9-1.1c-1.1 0-2.1-.4-2.3-1-.5-1.5-14-3.1-15.9-1.9zm6.2 6.5c0 1.1.3 1.4.6.6.3-.7.2-1.6-.1-1.9-.3-.4-.6.2-.5 1.3zm-5.1.3c0 .5.7 1.2 1.6 1.5 1.4.5 1.5.4.4-.9-1.4-1.7-2-1.9-2-.6zm-7.5 2.1c-.8 1.3-.1 2.4 1.4 1.9.6-.3.7-1 .2-1.8-.6-1-1-1-1.6-.1zm18.2.7c-.4.3-.7 1.1-.7 1.7 0 .6.5.5 1.2-.2.6-.6.9-1.4.7-1.7-.3-.3-.9-.2-1.2.2zM845 60.2c0 .7 3 1 15.2 1.2 2.1.1 3.8-.2 3.8-.7 0-.4-1.5-.7-3.2-.7-1.8-.1-6.1-.2-9.5-.4-3.5-.1-6.3.1-6.3.6zm24.5-.2c-.3.5.1 1 .9 1 .9 0 1.6-.5 1.6-1 0-.6-.4-1-.9-1-.6 0-1.3.4-1.6 1zm5.5 0c0 .5.7 1 1.5 1s1.5-.5 1.5-1c0-.6-.7-1-1.5-1s-1.5.4-1.5 1zm19 0c-.8.5-1.1 1.2-.7 1.6.4.4 1.3.2 1.9-.4 1.5-1.5.7-2.4-1.2-1.2zm-26.8 2.9c.2.7.7 1.2 1.1 1.2 1.2-.1.9-1.5-.3-2-.7-.2-1.1.2-.8.8zm-7.2.5c0 .2 1.1.6 2.5.8 1.3.3 2.2.1 1.9-.3-.5-.9-4.4-1.3-4.4-.5zm11.5.7c-1.1 1.6-.1 1.9 1.3.3.7-.8.8-1.4.3-1.4s-1.3.5-1.6 1.1zm6.3-.4c.7.3 1.6.2 1.9-.1.4-.3-.2-.6-1.3-.5-1.1 0-1.4.3-.6.6zM850 66c0 .5.9 1 2 1s2-.5 2-1c0-.6-.9-1-2-1s-2 .4-2 1zm41 1c0 .5.5 1 1 1 .6 0 1-.5 1-1 0-.6-.4-1-1-1-.5 0-1 .4-1 1zm-45 1.5c0 .8.5 1.5 1 1.5.6 0 1-.7 1-1.5s-.4-1.5-1-1.5c-.5 0-1 .7-1 1.5zm23.8 3.2c.7.3 1.6.2 1.9-.1.4-.3-.2-.6-1.3-.5-1.1 0-1.4.3-.6.6zM843 73.5c0 .8.2 1.5.4 1.5s.6-.7 1-1.5c.3-.8.1-1.5-.4-1.5-.6 0-1 .7-1 1.5zm4.8-.8c.7.3 1.6.2 1.9-.1.4-.3-.2-.6-1.3-.5-1.1 0-1.4.3-.6.6zm-9.8 2.1c2.3 4.1 2.7 4.3 2.7 1.4 0-2-.6-2.8-1.9-2.9-1.4-.1-1.6.2-.8 1.5zm4.7 4.1c-.3 1.4 0 2.1.9 2.1 1.6 0 1.8-.9.5-2.8-.6-1-1-.9-1.4.7zm-19.2.1c-.3.5-.1 1 .4 1 .6 0 1.1-.5 1.1-1 0-.6-.2-1-.4-1-.3 0-.8.4-1.1 1zm23 1c-.3.5-.1 1 .4 1 .6 0 1.1-.5 1.1-1 0-.6-.2-1-.4-1-.3 0-.8.4-1.1 1zm-27.9 4.5c-1.1.8-1.7 1.7-1.4 2.1.8.8 4.8-1.4 4.8-2.6 0-1.4-1.2-1.2-3.4.5zM809 86c0 .5.7 1 1.6 1 .8 0 1.2-.5.9-1-.3-.6-1-1-1.6-1-.5 0-.9.4-.9 1zm13.5 1c-.3.5-.1 1 .4 1 .6 0 1.1-.5 1.1-1 0-.6-.2-1-.4-1-.3 0-.8.4-1.1 1zm-22.8 2.7c.7 1.8 3.2 2.4 4 .9.5-.8 1.7-1.6 2.8-1.9 1.1-.2-.1-.4-2.6-.3-3.1.1-4.5.5-4.2 1.3zm16-.6c.7.7 1.5 1 1.8.7.3-.3-.2-.9-1.2-1.2-1.4-.6-1.5-.5-.6.5zm-10.1 2.8c-1.2.5-1.5 1-.9 1.4.6.4 1.6 0 2.3-.8 1.4-1.7 1.3-1.7-1.4-.6zM790 94c0 .6.7 1 1.5 1h2c1.6 0 .6-1.4-1.2-1.6-1.3-.2-2.3.1-2.3.6zm6 0c0 .5.5 1 1 1 .6 0 1-.5 1-1 0-.6-.4-1-1-1-.5 0-1 .4-1 1zm3 .1c0 .5.5.7 1 .4.6-.3 1-.8 1-1.1 0-.2-.4-.4-1-.4-.5 0-1 .5-1 1.1zm-36 7.9c0 .5.5 1 1 1 .6 0 1-.5 1-1 0-.6-.4-1-1-1-.5 0-1 .4-1 1zm-3.3 1.6c-.4.4-.7 1.9-.6 3.3v2.6l1-2.4c1-2.6.8-4.7-.4-3.5zm22.3.4c.8.5 2 1 2.5 1 .6 0 .3-.5-.5-1s-1.9-1-2.5-1c-.5 0-.3.5.5 1zm-7.7.6c2.4.8 2.1 2.2-.5 2.7-2.1.3-2.1.4-.4 1.2 1.2.5 2.1.3 2.7-.6 1.2-2 .6-3.4-1.7-3.6-1.6-.2-1.6-.1-.1.3zM755 106c0 .5.5 1 1 1 .6 0 1-.5 1-1 0-.6-.4-1-1-1-.5 0-1 .4-1 1zm-5.3.6c-1.1 1.1.3 2.4 2.5 2.4 1.7 0 1.8-.2.8-1.5-1.3-1.6-2.3-1.9-3.3-.9zm-7 2.3c-1.7 1.8-1.7 1.9.8 3.5 1.4.9 2.5 1.2 2.5.6 0-.5.8-1 1.8-1 1.5-.1 1.5-.2-.3-1.6-1.1-.8-1.9-1.8-1.7-2.2.7-1.4-1.4-1-3.1.7zm37.5 1.1c0 1.4.2 1.9.5 1.2.2-.6.2-1.8 0-2.5-.3-.6-.5-.1-.5 1.3zm-24.2-.7c0 .3 1.2 1.2 2.6 2.2 1.5.9 2.3 1.2 2 .6-.7-1.1-4.6-3.5-4.6-2.8zm6 .7c0 .5.5 1 1 1 .6 0 1-.5 1-1 0-.6-.4-1-1-1-.5 0-1 .4-1 1zm12 1c-2.3.7-2.3.8-.3.9 1.2.1 2.5-.4 2.8-.9.3-.6.5-1 .3-.9-.2.1-1.4.5-2.8.9zm-41 4.5c0 .8-.5 1.5-1.1 1.5-.5 0-.7.4-.4 1 .9 1.5 2.5 1.2 2.5-.5 0-.8.5-1.5 1-1.5.6 0 1-.5 1-1 0-.6-.7-1-1.5-1s-1.5.7-1.5 1.5zm-17 6c0 1.7.2 1.8 2.4.9 2.3-.9 2-2.4-.4-2.4-1.1 0-2 .7-2 1.5zm12-.4c0 .5.5.7 1 .4.6-.3 1-.8 1-1.1 0-.2-.4-.4-1-.4-.5 0-1 .5-1 1.1zm-5 .9c0 .5.5 1 1 1 .6 0 1-.5 1-1 0-.6-.4-1-1-1-.5 0-1 .4-1 1zm-15.9 4.6c1.3 1.6 2.9 1.9 2.9.5 0-.5-.9-1.1-2.1-1.4-1.6-.4-1.8-.3-.8.9zm8.9-.6c0 .5.5 1 1 1 .6 0 1-.5 1-1 0-.6-.4-1-1-1-.5 0-1 .4-1 1zm14.8-.3c.7.3 1.6.2 1.9-.1.4-.3-.2-.6-1.3-.5-1.1 0-1.4.3-.6.6zm-34 2c.7.3 1.6.2 1.9-.1.4-.3-.2-.6-1.3-.5-1.1 0-1.4.3-.6.6zm6.8 7.8c-.3.9 0 1.5.9 1.5s1.2-.6.9-1.5c-.4-.8-.7-1.5-.9-1.5-.2 0-.5.7-.9 1.5zm-17.5-.1c.2.2 2.2.6 4.4.9 2.8.5 3.4.4 2-.3-1.9-.8-7.3-1.4-6.4-.6zm-.3 3.3c.7.3 1.6.2 1.9-.1.4-.3-.2-.6-1.3-.5-1.1 0-1.4.3-.6.6zm16.8.2c-.4.7-.5 1.5-.2 1.8.9.9 1.9-.4 1.4-1.8-.4-1.1-.6-1.1-1.2 0zm-28.6 3.8c0 .5.9 1.4 2 2.1 1.1.7 2 .8 2 .2 0-.5-.9-1.4-2-2-1.1-.6-2-.7-2-.3zm23.8 1c.7.3 1.6.2 1.9-.1.4-.3-.2-.6-1.3-.5-1.1 0-1.4.3-.6.6zm-26.6 7.9c-.7.8-.8 1.4-.3 1.4 1 0 2.5-1.9 2-2.5-.2-.1-1 .3-1.7 1.1zm5.3-.6c-.3.5-.1 1 .4 1 .6 0 1.1-.5 1.1-1 0-.6-.2-1-.4-1-.3 0-.8.4-1.1 1zm-4.5 4.6c0 .8.5 1.2 1 .9.6-.3 1-1 1-1.6 0-.5-.4-.9-1-.9-.5 0-1 .7-1 1.6zm-13 2.4c0 1.1.5 2 1 2 .6 0 1-.9 1-2s-.4-2-1-2c-.5 0-1 .9-1 2zm5 1c0 .5.5 1 1.1 1 .5 0 .7-.5.4-1-.3-.6-.8-1-1.1-1-.2 0-.4.4-.4 1zm-28 3.5c0 .8.7 1.5 1.5 1.5s1.5-.7 1.5-1.5-.7-1.5-1.5-1.5-1.5.7-1.5 1.5zm20-.5c0 .5.5 1 1.1 1 .5 0 .7-.5.4-1-.3-.6-.8-1-1.1-1-.2 0-.4.4-.4 1zm-14.4 3.5c-.9 2.3-.8 2.5.9 2.5 1.7 0 1.9-.9.6-2.8-.7-1.1-1-1-1.5.3zm6.4.5c0 .5.9 1 2 1s2-.5 2-1c0-.6-.9-1-2-1s-2 .4-2 1zm10 0c0 .5.7.7 1.5.4.8-.4 1.5-.8 1.5-1 0-.2-.7-.4-1.5-.4s-1.5.4-1.5 1zm-4.5 2c-1.6.7-1.7.9-.3.9.9.1 2-.4 2.3-.9.7-1.1.7-1.1-2 0zm-12.3 3.2c.3.7 1.3 1.5 2.2 1.6 1.2.3 1.7-.1 1.4-1-.3-.7-1.3-1.5-2.2-1.6-1.2-.3-1.7.1-1.4 1zm-7.9 4.3c-1.6 1.7-1.7 3.5-.3 3.5.6 0 1-.7 1-1.5s.7-1.5 1.5-1.5 1.5-.5 1.5-1c0-1.5-2.3-1.2-3.7.5zm6.7 1.5c0 .5.5 1 1 1 .6 0 1-.5 1-1 0-.6-.4-1-1-1-.5 0-1 .4-1 1zm7.2 5c0 1.4.2 1.9.5 1.2.2-.6.2-1.8 0-2.5-.3-.6-.5-.1-.5 1.3zm-20.2 1c0 .5.7 1 1.6 1 .8 0 1.2-.5.9-1-.3-.6-1-1-1.6-1-.5 0-.9.4-.9 1zm-7 2.6c0 1.7 2.2 1.4 2.8-.4.2-.7-.3-1.2-1.2-1.2-.9 0-1.6.7-1.6 1.6zm9 .4c0 .5.5 1 1.1 1 .5 0 .7-.5.4-1-.3-.6-.8-1-1.1-1-.2 0-.4.4-.4 1zm-11.5 3c.3.5 1 1 1.6 1 .5 0 .9-.5.9-1 0-.6-.7-1-1.6-1-.8 0-1.2.4-.9 1zm-9.5 4.7c0 .8.9.9 3.1.3 4.6-1.3 4.8-2.1.6-1.8-2 .2-3.7.8-3.7 1.5zm14-.7c0 .5.5 1 1.1 1 .5 0 .7-.5.4-1-.3-.6-.8-1-1.1-1-.2 0-.4.4-.4 1zm-5 1c0 .5.5 1 1 1 .6 0 1-.5 1-1 0-.6-.4-1-1-1-.5 0-1 .4-1 1zm6.1 3.6c0 1.1.3 1.4.6.6.3-.7.2-1.6-.1-1.9-.3-.4-.6.2-.5 1.3zm-15.1.4c0 .5.5 1 1 1 .6 0 1-.5 1-1 0-.6-.4-1-1-1-.5 0-1 .4-1 1zm8.1 1.6c0 1.1.3 1.4.6.6.3-.7.2-1.6-.1-1.9-.3-.4-.6.2-.5 1.3zm-18.8.3c-1.5.9-2.4 5.9-1.3 6.6.6.4 1-.5 1-1.9 0-1.6.6-2.6 1.5-2.6.8 0 1.5.4 1.5 1 0 .5.5 1 1.1 1 .6 0 .9-.7.5-1.5-.3-.9 0-1.5 1-1.5.8 0 1.3-.4 1-.9-.6-1-4.9-1.2-6.3-.2zm9.2 3.1c-.3.5-.1 1 .4 1 .6 0 1.1-.5 1.1-1 0-.6-.2-1-.4-1-.3 0-.8.4-1.1 1zm-6.5 6.1c0 .5.5.7 1 .4.6-.3 1-.8 1-1.1 0-.2-.4-.4-1-.4-.5 0-1 .5-1 1.1zm-23 1.9c-1.3.8-1.2 1 .3 1 .9 0 1.7-.5 1.7-1 0-1.2-.1-1.2-2 0zm2.6 2.6c-.5 1.4-.4 1.5.9.4 1.2-1 1.9-1 2.8-.1.9.9.7 1.3-1.1 1.7-2.1.6-3.2 2.4-1.4 2.4 1.4 0 5.3-4.6 4.5-5.3-1.3-1.3-5.1-.7-5.7.9zm-3.7.6c-.2 2.4.3 8.3.7 8.7 1.1 1.2 1.4-1.1.6-4.3-.7-2.4-.7-3.6.1-3.9.8-.2.7-.6-.1-1.1-.7-.4-1.2-.2-1.3.6zm14.6 7.8c.3.5.8 1 1.1 1 .2 0 .4-.5.4-1 0-.6-.5-1-1.1-1-.5 0-.7.4-.4 1zm-7.5 1c0 .5.5 1 1.1 1 .5 0 .7-.5.4-1-.3-.6-.8-1-1.1-1-.2 0-.4.4-.4 1zm-19 2.6c0 1.4.3 1.4 1.5.4.8-.7 1.5-1.4 1.5-1.6 0-.2-.7-.4-1.5-.4s-1.5.7-1.5 1.6zm5.3-.9c1.1.7.9 3.3-.3 3.3-.5 0-1 .8-1 1.7.1 1.7.1 1.7 1.4 0 .7-.9 1.8-1.7 2.5-1.7.6 0 1.1-.7 1.1-1.5s-.4-1.5-.9-1.5-1.5-.2-2.3-.3c-.7-.2-1-.2-.5 0zm-9.3 6.2c0 .5 1 1.1 2.3 1.5 3.6.9 4.2.7 2.1-.9s-4.4-1.9-4.4-.6zm5.5 6.1c-.3.5.1 1 .9 1 .9 0 1.6-.5 1.6-1 0-.6-.4-1-.9-1-.6 0-1.3.4-1.6 1zm-19.8.7c-.2.4-.3 2.4-.3 4.3.1 2.4.6 3.5 1.6 3.5 1.1 0 1.5-1.1 1.4-3.9-.1-3.6-1.6-5.9-2.7-3.9zm12.1 1c.7.3 1.6.2 1.9-.1.4-.3-.2-.6-1.3-.5-1.1 0-1.4.3-.6.6zm-15.2 5c-.4.9-.2 2.1.4 2.7.7.7 1 .2 1-1.7 0-3.1-.5-3.4-1.4-1zm8.5-.2c-.1 2.5 1.5 5.2 2.6 4.2.4-.5.2-1.1-.4-1.5-.6-.4-1.3-1.6-1.6-2.7l-.5-2-.1 2zm5.7.2c.6.2 1.8.2 2.5 0 .6-.3.1-.5-1.3-.5-1.4 0-1.9.2-1.2.5zM568 245c0 .5.5 1 1.1 1 .5 0 .7-.5.4-1-.3-.6-.8-1-1.1-1-.2 0-.4.4-.4 1zm-20.2 3.7c.7.3 1 1.4.6 2.9-.8 3 .7 3.1 2.4.3 1.6-2.5 1.5-2.6-1.8-3.2-1.4-.2-1.9-.2-1.2 0zm19.3.9c0 1.1.3 1.4.6.6.3-.7.2-1.6-.1-1.9-.3-.4-.6.2-.5 1.3zm-23.1 1.9c0 .8.2 1.5.4 1.5s.6-.7 1-1.5c.3-.8.1-1.5-.4-1.5-.6 0-1 .7-1 1.5zm10.6.3c-1.4 1.3-.4 2.2 2.5 2.2 1.6 0 2.8-.4 2.5-.9-.7-1.1-4.3-2.1-5-1.3zm-11.1 3.1c-.3.5.3 1.7 1.2 2.7 1.1 1.1 1.8 1.3 2.1.5.9-2.8-1.8-5.5-3.3-3.2zm6.2.8c-1.3 1.3-.7 3.2.8 2.7.8-.4 1.5-1.2 1.5-2 0-1.5-1.2-1.9-2.3-.7zm7.3 2.3c1.9 1.3 3 1.3 3 0 0-.6-1-1-2.2-1-1.9 0-2 .2-.8 1zm-5 2c0 .5.5 1 1 1 .6 0 1-.5 1-1 0-.6-.4-1-1-1-.5 0-1 .4-1 1zm-13.8 1.6c.4 2.1 2.2 2.3 2.6.1.2-1-.3-1.7-1.3-1.7s-1.5.6-1.3 1.6zm6.8.4c0 .5.5 1 1 1 .6 0 1-.5 1-1 0-.6-.4-1-1-1-.5 0-1 .4-1 1zm4 0c0 .5.5 1 1 1 .6 0 1-.5 1-1 0-.6-.4-1-1-1-.5 0-1 .4-1 1zm5 2c0 .5.7.7 1.5.4.8-.4 1.5-.8 1.5-1 0-.2-.7-.4-1.5-.4s-1.5.4-1.5 1zm-20 3c0 .5.5 1 1 1 .6 0 1-.5 1-1 0-.6-.4-1-1-1-.5 0-1 .4-1 1zm-6 3.1c0 2.5 3.3 2.2 3.8-.4.2-1.2-.3-1.7-1.7-1.7-1.5 0-2.1.6-2.1 2.1zm11 1.9c.8.5 2.4.9 3.5.9h2l-2-.9c-1.1-.5-2.7-.9-3.5-.9-1.3-.1-1.3 0 0 .9zm-6.4 3.3c-.5 2.1-.6 4.1-.2 4.4 1.2 1.2 1.7-.5 1.4-4.3l-.4-3.9-.8 3.8zm-.7 7.8c-1 .6-.7.9 1.4.9 2.9 0 3.5-.5 1.4-1.3-.8-.3-2-.1-2.8.4zm-16.4.8c-.3.5-.1 1.2.5 1.6 1.2.7 3-.2 3-1.6 0-1.2-2.7-1.2-3.5 0zm23.3-.2c.6.2 1.8.2 2.5 0 .6-.3.1-.5-1.3-.5-1.4 0-1.9.2-1.2.5zm-11.8 2.8c-.9 1-.9 1.5-.1 1.5.6 0 1.1-.4 1.1-.9s.9-.7 2-.4c1.1.3 2 0 2-.6 0-1.6-3.6-1.3-5 .4zM498 300c0 .5.5 1 1 1 .6 0 1-.5 1-1 0-.6-.4-1-1-1-.5 0-1 .4-1 1zm14.1 4.6c0 1.1.3 1.4.6.6.3-.7.2-1.6-.1-1.9-.3-.4-.6.2-.5 1.3zm-21.1 1.9c0 1.6.6 2.5 1.6 2.5 1.3 0 1.4-.3.4-1.5-.6-.8-.9-1.9-.5-2.5.3-.5.1-1-.4-1-.6 0-1.1 1.1-1.1 2.5zm-1.3 6.3c-2.2 2.5-2.1 3.1.3 2.5 2.5-.7 4.8-4.3 2.7-4.3-.8 0-2.1.8-3 1.8zm13.9-.9c-.3.4.6.6 1.9.3 1.4-.2 2.5-.6 2.5-.8 0-.8-3.9-.4-4.4.5zm-21.6 3.6c0 1.7.2 1.8 2.4.9 2.3-.9 2-2.4-.4-2.4-1.1 0-2 .7-2 1.5zm-15.3 6.5c.3 1.1.7 2 .9 2 .2 0 .8-.9 1.4-2 .9-1.7.8-2-.9-2-1.4 0-1.8.5-1.4 2zm5 .1c.4 1.3.8 1.8 1.1 1 .2-.7-.1-1.8-.6-2.3-.8-.8-.9-.4-.5 1.3zm23.1-1.4c.7.3 1.6.2 1.9-.1.4-.3-.2-.6-1.3-.5-1.1 0-1.4.3-.6.6zm-34.4 6.9c.3.9.6 1.8.6 2 0 .3.4.3 1-.1 1.1-.7.2-3.5-1.2-3.5-.6 0-.7.7-.4 1.6zm5.9-.2c-.6.7-.7 1.9-.3 2.6.6.9 1.1.7 1.9-.8 1.8-3.4.8-4.5-1.6-1.8zm13.7-.5c0 .5.7 1.1 1.4 1.4 1 .4 1.3.1.9-.9-.6-1.5-2.3-1.9-2.3-.5zm-9 2.1c0 .5.4 1 .9 1 .6 0 1.3-.5 1.6-1 .3-.6-.1-1-.9-1-.9 0-1.6.4-1.6 1zm-10 4c0 .5.5 1 1 1 .6 0 1-.5 1-1 0-.6-.4-1-1-1-.5 0-1 .4-1 1zm-3.4 1.8c-.7 1.2.4 5.2 1.5 5.2.5 0 .6-1.2.3-2.8-.8-3.3-1-3.6-1.8-2.4zm4.4 2c0 .5.7 1.3 1.6 1.6 1 .4 1.4.1 1.2-.6-.5-1.5-2.8-2.3-2.8-1zm5 3.3c0 .5.5.7 1 .4.6-.3 1-.8 1-1.1 0-.2-.4-.4-1-.4-.5 0-1 .5-1 1.1zm-18.4 2.1c-2.1.8-2.5 1.3-1.5 1.9 1.9 1.2 4.2 1.1 3.4-.1-.4-.6.7-1 2.4-1 3 0 4.2 1.3 2.1 2.3-.6.3-.5.4.2.3.7-.2 2.1.1 3.1.6 1.2.6 1.7.5 1.7-.7 0-.8-.7-1.5-1.5-1.5s-1.5-.6-1.5-1.3c0-1.5-4.6-1.8-8.4-.5zm15.4-.1c0 .5.5.7 1 .4.6-.3 1-.8 1-1.1 0-.2-.4-.4-1-.4-.5 0-1 .5-1 1.1zm-19 4.7c0 1.5 2.2 3 3.7 2.5.8-.3 2.5 0 3.9.7 1.9 1.1 2.7 1.1 3.6.2.9-.9.6-1.2-1.4-1.2-1.4 0-2.8-.7-3.2-1.5-.6-1.5-6.6-2.2-6.6-.7zm15 4.2c0 .5.5 1 1 1 .6 0 1-.5 1-1 0-.6-.4-1-1-1-.5 0-1 .4-1 1zm7 1.9c0 1.2.5 2.1 1 2.1.6 0 1-.6 1-1.4 0-.8-.4-1.8-1-2.1-.5-.3-1 .3-1 1.4zm-29.2 14.8c-2.5.4-2.8.8-2.8 4.4 0 2.2.5 3.9 1.1 3.9.6 0 .9-.9.6-1.9-.6-2.6 1-5.1 2.2-3.3.6 1 1 .7 1.3-1.2.3-1.4.5-2.5.4-2.5 0 .1-1.3.4-2.8.6zm-6 5.3c-.3 1.6-.1 3 .4 3 .4 0 .8-1.4.8-3 0-1.7-.2-3-.4-3s-.6 1.3-.8 3zm-5.6 3.6c.3 1.7 2.1 2.1 2.6.6.1-.5-.4-1.2-1.3-1.6-1.1-.4-1.5-.1-1.3 1zm7.6 5.1c1.2.2 3 .2 4 0 .9-.3-.1-.5-2.3-.4-2.2 0-3 .2-1.7.4zm-5.7 3.9c0 1.1.3 1.4.6.6.3-.7.2-1.6-.1-1.9-.3-.4-.6.2-.5 1.3zm6.7.1c.7.3 1.6.2 1.9-.1.4-.3-.2-.6-1.3-.5-1.1 0-1.4.3-.6.6zm-5.8 7.2c0 .6.5 1.3 1 1.6.6.3 1-.1 1-.9 0-.9-.4-1.6-1-1.6-.5 0-1 .4-1 .9zm8 .1c0 .5.5 1 1.1 1 .5 0 .7-.5.4-1-.3-.6-.8-1-1.1-1-.2 0-.4.4-.4 1zm-25 1c0 .5.7 1 1.6 1 1.3 0 1.4.3.5 1.4-1.7 2 .5 3.1 2.4 1.2 1.9-1.9 1.9-3.2-.1-4-2.4-.9-4.4-.7-4.4.4zm5.3 6.5c-.6 1.4-.9 2.5-.6 2.5 1.2 0 5.2-3.8 4.6-4.4-1.3-1.3-2.8-.5-4 1.9zm13.7-1.4c0 .5.5.7 1 .4.6-.3 1-.8 1-1.1 0-.2-.4-.4-1-.4-.5 0-1 .5-1 1.1zm-7.5 2.1c.4 1.1.2 1.8-.5 1.8-.6 0-.8.5-.4 1.1.5.8 1 .6 1.6-.6.7-1.1.6-2.1-.2-2.8-.8-.9-1-.8-.5.5zm-6 3.8c-.3.5-1.1.7-1.8.5-1.5-.6-7.7 3.1-7.7 4.5s1.1 1.2 2.4-.4c.6-.8 2.2-1.7 3.5-2.1 2-.6 2.3-.4 1.7 1-.5 1.3 0 1.1 1.9-.6 1.3-1.3 2.5-2.7 2.5-3.2 0-1-1.8-.9-2.5.3zm3.3 2.7c.7.3 1.6.2 1.9-.1.4-.3-.2-.6-1.3-.5-1.1 0-1.4.3-.6.6zm-9.3 4.3c.3.5 1 1 1.6 1 .5 0 .9-.5.9-1 0-.6-.7-1-1.6-1-.8 0-1.2.4-.9 1zm-.7 3.7c.7.3 1.6.2 1.9-.1.4-.3-.2-.6-1.3-.5-1.1 0-1.4.3-.6.6zm3.7 3.3c-.3.5-.1 1 .4 1 .6 0 1.1-.5 1.1-1 0-.6-.2-1-.4-1-.3 0-.8.4-1.1 1zm-8.3 1.3c-1 1.2-.9 1.6.4 2.1 2.1.8 2.3.6 1.5-1.7-.6-1.7-.9-1.7-1.9-.4zm3.3-.3c.4.6 1.1.8 1.6.5 1.4-.9 1.1-1.5-.7-1.5-.8 0-1.2.5-.9 1zm-19.5 1.9c0 .6.5 1.3 1 1.6.6.3 1-.1 1-.9 0-.9-.4-1.6-1-1.6-.5 0-1 .4-1 .9zm10 .6c0 .8.5 1.5 1 1.5.6 0 1-.7 1-1.5s-.4-1.5-1-1.5c-.5 0-1 .7-1 1.5zm-6 .4c0 .5-.3 1.6-.6 2.5-.3.9-.1 1.6.5 1.6s1.1-.7 1.1-1.5c0-.9.9-1.5 2.3-1.5 1.8 0 1.9-.2.7-1-1.9-1.2-4-1.3-4-.1zm-5.3 2.8c-1.3 1.2-.7 2.3 1.3 2.3 1.1 0 2-.7 2-1.5 0-1.5-2.1-2.1-3.3-.8zm13.8 2.3c.4.6 1.1.8 1.6.5 1.4-.9 1.1-1.5-.7-1.5-.8 0-1.2.5-.9 1zm-6.5.8c0 1.4 1.1 2.1 2.6 1.5 2.1-.8 1.7-2.3-.6-2.3-1.1 0-2 .4-2 .8zm2.6 4.7c-.3.8-.1 1.5.3 1.5.5 0 1.1-.7 1.5-1.5.3-.8.1-1.5-.3-1.5-.5 0-1.1.7-1.5 1.5zm-9.1 7.5c-.3.5.1 1 .9 1 .9 0 1.6-.5 1.6-1 0-.6-.4-1-.9-1-.6 0-1.3.4-1.6 1zm2.5 3c0 .5.7 1 1.6 1 .8 0 1.2-.5.9-1-.3-.6-1-1-1.6-1-.5 0-.9.4-.9 1zm-7 1.4c0 .9 4 1.3 4.6.5.3-.5-.6-.9-2-.9s-2.6.2-2.6.4zm14 5.6c0 .5.5 1 1.1 1 .5 0 .7-.5.4-1-.3-.6-.8-1-1.1-1-.2 0-.4.4-.4 1zm-18 .9c0 .5-.3 1.6-.6 2.5-.3.9-.1 1.6.5 1.6s1.1-.7 1.1-1.5c0-1.8 1.7-2 2.2-.3.2.6.9.8 1.6.4 1.8-1.1.2-3.6-2.4-3.6-1.3 0-2.4.4-2.4.9zm15 2.1c0 1.1.4 2 .9 2s.7-.9.4-2c-.3-1.1-.7-2-.9-2-.2 0-.4.9-.4 2zm-10.8 3.5c-1.6 1.9-.3 1.9 2.2 0 1.4-1.1 1.6-1.5.5-1.5-.8.1-2 .7-2.7 1.5zm-6.5 1.1c-1.3 1.3-.7 2.4 1.4 2.4 1.1 0 1.9-.5 1.7-1.2-.5-1.4-2.2-2.1-3.1-1.2zm11.8 4.3c-.3.5-.1 1.2.5 1.6.5.3 1-.1 1-.9 0-1.8-.6-2.1-1.5-.7zm-12 2.1c-.3.5-.1 1 .4 1 .6 0 1.1-.5 1.1-1 0-.6-.2-1-.4-1-.3 0-.8.4-1.1 1zm5.7 8.8c0 1.8.7 3.3 2 4.1 2.6 1.6 3.4.7 2-2.3-.7-1.7-.7-2.7.1-3.5.8-.8.4-1.1-1.4-1.1-2.2 0-2.6.5-2.7 2.8zm6.8-.7c0 .5.5.7 1 .4.6-.3 1-.8 1-1.1 0-.2-.4-.4-1-.4-.5 0-1 .5-1 1.1zm.2 6.8c-1 .6-1 1 .3 2.1s1.5.9 1.5-.9c0-2.4 0-2.4-1.8-1.2zm7.9 3.7c0 1.1.3 1.4.6.6.3-.7.2-1.6-.1-1.9-.3-.4-.6.2-.5 1.3zm-7.5 4c-.9 2.2-.7 4.4.2 4.4.5 0 .9-1.4.9-3 0-3.4-.2-3.7-1.1-1.4zm3.3 1.9c1.7 3.4 3.1 5.1 3.1 3.9 0-.7-.9-2.2-2.1-3.5-1.6-1.9-1.8-2-1-.4zM379.5 504c-.3.5-.3 1.5.1 2.1.6 1.1 2.3-.6 2.4-2.4 0-1-1.8-.9-2.5.3zm-2 7c-.4.6-.2 1.7.4 2.3 1.5 1.5 2.5.2 1.3-1.9-.7-1.2-1.1-1.3-1.7-.4zm-2.4 2.6c0 1.1.3 1.4.6.6.3-.7.2-1.6-.1-1.9-.3-.4-.6.2-.5 1.3zm.9 4c0 .8-.4 1.3-.9.9-.5-.3-1.2-.1-1.6.5-.9 1.4 1.7 1.2 3.8-.4 2.1-1.6 2.2-2.6.2-2.6-.8 0-1.5.7-1.5 1.6zm8.8 2.1c.7.3 1.6.2 1.9-.1.4-.3-.2-.6-1.3-.5-1.1 0-1.4.3-.6.6zM374 524c0 .5.5 1 1 1 .6 0 1-.5 1-1 0-.6-.4-1-1-1-.5 0-1 .4-1 1zm2 9.5c0 .9.6 1.2 1.5.9.8-.4 1.2-1 .9-1.5-.8-1.4-2.4-1-2.4.6zm-8 5.5c0 .5.7.7 1.5.4.8-.4 1.5-.8 1.5-1 0-.2-.7-.4-1.5-.4s-1.5.4-1.5 1zm5-.6c0 .2.7.6 1.5 1 .8.3 1.5.1 1.5-.4 0-.6-.7-1-1.5-1s-1.5.2-1.5.4zm11.5 4.6c.3.5 1.3 1 2.1 1s1.4-.5 1.4-1c0-.6-.9-1-2.1-1-1.1 0-1.7.4-1.4 1zm2.5 7c0 .5.5 1 1 1 .6 0 1-.5 1-1 0-.6-.4-1-1-1-.5 0-1 .4-1 1zm15.8 1.7c.6.2 1.8.2 2.5 0 .6-.3.1-.5-1.3-.5-1.4 0-1.9.2-1.2.5zm-16.2 3.8c-.4 2-1.1 3.3-1.7 3-1.2-.8-1.1.6.1 2.5 1.3 2 2.1.9 2.7-3.9.6-4.5 1.9-5.4 2.6-1.9.4 2 .4 1.9.6-.5.1-2-.4-2.7-1.8-2.7s-2.1 1-2.5 3.5zm-5.6-.4c0 .5.5.7 1 .4.6-.3 1-.8 1-1.1 0-.2-.4-.4-1-.4-.5 0-1 .5-1 1.1zm-3.2.5c-1.6 1.6-.8 4.4 1.2 4.4 2.2 0 2.6 1 .9 2.7-1.4 1.4-.8 3.5.8 2.5.6-.4 1.3-2.1 1.5-3.7.2-2.4-.1-2.9-1.4-2.7-1 .2-1.8-.5-2-1.9-.2-1.1-.6-1.7-1-1.3zm-13.3 7.4c.3.5.8 1 1.1 1 .2 0 .4-.5.4-1 0-.6-.5-1-1.1-1-.5 0-.7.4-.4 1zm19.5 2c0 .5.7.7 1.5.4.8-.4 1.5-.8 1.5-1 0-.2-.7-.4-1.5-.4s-1.5.4-1.5 1zm-19 1c0 .5.7 1 1.6 1 .8 0 1.2-.5.9-1-.3-.6-1-1-1.6-1-.5 0-.9.4-.9 1zm20.6 2.9c-.3.5.1 1.4.8 2 1.6 1.3 3.2-.2 2.1-1.9-.8-1.2-2.2-1.3-2.9-.1zm5.6 2.1c0 1.9.2 2.7.5 1.7.2-.9.2-2.5 0-3.5-.3-.9-.5-.1-.5 1.8zm-20.2 1.7c0 2.8.3 3.4 1 2.3 1.3-2 1.3-6 0-6-.5 0-1 1.7-1 3.7zm16 2.3c0 .5.5 1 1.1 1 .5 0 .7-.5.4-1-.3-.6-.8-1-1.1-1-.2 0-.4.4-.4 1zm-11.9 1.8c-.1.9-.8 1.1-2.1.7-1.4-.4-2-.2-2 .8 0 .8 1.1 1.8 2.5 2.1 1.4.4 2.5 1.3 2.5 2.1s.5 1.5 1 1.5c.6 0 1-.7 1-1.5s.9-1.5 2-1.5 2 .7 2 1.5c0 1.7 1.6 2 2.4.6 1.1-1.8-.6-4.2-2.5-3.6-2.6.9-5.7-.3-6.2-2.3-.3-.9-.5-1.1-.6-.4zm10.9 1.6c0 .9.5 1.6 1 1.6.6 0 1-.4 1-.9 0-.6-.4-1.3-1-1.6-.5-.3-1 .1-1 .9zm3.5 6.6c.3.5.8 1 1.1 1 .2 0 .4-.5.4-1 0-.6-.5-1-1.1-1-.5 0-.7.4-.4 1zm6.1.5c.4.8.8 1.5 1 1.5.2 0 .4-.7.4-1.5s-.4-1.5-1-1.5c-.5 0-.7.7-.4 1.5zm-10.6 1c0 .8.5 1.5 1 1.5.6 0 1-.7 1-1.5s-.4-1.5-1-1.5c-.5 0-1 .7-1 1.5zm-5 3.5c0 1.1.5 2 1 2 .6 0 1-.9 1-2s-.4-2-1-2c-.5 0-1 .9-1 2zm21 1.4c0 1.7 1.4 2.9 2.3 2 .8-.8-.3-3.4-1.4-3.4-.5 0-.9.6-.9 1.4zm-12 2.6c0 .5.7 1 1.5 1s1.5-.5 1.5-1c0-.6-.7-1-1.5-1s-1.5.4-1.5 1zm-6 11c0 .5.6 1 1.4 1 .8 0 1.8-.5 2.1-1 .3-.6-.3-1-1.4-1-1.2 0-2.1.4-2.1 1zm-3 4c0 .5.5 1 1 1 .6 0 1-.5 1-1 0-.6-.4-1-1-1-.5 0-1 .4-1 1zm0 6c0 .5.5 1 1 1 .6 0 1-.5 1-1 0-.6-.4-1-1-1-.5 0-1 .4-1 1zm6 1.9c0 .5.9 1.1 2 1.4 1.1.3 2 1.2 2 2.1 0 2.3 1.7 2 2.3-.4.3-1.3 0-2-.9-2-.8 0-1.4-.5-1.4-1 0-.6-.9-1-2-1s-2 .4-2 .9zm7 6.1c-1.1.7-1.2 1-.2 1 .7 0 1 .4.7 1-.3.5 0 1 .9 1 .8 0 1.3-.7 1.2-1.5-.3-2.1-1-2.5-2.6-1.5zm-3 3.9c0 1.1 1.9 2.5 3.5 2.7.6 0 1.6.2 2.3.2.7.1 1.1.6.8 1.1-.3.5.3 1.1 1.5 1.4 1.6.4 1.8.3.8-.9-.8-1-.8-1.4 0-1.4.6 0 1.1-.5 1.1-1 0-.6-1.8-1-4-1s-4-.5-4-1c0-.6-.4-1-1-1-.5 0-1 .4-1 .9zm5.7 7.8c-1.5 1.5-.7 4.3 1.3 4.3 1.1 0 2 .5 2 1.2 0 .6.3.9.6.6.5-.6-2.2-6.8-3-6.8-.1 0-.6.3-.9.7zm1.3 10.8c0 .9.6 1.2 1.5.9.8-.4 1.5-1 1.5-1.5s-.7-.9-1.5-.9-1.5.7-1.5 1.5zm12-.1c0 .8.5 1.8 1 2.1.6.3 1-.3 1-1.4 0-1.2-.4-2.1-1-2.1-.5 0-1 .6-1 1.4zm-11 3.5c0 .6.5 1.3 1 1.6.6.3 1 .2 1-.4 0-1.3 3-.7 4 .8.4.8 1.3 1 1.9.6.9-.5.9-1 0-2.1-1.3-1.6-7.9-1.9-7.9-.5zm3 4c0 .5-.3 1.6-.6 2.5-.4 1-.1 1.6.8 1.6 1.6 0 2.2-3.7.7-4.5-.5-.4-.9-.2-.9.4zm3 1.6c0 .8.4 1.5 1 1.5.5 0 .7-.7.4-1.5-.4-.8-.8-1.5-1-1.5-.2 0-.4.7-.4 1.5zm-2.7 6.2c-.8.3-1.3 2.4-1.3 5.4 0 2.8.4 4.8.9 4.4.5-.3 1.3.5 1.7 1.7.4 1.3 1.4 2.8 2.3 3.5 1.6 1.3 7 1.8 5.8.6-.4-.3-.2-1.2.5-2 1.6-1.9.2-2.9-1.8-1.2-1 .8-1.9 1.3-2.1 1.2-1.5-.9-3.3-3.4-3.3-4.7 0-.9-.7-1.6-1.5-1.6s-1.5-.7-1.5-1.6c0-.8.7-2.2 1.5-3 2.5-2.6 1.9-4-1.2-2.7z"/><path d="M406.5 664c.3.5.8 1 1.1 1 .2 0 .4-.5.4-1 0-.6-.5-1-1.1-1-.5 0-.7.4-.4 1zm.7 6c0 1.4.2 1.9.5 1.2.2-.6.2-1.8 0-2.5-.3-.6-.5-.1-.5 1.3zm2.4-1.1c-.3.5.1 1.1.9 1.5.9.3 1.5 0 1.5-.9 0-1.6-1.6-2-2.4-.6zM416 684c0 1.3.5 1.8 1.4 1.4.8-.3 1.2-1.2.9-2-.8-2.1-2.3-1.7-2.3.6zm16.5 1c-.3.5-.2 1 .4 1 .5 0 1.3-.5 1.6-1 .3-.6.2-1-.4-1-.5 0-1.3.4-1.6 1zm-7 1.1c-1 1.5.3 2.5 1.6 1.2.7-.7.7-1.3.1-1.7-.6-.3-1.4-.1-1.7.5zm-5.5 4c0 2.5 4.4 4.8 8.3 4.2 2.4-.4 3.7-.2 3.7.6 0 .6.5 1.1 1 1.1 2.3 0 .7-2-2.2-2.8-2.3-.6-3.2-1.4-3-2.5.2-1.1-.4-1.7-1.8-1.7-1.1 0-2 .5-2 1.2 0 .9-.3.9-1.2 0-1.5-1.5-2.8-1.5-2.8-.1zm79.1.5c0 1.1.3 1.4.6.6.3-.7.2-1.6-.1-1.9-.3-.4-.6.2-.5 1.3zm-65.6.4c-.3.5.1 1 .9 1 .9 0 1.6-.5 1.6-1 0-.6-.4-1-.9-1-.6 0-1.3.4-1.6 1zm6 1c.3.5.8 1 1.1 1 .2 0 .4-.5.4-1 0-.6-.5-1-1.1-1-.5 0-.7.4-.4 1zm-6.2 4.7c-1.9.7-1.6 5.3.3 5.3.9 0 1.4-.6 1.2-1.2-.3-.7.5-2 1.6-3 2.1-1.7 2.1-1.7.1-1.7-1.1 0-2.6.3-3.2.6zm64.2 2.3c-.3.5-.1 1 .4 1 .6 0 1.1-.5 1.1-1 0-.6-.2-1-.4-1-.3 0-.8.4-1.1 1zm-54.8.7c-.3.5 0 1.9.8 2.9 1.5 2 1.8 1.1.6-2-.4-1.1-1-1.5-1.4-.9zm4.4.9c0 1.1.3 1.4.6.6.3-.7.2-1.6-.1-1.9-.3-.4-.6.2-.5 1.3zm49.5 1.9c-.3.8-.1 1.5.4 1.5.6 0 1-.7 1-1.5s-.2-1.5-.4-1.5-.6.7-1 1.5zm-32.9 4.4c.5 2.8 2.6 5.1 4.7 5.1 1.3 0 1.4-.4.4-2.5-.6-1.4-1.9-2.5-2.9-2.5s-1.9-.6-2.2-1.3c-.2-.6-.2-.1 0 1.2zm12 3.5c-.4 1-.1 1.3.9.9.7-.3 1.4-.9 1.4-1.4 0-1.4-1.7-1-2.3.5zm6.3-.4c0 .5.5 1 1 1 .6 0 1-.5 1-1 0-.6-.4-1-1-1-.5 0-1 .4-1 1zm-10 8c0 .5 1 1 2.3 1 1.8 0 1.9-.2.7-1-1.9-1.3-3-1.3-3 0zm0 3.1c0 .5.5.7 1 .4.6-.3 1-.8 1-1.1 0-.2-.4-.4-1-.4-.5 0-1 .5-1 1.1zm92.5 22.9c.3.5.8 1 1.1 1 .2 0 .4-.5.4-1 0-.6-.5-1-1.1-1-.5 0-.7.4-.4 1zm-3.4 3.6c0 1.1.3 1.4.6.6.3-.7.2-1.6-.1-1.9-.3-.4-.6.2-.5 1.3zm3 0c0 1.1.3 1.4.6.6.3-.7.2-1.6-.1-1.9-.3-.4-.6.2-.5 1.3zm-1.9 6.4c0 1.4.2 1.9.5 1.2.2-.6.2-1.8 0-2.5-.3-.6-.5-.1-.5 1.3zm1.5 4.4c-.9 2.4-.9 2.8.2 2.2.5-.4.7 1.2.4 3.6-.3 2.9-.1 3.9.5 2.9.6-.8 1.1-.9 1.3-.2.2.5.9-.1 1.6-1.4.6-1.4.7-2.5.2-2.5-.5 0-.9.4-.9 1 0 .5-.4 1-1 1-1.4 0-1.2-2.7.3-3.3.8-.4.9-.8.1-1.4-.6-.4-1.3-1.5-1.6-2.2-.3-1.2-.6-1.1-1.1.3zm16.3 3.5c0 .9 5.2 2.2 6 1.5.7-.7-2.3-2.4-4.2-2.4-1 0-1.8.4-1.8.9zm88 4.1c0 .5.5 1 1 1 .6 0 1-.5 1-1 0-.6-.4-1-1-1-.5 0-1 .4-1 1zm3.8 1.7c.7.3 1.6.2 1.9-.1.4-.3-.2-.6-1.3-.5-1.1 0-1.4.3-.6.6zM668 769c0 .5.5 1 1 1 .6 0 1-.5 1-1 0-.6-.4-1-1-1-.5 0-1 .4-1 1zm20 1c0 .5.5 1 1.1 1 .5 0 .7-.5.4-1-.3-.6-.8-1-1.1-1-.2 0-.4.4-.4 1zm-7.3 2c-.5 2.1.7 3.5 2.2 2.6 1-.7.3-4.6-.9-4.6-.4 0-1 .9-1.3 2zm24.3.5c0 .8.5 1.5 1 1.5.6 0 1-.7 1-1.5s-.4-1.5-1-1.5c-.5 0-1 .7-1 1.5zm-20 2c0 .8.5 1.5 1 1.5.6 0 1-.7 1-1.5s-.4-1.5-1-1.5c-.5 0-1 .7-1 1.5zm24 .5c0 .5.5 1 1.1 1 .5 0 .7-.5.4-1-.3-.6-.8-1-1.1-1-.2 0-.4.4-.4 1zm11.8.7c.6.2 1.8.2 2.5 0 .6-.3.1-.5-1.3-.5-1.4 0-1.9.2-1.2.5zm.9 3.9c-.9 1 .2 2.4 1.9 2.4.8 0 1.4-.7 1.4-1.5 0-1.5-2.1-2.1-3.3-.9zm4.8 3.4c-.3.5-.1 1 .4 1 .6 0 1.1-.5 1.1-1 0-.6-.2-1-.4-1-.3 0-.8.4-1.1 1zm2.9.7c1 1 4.6 1.1 4 .1-.3-.4-1.5-.8-2.6-.8-1.2 0-1.8.3-1.4.7zm8.4 0c.7.3 1.6.2 1.9-.1.4-.3-.2-.6-1.3-.5-1.1 0-1.4.3-.6.6zm-15.2 3.9c-.9 2.3-.8 2.4 1.4 2.4 1.1 0 2-.2 2-.4 0-1.2-1.3-3.6-2-3.6-.4 0-1.1.7-1.4 1.6zm22.4 2.8c0 .9.5 1.6 1 1.6.6 0 1-.4 1-.9 0-.6-.4-1.3-1-1.6-.5-.3-1 .1-1 .9zm9.8.3c.7.3 1.6.2 1.9-.1.4-.3-.2-.6-1.3-.5-1.1 0-1.4.3-.6.6zm-5 1c.7.3 1.6.2 1.9-.1.4-.3-.2-.6-1.3-.5-1.1 0-1.4.3-.6.6zm-1.3 4.3c-.3.5.3 1 1.4 1 1.2 0 2.1-.5 2.1-1 0-.6-.6-1-1.4-1-.8 0-1.8.4-2.1 1zm10.6.6c0 1.1.3 1.4.6.6.3-.7.2-1.6-.1-1.9-.3-.4-.6.2-.5 1.3zm-5.1.9c0 .8.5 1.5 1 1.5.6 0 1-.7 1-1.5s-.4-1.5-1-1.5c-.5 0-1 .7-1 1.5zm13.5 7.6c-.4 1.1-.4 2.3-.1 2.6.3.4.1 1.2-.5 1.9-.7.8-.7 1.4.1 1.9.5.3 1 0 1-.9 0-.8.6-1.7 1.3-1.9 1-.4 1-.6 0-.6-2.1-.2-1.4-2.1.7-2.1 2.4 0 2.7-1.5.4-2.4-2.2-.8-2.2-.8-2.9 1.5zm27-1.1c-.3.5-.1 1 .4 1 .6 0 1.1-.5 1.1-1 0-.6-.2-1-.4-1-.3 0-.8.4-1.1 1zm3.2-.3c-.4.3-.7 1.1-.7 1.7 0 .6.5.5 1.2-.2.6-.6.9-1.4.7-1.7-.3-.3-.9-.2-1.2.2zm-11.7 1.4c0 .5.5.7 1 .4.6-.3 1-.8 1-1.1 0-.2-.4-.4-1-.4-.5 0-1 .5-1 1.1zm-26 1.9c0 .5.5 1 1 1 .6 0 1-.5 1-1 0-.6-.4-1-1-1-.5 0-1 .4-1 1zm85.5 0c-.3.5-.1 1 .4 1 .6 0 1.1-.5 1.1-1 0-.6-.2-1-.4-1-.3 0-.8.4-1.1 1zm-69.5 2c0 .5.5 1 1 1 .6 0 1-.5 1-1 0-.6-.4-1-1-1-.5 0-1 .4-1 1zm-1.5 3c.3.5.8 1 1.1 1 .2 0 .4-.5.4-1 0-.6-.5-1-1.1-1-.5 0-.7.4-.4 1zm141.7 2.1c.2.7 1 1.5 1.7 1.7.8.3 1.2-.1.9-.9-.2-.7-1-1.5-1.7-1.7-.8-.3-1.2.1-.9.9zm3.8-.2c0 .5.5 1.3 1 1.6.6.3 1 .2 1-.4 0-.5-.4-1.3-1-1.6-.5-.3-1-.2-1 .4zm41.5 1.1c-.3.5.3 1 1.5 1s1.8-.5 1.5-1c-.3-.6-1-1-1.5-1s-1.2.4-1.5 1zm113.3 1.7c.7.3 1.6.2 1.9-.1.4-.3-.2-.6-1.3-.5-1.1 0-1.4.3-.6.6zm20.4 4.3c0 1.4.2 1.9.5 1.2.2-.6.2-1.8 0-2.5-.3-.6-.5-.1-.5 1.3zm159.3 2c-.3.5-.1 1 .4 1 .6 0 1.1-.5 1.1-1 0-.6-.2-1-.4-1-.3 0-.8.4-1.1 1zm438 0c-.3.5.1 1 1 1s1.3-.5 1-1c-.3-.6-.8-1-1-1-.2 0-.7.4-1 1zm-462.5 2c0 .5.5 1 1 1 .6 0 1-.5 1-1 0-.6-.4-1-1-1-.5 0-1 .4-1 1zm51.5 0c.4.6 1.1.8 1.6.5 1.4-.9 1.1-1.5-.7-1.5-.8 0-1.2.5-.9 1zm97 0c-.3.5.1 1 .9 1 .9 0 1.6-.5 1.6-1 0-.6-.4-1-.9-1-.6 0-1.3.4-1.6 1zm115.5 2c0 .5.5 1 1 1 .6 0 1-.5 1-1 0-.6-.4-1-1-1-.5 0-1 .4-1 1zm-11 1c0 .5.7 1 1.6 1 .8 0 1.2-.5.9-1-.3-.6-1-1-1.6-1-.5 0-.9.4-.9 1z"/></svg>