<svg id="레이어_1" data-name="레이어 1" xmlns="http://www.w3.org/2000/svg" viewBox="0 0 315 188"><defs><style>.cls-1{fill:#fff}.cls-2{fill:none}</style></defs><title>Logo</title><path class="cls-1" d="M312.71 379.51c-4.32.6-4.92 2-7 2-3.12 0-12.12-4.2-12.12-6 0-.36.48-.6 1.44-.6a15.49 15.49 0 0 1 2.88.36c5 .48 10.68.72 16.56.72s12.12-.24 18.24-.36c3.48-.24 2.76-1.32 6.6-1.32 2.64 0 7.68.6 7.68 2 0 1-1.92 2.16-2.88 3.6-10.8 19.68-27.36 37-51.12 49.08a11.58 11.58 0 0 1-4 1.56c-.24 0-.36-.12-.36-.24 0-.48 1.2-1.56 3.48-3.12 16.92-11 37.32-33.72 43.2-48.48zm8.52 57.84c-.6-2.76-2.64-3.6-7.2-5.4-1.44-.36-2.64-.84-2.64-1.44s1-1 3.48-1.56a76 76 0 0 1 15.12 1.8l32.64-.6c2.64-.36 3.24-1.08 5.88-1.08 2.4 0 7.08.48 7.08 2 0 .84-1.32 1.92-1.68 3.12-2.4 9.23-5 21.23-5.64 24.83 4.2.24 6.12 1.8 6.12 3.12 0 1.08-1.44 2-4 2h-40.88c-1 4.92-2.76 7.68-4.2 7.68s-2.4-2.16-2.4-6.84zm7.68 4l.36 19.91 27.24-.48c4.32-.24 3.72-.72 7.44-1.56l1.32-25.67-34.56.48c-.48.36-1.8.72-1.8 1.92zm37.32-72c0-1.2-3-3.6-10.32-6.48-1.8-.6-2.76-1.32-2.76-1.92s1.44-1.32 4.32-1.44c5.64.48 9.36 2 12.6 2.88 3.48 1.32 4.32 2.16 4.32 3.36 0 .84-.48 1.8-.48 3.24l-.12 32.4c1.68-.12 2.88 0 4.68-.24 6.24-.72 3.24-3.36 12-3.36 2.4 0 7.08 0 7.08 3.24a3.3 3.3 0 0 1-3.36 3l-20.52.36c-.24 18.12-4.56 20.16-5.64 20.16s-1.8-1.32-1.8-4.8zm137.64 37.04c-20.28 0-68.28 1.08-73.68 1.68-3.36.72-4.2 1.92-6.12 1.92-2.76 0-16.08-5.28-16.08-7.2 0-.36.6-.6 1.44-.6a12.48 12.48 0 0 1 1.8.24c8.76 1.2 19.2 1.56 31.44 1.56 11 0 23.64-.36 37.8-.84a199.1 199.1 0 0 0 6.72-30.48c-15 0-36.72 1-44.76 1.32-4.32.72-4.92 2.16-6.84 2.16-2.4 0-12.84-4.68-12.84-6.48 0-.36.36-.6 1.08-.6a10.55 10.55 0 0 1 2.4.36 144.63 144.63 0 0 0 21 1.2c10.2 0 22.2-.48 34.56-1.08 3.36-.24 3.24-1.44 6.48-1.44a33 33 0 0 1 4.08.36c3.48.48 4.56 1.2 4.56 2 0 1.08-1.68 2.4-2.4 4-2 8.4-6.48 20-10.32 28.56 2.16 0 4.32-.12 6.48-.24 8.4-.24 6.72-3.12 14-3.12 1.2 0 10.32 0 10.32 4.08 0 1.44-1.68 2.64-5 2.64zm-61.44 21.24c-3.72.36-4.56 1.44-6.36 1.44-2.64 0-11.28-3.72-11.28-5.52 0-.36.48-.6 1.44-.6.24 0 .6.12 1 .12a166.94 166.94 0 0 0 20.88 1c10.2 0 21.48-.36 30.48-1.08 2.88-.24 2.28-1 5-1 3.24 0 7.56.48 7.56 1.92 0 1-1.44 2-1.92 3.24-1.8 6.36-3.24 11-3.72 13.2 3.6.59 5.28 1.67 5.28 2.63s-1.44 1.69-4.08 1.69l-44.4.6c-1.08.83-1.68 1-1.68 1.79v11.16c0 2.16 1.08 2.64 3.84 2.76l31.44-.12c7.2-.36 4.92-3 13-3 7.32 0 9.48 2.4 9.48 3.84s-1.44 2.4-3.84 2.4h-51c-6.12.12-10.2-2.16-10.2-6.6v-10.56c-.48-1.56-4.44-3.12-6.6-4-1.2-.36-2.52-1-2.52-1.55 0-.37.84-.85 3.24-1.08 7.32.23 13.44 1.55 14.88 2.27l30.12-.47c3.84-.25 4.92-.84 8.4-1.44l1-14.88zm100.8 28.43c0 3.6-2 7-6.6 7s-6.6-3.36-6.6-7 2-6.72 6.6-6.72 6.6 3.24 6.6 6.72zM312 349.64c2.16-2 5.52-5.93 6.86-10.11.05-.33.07-.53-1.13-1.51-.6-.41-.52-.65-.07-.65a3.59 3.59 0 0 1 .94.19c1.8.82 2.3 1.2 2.3 1.61s-.29.77-1.85 3.67a10.92 10.92 0 0 0 2.57 2.64c1 .8 1.27.53 2.09 2.21a2.79 2.79 0 0 1 .34 1.18c0 .45-.22.72-.48.72a.72.72 0 0 1-.51-.29c-.79-1-2.49-3.34-4.44-5.86-2.57 3.84-6.48 6.82-6.94 6.82-.07 0-.09 0-.09-.07s.16-.29.41-.55zm16-13.13c0-.41-1.32-1-2.33-1.44-.26-.1-.43-.22-.43-.32s.29-.26 1-.28a19.45 19.45 0 0 1 2.76.65c.5.19.62.36.62.59s-.07.41-.07.77v8.74h1.2c1.13-.17.75-.62 2.28-.62.46 0 1.47 0 1.47.74 0 .34-.29.62-.82.62h-4.15v7a9.13 9.13 0 0 1-.6 3.56c-.19.29-.38.43-.55.43s-.36-.31-.36-1.11zm16.15 1.92c.38-.05.17-.15.91-.15 1.23 0 1.51.08 1.51.29s-.38.51-.6.79a36.38 36.38 0 0 1-2.8 3.87c.55.45 1.41 1.1 1.8 1.37 1 .6 1.1-.08 2.49 1.84a1.89 1.89 0 0 1 .46 1 .43.43 0 0 1-.41.48 1.09 1.09 0 0 1-.7-.39c-.64-.53-2-2.13-4.08-3.93a27.4 27.4 0 0 1-7.73 5.44 1.36 1.36 0 0 1-.55.17.11.11 0 0 1-.12-.09c0-.1.15-.24.48-.44 3.24-1.89 7.56-5.54 9.53-9.6-1.2 0-4.1.17-5.18.27-.63.12-.72.36-1 .36a5.72 5.72 0 0 1-2.42-1.27c0-.1.12-.15.34-.15s.26 0 .43.05a19.6 19.6 0 0 0 3.34.24c1.56.04 2.81-.06 4.3-.15zm-2.5 12.81c0-.48-.6-.69-1.82-1.08-.26 0-.43-.14-.43-.26s.19-.24.74-.34a19.58 19.58 0 0 1 2.59.17c.41.1.51.22.51.43s-.07.36-.07.65v3.24c0 .53.31.75 1.15.79h5c1.8-.12.93-.68 3.09-.68.77 0 1.78.08 1.78.82a.58.58 0 0 1-.65.53h-9.33c-1.59 0-2.5-.41-2.57-1.63zm9-14.32c-.05-.32-1-1-2-1.4-.4-.14-.6-.29-.6-.4s.29-.22.87-.24a9.79 9.79 0 0 1 2.47.57c.7.22.86.38.86.63s-.09.38-.09.69v10.08a13 13 0 0 1-.38 3.36c-.22.55-.48.84-.7.84s-.38-.33-.38-1.1zm18.48 1.08c-.07-.53-.74-1-1.7-1.39-.38-.15-.62-.29-.62-.41s.19-.19.62-.24a11.19 11.19 0 0 1 2.47.53c.58.14.7.28.7.52s-.1.53-.1 1v10.89c0 3.48-.24 4.68-.48 5.4-.19.51-.43.8-.6.8s-.29-.24-.29-.8v-10h-1c-.79.12-.88.44-1.2.44a2.38 2.38 0 0 1-1-.39c0 1.68-1.49 3.84-4.49 3.84a4.17 4.17 0 0 1-4.46-4.08 3.85 3.85 0 0 1 3.57-3.77c.51 0 .75-.33.75-.48a.5.5 0 0 0-.17-.36c-.19-.19-.29-.31-.29-.4s.1-.15.29-.15c.6 0 1.39.43 1.39.75s-.29.43-.38.69c2.3.43 3.48 1.75 3.74 3.19a10.12 10.12 0 0 0 1.23.05c.74 0 1.41-.05 2-.07zm-10.65 6.31a2.85 2.85 0 0 0 3 2.95 3 3 0 1 0 0-5.93 2.86 2.86 0 0 0-3 2.93zm14.66-7.58c-.05-.44-.84-1-2-1.59-.38-.12-.6-.29-.6-.41s.29-.24.94-.24c.91.17 2 .48 2.42.6.67.22.82.39.82.63s-.07.38-.1.69v15.2a16.68 16.68 0 0 1-.41 4.56c-.21.53-.45.81-.64.81s-.39-.33-.39-1.1zm14.57 1.75c-.87.12-1 .4-1.39.4-.63 0-2.43-.84-2.43-1.2 0-.07.1-.12.29-.12a3.13 3.13 0 0 1 .58.08c1 .09 2.13.14 3.31.14s2.42 0 3.65-.07c.69 0 .55-.27 1.32-.27.53 0 1.53.12 1.53.41s-.38.43-.57.72a23.75 23.75 0 0 1-10.23 9.82 2.45 2.45 0 0 1-.79.31c-.05 0-.07 0-.07-.05s.24-.31.69-.62c3.39-2.21 7.47-6.75 8.65-9.7zm1.7 11.56c-.12-.55-.53-.72-1.44-1.08-.29-.07-.53-.16-.53-.28s.2-.2.7-.32a15.3 15.3 0 0 1 3 .36l6.52-.12a7 7 0 0 1 1.18-.21c.48 0 1.42.09 1.42.41 0 .16-.27.38-.34.62-.48 1.85-1 4.25-1.13 5 .84.05 1.23.36 1.23.62s-.29.41-.8.41h-8.18c-.19 1-.55 1.54-.84 1.54s-.48-.44-.48-1.37zm1.54.8l.07 4 5.45-.1a5.18 5.18 0 0 0 1.49-.31l.26-5.13-6.91.09c-.1.07-.36.15-.36.39zm7.46-14.4c0-.24-.6-.73-2.06-1.3-.36-.12-.55-.26-.55-.39s.29-.26.86-.28a12.59 12.59 0 0 1 2.52.57c.7.27.87.44.87.67s-.1.37-.1.65v6.48h.93c1.25-.15.65-.68 2.4-.68.48 0 1.42 0 1.42.65a.66.66 0 0 1-.67.6l-4.11.07c0 3.63-.91 4-1.13 4s-.36-.27-.36-1zm6.31 9.96a20.82 20.82 0 0 0 6.77-7.92c0-.08.17-.48.17-.51 0-.24-.38-.67-1.25-1.27-.36-.22-.48-.36-.48-.48s.22-.22.51-.22a2.13 2.13 0 0 1 .57.1c.43.14 2.62 1.1 2.62 1.7a13.24 13.24 0 0 1-1.63 3 8.15 8.15 0 0 0 1.77 2.06c.65.58.94-.09 2.16 2.43a1.12 1.12 0 0 1 .2.62.52.52 0 0 1-.53.55.87.87 0 0 1-.7-.43c-1.13-1.51-2.47-3.33-3.41-4.65a20.8 20.8 0 0 1-7.05 5.59c-.08 0-.1 0-.1-.07s.12-.31.38-.5zm12.41 2a1 1 0 0 0-.31-.63.4.4 0 0 1-.21-.31c0-.09.09-.17.28-.17.48 0 1.59.48 1.59.82s-.27.41-.36.7c2.66.48 3.91 2.18 3.91 3.84 0 1.94-1.68 3.88-4.73 3.88s-4.58-1.94-4.58-3.86c0-1.73 1.29-3.5 4-3.89a.37.37 0 0 0 .41-.39zm-3.13 4.12c0 1.44 1.13 2.9 3.36 2.9s3.36-1.46 3.36-2.9-1.1-3-3.36-3a3 3 0 0 0-3.36 3zm7-11.16c-1.23 0-2 .16-2.62.19s-.77.29-1.17.29-2-.63-2-.89c0-.1.17-.15.43-.15h1.18c1.22 0 3-.07 4.15-.19v-4c-.05-.53-1.23-1.13-2.09-1.49-.36-.12-.6-.26-.6-.41s.22-.24.82-.29c.26 0 3.45.56 3.45 1.2 0 .15-.07.32-.07.6v8.88a7.35 7.35 0 0 1-.63 3.32c-.14.24-.29.38-.43.38s-.43-.43-.43-1.63zm25.53 4.53c-1.24-.09-2.85-.14-4.46-.14-1.87 0-3.74.05-4.94.09l-7 .39c-.74 0-.77.38-1.2.38s-3-1.08-3-1.41c0-.08.09-.15.31-.15a2.37 2.37 0 0 1 .45.07 23.58 23.58 0 0 0 4.28.24c3.33 0 7.92-.19 11.78-.4 1.23-.08 1-.48 2.31-.48 1.15 0 2.32.09 2.32.81a.69.69 0 0 1-.76.6zm-14.85 7c0-.29-.51-.43-1.3-.65-.21 0-.43-.12-.43-.21s.48-.34.91-.34a10 10 0 0 1 2.52.31c2.23 0 3.43-.07 5.71-.14a13 13 0 0 0 1.32-.22c.08-.5.1-1.44.15-2.64-1.59.05-4.71.12-7 .24-.7.15-.82.39-1.22.39s-2.33-.77-2.33-1.06c0-.07.09-.12.33-.12a1.63 1.63 0 0 1 .36 0c.84.09 2 .12 3.34.12 1.9 0 4.1-.08 6-.22a1.89 1.89 0 0 1 .81-.19c1.54 0 1.54.26 1.54.36s-.22.45-.31.69c-.27.75-.65 1.83-.77 2.28.65.12 1 .36 1 .56s-.29.31-.84.31l-7.82.21c-.24.12-.43.1-.43.36V355c0 .46.24.55.6.55h6c1.44-.17 1-.62 2.45-.62.67 0 1.87 0 1.87.69 0 .29-.31.56-.84.56h-9.48c-1.75 0-2.13-.63-2.13-1.33zm5.59-17c3 .41 4.32 2.09 4.32 3.79s-1.75 3.67-4.85 3.67-5-1.92-5-3.88c0-1.61 1.25-3.17 3.87-3.58a.51.51 0 0 0 .53-.48.63.63 0 0 0-.2-.46.66.66 0 0 1-.21-.36c0-.09.09-.14.26-.14.46 0 1.44.33 1.44.7 0 .19-.19.38-.19.64zm-4.06 3.7c0 1.41 1.18 2.8 3.51 2.8s3.48-1.39 3.48-2.8-1.2-2.84-3.53-2.84-3.46 1.39-3.46 2.81zm35.6-3.15c0-.24-.6-.73-2.07-1.3-.36-.12-.55-.26-.55-.39s.29-.26.86-.28a12.42 12.42 0 0 1 2.52.57c.7.27.87.44.87.67s-.1.37-.1.65v6.48h.93c1.25-.15.65-.68 2.4-.68.48 0 1.42 0 1.42.65a.65.65 0 0 1-.67.6l-4.11.07c0 3.63-.91 4-1.12 4s-.36-.27-.36-1v-3.15c-3.39 1.49-9.92 3.27-11.6 3.27-.45 0-1.08-.72-1.1-1.88l-.07-5c-.08-.56-.84-.77-1.8-1.08-.24-.05-.36-.12-.36-.22s.12-.34.88-.34a17.39 17.39 0 0 1 3 .24c1.47 0 2.53-.12 3.32-.19 1.56-.14.77-.65 3-.65.62 0 .91.29.91.58s-.24.5-.74.5c-2.52.17-4.47.24-6.17.29-.32.1-.48-.05-.48.34-.05 1.87-.1 3.57-.1 4.65s0 1.47.62 1.47a45.58 45.58 0 0 0 10.67-2.31zm.72 12.16c.88 0 1.15.17 1.15.34s-.34.48-.43.84c-.29 1.61-.75 3.79-1 4.66.72.12 1 .36 1 .57s-.27.34-.7.34c-1.61 0-6.45.17-8 .17-.14.93-.48 1.46-.76 1.46s-.36-.29-.44-.94-.19-4-.36-5.73c0-.34-.07-.53-1.39-.94-.26-.07-.53-.17-.53-.29s.22-.24.8-.33a21.24 21.24 0 0 1 2.68.33c1.13 0 5.24-.12 6.44-.24.55 0 .24-.24 1.13-.24zm-2.53 6.2a9 9 0 0 0 1.48-.32c.08-1.1.2-3.84.2-5-1.32.09-5.07.17-6.89.24-.12.17-.29.12-.29.36l.12 4.8zm23.41-18.29c0-.41-1.32-1-2.33-1.44-.27-.1-.43-.22-.43-.32s.28-.26 1-.28a18.81 18.81 0 0 1 2.76.65c.51.19.63.36.63.59s-.07.41-.07.77v8.74h1.2c1.12-.17.74-.62 2.28-.62.45 0 1.46 0 1.46.74 0 .34-.29.62-.82.62h-4.15v7a9.32 9.32 0 0 1-.6 3.56c-.19.29-.39.43-.55.43s-.36-.31-.36-1.11v-9.24c-2.93 1.56-8.88 3.6-11.74 3.68-.41 0-1.15-.92-1.15-1.9l-.08-7.73c-.16-.57-.84-.77-2-1.22-.16 0-.28-.07-.28-.17s.19-.26.74-.38a14.34 14.34 0 0 1 3.46.48 31.17 31.17 0 0 0 3.67-.17c1.2-.12.89-.72 2.54-.72.63 0 1.66 0 1.66.62 0 .27-.26.53-.74.58-2.31.12-4.85.26-6.92.26-.31.05-.5-.07-.5.31 0 1.13-.07 4.71-.07 6.7s0 2 .69 2a39.35 39.35 0 0 0 10.76-2.83z" transform="translate(-257 -304)"/><path d="M325.31 474c-1.66 0-4.45-1.15-4.46-8.84l-1.67-27.49c-.37-1.45-1.44-2-5.78-3.73-1.32-.33-4.07-1.09-4.07-3.4s2.92-3.06 5.06-3.57l.24-.06h.24a79.36 79.36 0 0 1 15.36 1.8l32.23-.6a14 14 0 0 0 2.15-.48 12.54 12.54 0 0 1 3.9-.6c7.95 0 9.14 2.57 9.14 4.11a4.64 4.64 0 0 1-1.14 2.69 5.16 5.16 0 0 0-.63 1c-2 7.82-4.21 17.57-5.18 22.46 4.2.81 5.75 3 5.75 4.9 0 2.05-1.86 4.11-6 4.11h-39.29c-1.23 4.83-3.37 7.7-5.85 7.7zm5.69-32.69l.32 17.81 25.18-.44a12.12 12.12 0 0 0 4-.68c.4-.13.86-.28 1.46-.44l1.12-22-31.8.44-.32.17zm-41.9-8.62a2.34 2.34 0 0 1-2.42-2.3c0-1.22.67-2.29 4.38-4.83 15.81-10.32 34.14-30.37 41.13-44.61l-19.27.62a12 12 0 0 0-3.92 1.18 7 7 0 0 1-3.22.86c-3 0-14.18-4.1-14.18-8.06 0-.27.1-2.67 3.5-2.67a17.46 17.46 0 0 1 3.18.38c4.93.47 10.4.7 16.26.7 3.95 0 8.05-.1 12-.21l6.13-.14a6 6 0 0 0 2.31-.54 10 10 0 0 1 4.38-.79c2.93 0 9.74.4 9.74 4.11 0 1.42-1 2.42-2 3.39a10.48 10.48 0 0 0-1.18 1.29c-11.85 21.52-29.32 38.29-51.92 49.83-3 1.6-4.27 1.79-4.93 1.79zm79-6.12c-1.45 0-3.87-.89-3.87-6.86v-50.08c-.52-.65-2.85-2.45-9-4.86-2.73-.92-4.12-2.22-4.12-3.86 0-2.15 2.12-3.33 6.3-3.5h.26a47.46 47.46 0 0 1 10.42 2.21c.89.27 1.72.52 2.52.73h.22c3 1.13 5.65 2.38 5.65 5.29a6.56 6.56 0 0 1-.25 1.65A6.78 6.78 0 0 0 376 369l-.11 30.26a17.79 17.79 0 0 0 2.33-.15 6.54 6.54 0 0 0 3.72-1.3c1.68-1.18 3.37-2.08 8.56-2.08 2.5 0 9.14 0 9.14 5.31a5.37 5.37 0 0 1-5.3 5.06l-18.62.32c-.61 18.13-5.54 20.15-7.72 20.15zm74.95 39.6a14.94 14.94 0 0 1-8.2-2 7.62 7.62 0 0 1-3.6-6.66v-10c-.46-.45-1.78-1.23-5.21-2.57-1.06-.32-3.91-1.24-3.91-3.51 0-2.63 3.57-3 5.09-3.14h.28c6.89.23 12.9 1.4 15.21 2.28l29.69-.48a26.47 26.47 0 0 0 4.93-.76l1.54-.34.71-11-37 1.69a13.7 13.7 0 0 0-3.63.84 8.06 8.06 0 0 1-2.88.61c-2.46 0-13.34-3.59-13.34-7.58 0-.28.09-2.67 3.5-2.67a3.86 3.86 0 0 1 .76.09 1.46 1.46 0 0 0 .22 0h.27a160.69 160.69 0 0 0 20.59.94c10.73 0 21.78-.39 30.31-1.07a5.84 5.84 0 0 0 1.91-.41 7.93 7.93 0 0 1 3.3-.56c2.38 0 9.62 0 9.62 4a4.92 4.92 0 0 1-1.38 3 7.52 7.52 0 0 0-.66.93c-.63 2.23-1.21 4.25-1.73 6s-1 3.6-1.4 4.91c3.91 1.08 4.81 2.83 4.81 4.2 0 .88-.44 3.75-6.14 3.75l-43.71.59-.31.21v10.69a2 2 0 0 0 0 .46 6.24 6.24 0 0 0 1.83.24l31.34-.12a9.7 9.7 0 0 0 5-1.28c1.52-.81 3.23-1.72 8-1.72 8.52 0 11.54 3.18 11.54 5.9 0 2.15-1.85 4.47-5.9 4.47h-51.45zm-19-54.12c-2.14 0-7.22-1.91-9.88-3-7.63-3.24-8.26-4.85-8.26-6.22s1.08-2.67 3.5-2.67a11.73 11.73 0 0 1 1.79.21l.35.06c7.72 1.06 17.33 1.53 31.1 1.53 10.41 0 22.06-.31 36.25-.79a189.28 189.28 0 0 0 5.85-26.39c-15 .09-35.1 1-42.12 1.3a12.64 12.64 0 0 0-3.9 1.28 6.66 6.66 0 0 1-3.16.89c-2.15 0-14.9-4.51-14.9-8.54 0-1.28 1-2.67 3.14-2.67a12.43 12.43 0 0 1 2.81.4 143.13 143.13 0 0 0 20.59 1.16c10.81 0 23.48-.54 34.46-1.07a6.67 6.67 0 0 0 2.5-.62 9.17 9.17 0 0 1 4.08-.83 36.33 36.33 0 0 1 4.35.38c2.07.29 6.35.88 6.35 4.09a5.55 5.55 0 0 1-1.57 3.33 10 10 0 0 0-.94 1.34 183 183 0 0 1-9.08 25.71l3.17-.16c3.9-.12 5.27-.78 6.73-1.49a14.29 14.29 0 0 1 7.43-1.64c8 0 12.38 2.19 12.38 6.15 0 2.17-1.86 4.7-7.1 4.7h-6.12c-20.09 0-67.67 1.08-73.35 1.66a14.14 14.14 0 0 0-3 1 7.82 7.82 0 0 1-3.43.9zm112.58 53.04c-6 0-8.66-4.53-8.66-9s2.68-8.78 8.66-8.78 8.66 4.41 8.66 8.78-2.68 9-8.66 9zM328.38 359c-.4 0-2.42-.15-2.42-3.17V350a2.48 2.48 0 0 1-2.35 1.69 2.72 2.72 0 0 1-2.06-1c-.46-.56-1.09-1.4-1.86-2.44l-1-1.38c-2.27 2.68-5.39 5.48-6.93 5.48a2.11 2.11 0 0 1-2.15-2.13 2.82 2.82 0 0 1 1.07-2.07 25.39 25.39 0 0 0 6-8.37l-.11-.09a2.41 2.41 0 0 1-1.14-2.76 2.29 2.29 0 0 1 2.32-1.59 5.31 5.31 0 0 1 1.55.28h.12l.12.05c1.65.75 3.51 1.6 3.51 3.49 0 .73-.11 1-1.45 3.46.36.37.83.76 1.33 1.18l.11.1c.16.12.32.22.46.31a5.24 5.24 0 0 1 2.15 2.57 5.43 5.43 0 0 1 .36.88v-10.2l-1-.49a2.33 2.33 0 0 1-1.72-2.23c0-.52.22-2.25 3-2.35h.4a21.8 21.8 0 0 1 3 .72h.11a2.64 2.64 0 0 1 2 2.52 4.13 4.13 0 0 1-.05.58.92.92 0 0 0 0 .19v6.21a5.48 5.48 0 0 1 1.41-.16c3.36 0 3.53 2.34 3.53 2.81a2.73 2.73 0 0 1-2.88 2.69h-2.1v4.9a11.42 11.42 0 0 1-.75 4.32l-.08.2-.12.17a2.69 2.69 0 0 1-2.38 1.46z" transform="translate(-257 -304)"/><path d="M344.25 357.53c-3.85-.06-4.55-2.26-4.63-3.57v-1.7l-.29-.1a2.34 2.34 0 0 1-1.95-2c-.46.25-.95.5-1.46.74a3.2 3.2 0 0 1-1.45.38 2.17 2.17 0 0 1-2.18-2.16 2.57 2.57 0 0 1 1.52-2.23 26.65 26.65 0 0 0 6.6-5.56l-.87.06a2.94 2.94 0 0 1-1.4.38c-.54 0-4.48-1-4.48-3.33a2.26 2.26 0 0 1 2.4-2.21 4.23 4.23 0 0 1 .65.06h.14a18.43 18.43 0 0 0 3 .21c1.35 0 2.44-.08 3.71-.16h.3a3.62 3.62 0 0 1 1.24-.16 8.26 8.26 0 0 1 1.22.07 2.2 2.2 0 0 1-.33-1.17c0-.66.28-2.2 2.84-2.31h.31a12.12 12.12 0 0 1 2.95.69c1.48.48 2.23 1.34 2.23 2.57a2.57 2.57 0 0 1-.09.67v10.11a15 15 0 0 1-.47 3.93v.18a4.26 4.26 0 0 1-.62 1.11c3 .22 3.28 2.22 3.28 2.86a2.63 2.63 0 0 1-2.71 2.59zm-2.83-10c.68 0 1.25.1 1.62.15h.16a2.46 2.46 0 0 1 2.1 2.44 3.25 3.25 0 0 1-.06.57v2h4a1.41 1.41 0 0 0 .38-.05 3.1 3.1 0 0 1-1.1-2.72v-.17a2.36 2.36 0 0 1-1.06.24 3 3 0 0 1-2.08-.91c-.33-.29-.72-.68-1.24-1.22s-.9-.9-1.46-1.44c-.37.4-.8.76-1.26 1.12zm4.66-4.68l.18.06a4.2 4.2 0 0 1 2.31 1.58v-5.37a3.12 3.12 0 0 1-.84 1.36l-.08.08c-.44.71-1.01 1.54-1.57 2.3zm2.49-4.91v-.15h-.06z" transform="translate(-257 -304)"/><path d="M373.53 359c-.24 0-2.19-.08-2.43-2.64a2.3 2.3 0 0 1-1.68.74c-.87 0-2.35-.6-2.35-2.86v-6.78a6.52 6.52 0 0 1-5.57 2.78 6.21 6.21 0 0 1-6.53-6.15 5.79 5.79 0 0 1 3.91-5.44 2.25 2.25 0 0 1 2.31-1.78 3.62 3.62 0 0 1 3.34 2.08 6.3 6.3 0 0 1 2.54 2.07v-2.36l-.45-.21a2.45 2.45 0 0 1-1.88-2.3c0-.34.12-2 2.46-2.29h.36a8.85 8.85 0 0 1 1 .12c.24-.69.93-1.59 2.88-1.59h.37c1 .19 2.24.53 2.67.66 1.51.49 2.26 1.36 2.26 2.6a3.45 3.45 0 0 1-.07.66.51.51 0 0 0 0 .13v15.1a18 18 0 0 1-.51 5.18v.16c-.78 1.75-1.86 2.12-2.63 2.12zm-12-15.65a.82.82 0 0 0-.94.91c0 .59.32.89.94.89 1 0 1.17-.56 1.17-.89s-.2-.91-1.22-.91zm28.7 15.65c-.42 0-2.51-.16-2.54-3.36l-.29-4.7h-.08a2.6 2.6 0 0 1-1.67-1.2l-.94.5a3.7 3.7 0 0 1-1.73.53h-2.06l-.07-2.11a2.9 2.9 0 0 1 1.59-2.32 27.77 27.77 0 0 0 6.08-5.82h-.62a.89.89 0 0 0-.24.09 3.1 3.1 0 0 1-1.34.33c-.76 0-4.49-.89-4.49-3.27a2.21 2.21 0 0 1 2.35-2.18 4.94 4.94 0 0 1 .87.09c.91.08 1.93.13 3 .13.78 0 1.58 0 2.38-.05h1.12a3.57 3.57 0 0 1 1.47-.27 6.69 6.69 0 0 1 .8 0 2.1 2.1 0 0 1-.11-.67c0-.37.14-2.23 2.85-2.34h.26a10.86 10.86 0 0 1 2.42.51l.44.13h.21a2.91 2.91 0 0 1 2.2 2.6 3.25 3.25 0 0 1-.09.71v3.74a6.41 6.41 0 0 1 1.26-.11c3.23 0 3.48 2.08 3.48 2.71a2.72 2.72 0 0 1-2.61 2.66h-2.3a9.34 9.34 0 0 1-.33 1.57 2.23 2.23 0 0 1 .85 1.76 2.47 2.47 0 0 1-.47 1.41c-.24.92-.49 2-.69 2.9a2.48 2.48 0 0 1 .92 1.9 2.62 2.62 0 0 1-2.86 2.47h-6.72a2.58 2.58 0 0 1-2.3 1.66zm2.82-6.3l2.93-.05.07-1.3h-3zm-2.77-6.25c.43.06.81.13 1.1.19l5-.09V339a3.56 3.56 0 0 1-.61.76 25.35 25.35 0 0 1-5.49 6.71z" transform="translate(-257 -304)"/><path d="M417.3 358.59c-4.32 0-6.65-3.06-6.65-5.93a5.76 5.76 0 0 1 3-5 3 3 0 0 1-.4-.47c-.48-.64-1.2-1.61-1.93-2.61-2.31 2.2-5.49 4.41-6.85 4.41a2.13 2.13 0 0 1-2.16-2.13 2.7 2.7 0 0 1 1.23-2.15 19.14 19.14 0 0 0 5.73-6.33 2.55 2.55 0 0 1-1.37-2.18 2.35 2.35 0 0 1 2.57-2.28 4.5 4.5 0 0 1 1.14.17c1.3.44 4.11 1.6 4.11 3.69a2.38 2.38 0 0 1-.18.94h1.34c.64 0 1.38 0 2.09-.05v-1.28c-.19-.1-.44-.22-.77-.36a2.45 2.45 0 0 1-1.92-2.34c0-.5.19-2.14 2.71-2.34h.17c.05 0 5.52.24 5.52 3.26a3.36 3.36 0 0 1-.07.59v8.9a8.48 8.48 0 0 1-.94 4.4 2.81 2.81 0 0 1-.26.38 5.5 5.5 0 0 1 .74 2.73c-.06 2.91-2.44 5.98-6.85 5.98zm.07-7c-.82 0-1.29.32-1.29.89 0 .4.34.84 1.29.84s1.3-.32 1.3-.84-.46-.85-1.3-.85zm.79-6.17a4.34 4.34 0 0 1 .78.33v-2.21h-.48a3.82 3.82 0 0 1-.91.24l.21.42a3.41 3.41 0 0 1 .4 1.26z" transform="translate(-257 -304)"/><path d="M433.81 358.23c-3.89 0-4.2-2.59-4.2-3.39v-.7a2.19 2.19 0 0 1-1.72-2.15 2.09 2.09 0 0 1 .89-1.74 2.25 2.25 0 0 1-.85-1.72.17.17 0 0 1 0-.07c-1.49-.39-4.09-1.35-4.09-3.26a2.25 2.25 0 0 1 2.38-2.21 4 4 0 0 1 1 .13 20 20 0 0 0 3.77.18h.36a5.41 5.41 0 0 1 2.4-9.08 2.22 2.22 0 0 1 2.3-1.86c.92 0 2.77.49 3.34 1.87a5.77 5.77 0 0 1 4.29 5.42 5.23 5.23 0 0 1-1.2 3.26h.18a.9.9 0 0 0 .39-.09 4.59 4.59 0 0 1 2-.4c2 0 4.39.5 4.39 2.88a2.76 2.76 0 0 1-2.83 2.67h-.23c-.6-.05-1.29-.08-2-.11a2.86 2.86 0 0 1 .08.67A2.81 2.81 0 0 1 444 350c-.06.16-.14.37-.22.6a2.26 2.26 0 0 1 .56 1.49 2.24 2.24 0 0 1-.25 1 2.53 2.53 0 0 1 2.13 2.54 2.75 2.75 0 0 1-2.91 2.62zm2.86-19.44c-.85 0-1.39.3-1.39.77s.57.74 1.44.74 1.41-.29 1.41-.74-.59-.77-1.46-.77zM460.84 359c-.51 0-2.2-.2-2.49-2.77 0-.36-.07-1.06-.11-1.89s-.11-2.09-.18-3a2.3 2.3 0 0 1-2-2.26 2.38 2.38 0 0 1 .08-.61 4 4 0 0 1-2.09-3.66l-.06-4-.3-.09a2.29 2.29 0 0 1-1.88-2.21c0-1.19 1-2.4 2.95-2.4a20.3 20.3 0 0 1 3.15.23c1.13 0 2.1-.09 3-.17.21 0 .28 0 .28-.05a5.29 5.29 0 0 1 2.91-.61h.18a2.17 2.17 0 0 1-.13-.75c0-.37.13-2.23 2.84-2.34h.26a10.61 10.61 0 0 1 2.42.51l.44.13h.22a2.92 2.92 0 0 1 2.19 2.6 3.25 3.25 0 0 1-.09.71v3.74a6.41 6.41 0 0 1 1.26-.11c3.23 0 3.48 2.08 3.48 2.71a2.71 2.71 0 0 1-2.61 2.66h-2.3a8.65 8.65 0 0 1-.37 1.7 2 2 0 0 1 .89 1.77 2.59 2.59 0 0 1-.51 1.48c-.17.91-.38 2-.58 2.89a2.37 2.37 0 0 1 .73 1.7 2.5 2.5 0 0 1-2.76 2.4c-1.21 0-4.4.12-6.52.15a2.55 2.55 0 0 1-2.3 1.54zm2.8-6.26h2.88c0-.36 0-.74.05-1.11l-3 .08zm3.1-6.42l-1.73.57 1.74-.07v-.34zm-7.12-5.32c0 .81 0 1.56-.05 2.18a44.65 44.65 0 0 0 7.17-1.61v-2.19a2.71 2.71 0 0 1-2.41 1.38c-1.87.07-3.41.14-4.71.24z" transform="translate(-257 -304)"/><path d="M490.77 359c-.41 0-2.43-.15-2.43-3.17v-6c-3.13 1.25-7.15 2.48-9.62 2.54-1.89 0-3.27-2.09-3.27-4l-.06-6.75-.49-.19a2.24 2.24 0 0 1-1.85-2.18c0-.57.23-1.94 2.37-2.4l.24-.05h.24a17.64 17.64 0 0 1 3.69.48 25 25 0 0 0 3.11-.15h.17a4.39 4.39 0 0 1 2.62-.69h.78a2.22 2.22 0 0 1-.73-1.65c0-.52.22-2.25 3-2.35h.4a21.8 21.8 0 0 1 3 .72h.12a2.63 2.63 0 0 1 2 2.52 4.13 4.13 0 0 1-.05.58.92.92 0 0 0 0 .19v6.21a5.5 5.5 0 0 1 1.42-.16c3.35 0 3.52 2.34 3.52 2.81a2.73 2.73 0 0 1-2.88 2.69H494v4.9a11.23 11.23 0 0 1-.75 4.32l-.08.2-.12.17a2.67 2.67 0 0 1-2.28 1.41zm-9.71-17v4.7a41.16 41.16 0 0 0 7.32-1.92V341a3.08 3.08 0 0 1-1.69.7h-.7c-1.68.11-3.37.19-4.93.23z" transform="translate(-257 -304)"/><path class="cls-1" d="M312.71 379.51c-4.32.6-4.92 2-7 2-3.12 0-12.12-4.2-12.12-6 0-.36.48-.6 1.44-.6a15.49 15.49 0 0 1 2.88.36c5 .48 10.68.72 16.56.72s12.12-.24 18.24-.36c3.48-.24 2.76-1.32 6.6-1.32 2.64 0 7.68.6 7.68 2 0 1-1.92 2.16-2.88 3.6-10.8 19.68-27.36 37-51.12 49.08a11.58 11.58 0 0 1-4 1.56c-.24 0-.36-.12-.36-.24 0-.48 1.2-1.56 3.48-3.12 16.92-11 37.32-33.72 43.2-48.48zm8.52 57.84c-.6-2.76-2.64-3.6-7.2-5.4-1.44-.36-2.64-.84-2.64-1.44s1-1 3.48-1.56a76 76 0 0 1 15.12 1.8l32.64-.6c2.64-.36 3.24-1.08 5.88-1.08 2.4 0 7.08.48 7.08 2 0 .84-1.32 1.92-1.68 3.12-2.4 9.23-5 21.23-5.64 24.83 4.2.24 6.12 1.8 6.12 3.12 0 1.08-1.44 2-4 2h-40.88c-1 4.92-2.76 7.68-4.2 7.68s-2.4-2.16-2.4-6.84zm7.68 4l.36 19.91 27.24-.48c4.32-.24 3.72-.72 7.44-1.56l1.32-25.67-34.56.48c-.48.36-1.8.72-1.8 1.92zm37.32-72c0-1.2-3-3.6-10.32-6.48-1.8-.6-2.76-1.32-2.76-1.92s1.44-1.32 4.32-1.44c5.64.48 9.36 2 12.6 2.88 3.48 1.32 4.32 2.16 4.32 3.36 0 .84-.48 1.8-.48 3.24l-.12 32.4c1.68-.12 2.88 0 4.68-.24 6.24-.72 3.24-3.36 12-3.36 2.4 0 7.08 0 7.08 3.24a3.3 3.3 0 0 1-3.36 3l-20.52.36c-.24 18.12-4.56 20.16-5.64 20.16s-1.8-1.32-1.8-4.8zm137.64 37.04c-20.28 0-68.28 1.08-73.68 1.68-3.36.72-4.2 1.92-6.12 1.92-2.76 0-16.08-5.28-16.08-7.2 0-.36.6-.6 1.44-.6a12.48 12.48 0 0 1 1.8.24c8.76 1.2 19.2 1.56 31.44 1.56 11 0 23.64-.36 37.8-.84a199.1 199.1 0 0 0 6.72-30.48c-15 0-36.72 1-44.76 1.32-4.32.72-4.92 2.16-6.84 2.16-2.4 0-12.84-4.68-12.84-6.48 0-.36.36-.6 1.08-.6a10.55 10.55 0 0 1 2.4.36 144.63 144.63 0 0 0 21 1.2c10.2 0 22.2-.48 34.56-1.08 3.36-.24 3.24-1.44 6.48-1.44a33 33 0 0 1 4.08.36c3.48.48 4.56 1.2 4.56 2 0 1.08-1.68 2.4-2.4 4-2 8.4-6.48 20-10.32 28.56 2.16 0 4.32-.12 6.48-.24 8.4-.24 6.72-3.12 14-3.12 1.2 0 10.32 0 10.32 4.08 0 1.44-1.68 2.64-5 2.64zm-61.44 21.24c-3.72.36-4.56 1.44-6.36 1.44-2.64 0-11.28-3.72-11.28-5.52 0-.36.48-.6 1.44-.6.24 0 .6.12 1 .12a166.94 166.94 0 0 0 20.88 1c10.2 0 21.48-.36 30.48-1.08 2.88-.24 2.28-1 5-1 3.24 0 7.56.48 7.56 1.92 0 1-1.44 2-1.92 3.24-1.8 6.36-3.24 11-3.72 13.2 3.6.59 5.28 1.67 5.28 2.63s-1.44 1.69-4.08 1.69l-44.4.6c-1.08.83-1.68 1-1.68 1.79v11.16c0 2.16 1.08 2.64 3.84 2.76l31.44-.12c7.2-.36 4.92-3 13-3 7.32 0 9.48 2.4 9.48 3.84s-1.44 2.4-3.84 2.4h-51c-6.12.12-10.2-2.16-10.2-6.6v-10.56c-.48-1.56-4.44-3.12-6.6-4-1.2-.36-2.52-1-2.52-1.55 0-.37.84-.85 3.24-1.08 7.32.23 13.44 1.55 14.88 2.27l30.12-.47c3.84-.25 4.92-.84 8.4-1.44l1-14.88zm100.8 28.43c0 3.6-2 7-6.6 7s-6.6-3.36-6.6-7 2-6.72 6.6-6.72 6.6 3.24 6.6 6.72zM312 349.64c2.16-2 5.52-5.93 6.86-10.11.05-.33.07-.53-1.13-1.51-.6-.41-.52-.65-.07-.65a3.59 3.59 0 0 1 .94.19c1.8.82 2.3 1.2 2.3 1.61s-.29.77-1.85 3.67a10.92 10.92 0 0 0 2.57 2.64c1 .8 1.27.53 2.09 2.21a2.79 2.79 0 0 1 .34 1.18c0 .45-.22.72-.48.72a.72.72 0 0 1-.51-.29c-.79-1-2.49-3.34-4.44-5.86-2.57 3.84-6.48 6.82-6.94 6.82-.07 0-.09 0-.09-.07s.16-.29.41-.55zm16-13.13c0-.41-1.32-1-2.33-1.44-.26-.1-.43-.22-.43-.32s.29-.26 1-.28a19.45 19.45 0 0 1 2.76.65c.5.19.62.36.62.59s-.07.41-.07.77v8.74h1.2c1.13-.17.75-.62 2.28-.62.46 0 1.47 0 1.47.74 0 .34-.29.62-.82.62h-4.15v7a9.13 9.13 0 0 1-.6 3.56c-.19.29-.38.43-.55.43s-.36-.31-.36-1.11zm16.15 1.92c.38-.05.17-.15.91-.15 1.23 0 1.51.08 1.51.29s-.38.51-.6.79a36.38 36.38 0 0 1-2.8 3.87c.55.45 1.41 1.1 1.8 1.37 1 .6 1.1-.08 2.49 1.84a1.89 1.89 0 0 1 .46 1 .43.43 0 0 1-.41.48 1.09 1.09 0 0 1-.7-.39c-.64-.53-2-2.13-4.08-3.93a27.4 27.4 0 0 1-7.73 5.44 1.36 1.36 0 0 1-.55.17.11.11 0 0 1-.12-.09c0-.1.15-.24.48-.44 3.24-1.89 7.56-5.54 9.53-9.6-1.2 0-4.1.17-5.18.27-.63.12-.72.36-1 .36a5.72 5.72 0 0 1-2.42-1.27c0-.1.12-.15.34-.15s.26 0 .43.05a19.6 19.6 0 0 0 3.34.24c1.56.04 2.81-.06 4.3-.15zm-2.5 12.81c0-.48-.6-.69-1.82-1.08-.26 0-.43-.14-.43-.26s.19-.24.74-.34a19.58 19.58 0 0 1 2.59.17c.41.1.51.22.51.43s-.07.36-.07.65v3.24c0 .53.31.75 1.15.79h5c1.8-.12.93-.68 3.09-.68.77 0 1.78.08 1.78.82a.58.58 0 0 1-.65.53h-9.33c-1.59 0-2.5-.41-2.57-1.63zm9-14.32c-.05-.32-1-1-2-1.4-.4-.14-.6-.29-.6-.4s.29-.22.87-.24a9.79 9.79 0 0 1 2.47.57c.7.22.86.38.86.63s-.09.38-.09.69v10.08a13 13 0 0 1-.38 3.36c-.22.55-.48.84-.7.84s-.38-.33-.38-1.1zm18.48 1.08c-.07-.53-.74-1-1.7-1.39-.38-.15-.62-.29-.62-.41s.19-.19.62-.24a11.19 11.19 0 0 1 2.47.53c.58.14.7.28.7.52s-.1.53-.1 1v10.89c0 3.48-.24 4.68-.48 5.4-.19.51-.43.8-.6.8s-.29-.24-.29-.8v-10h-1c-.79.12-.88.44-1.2.44a2.38 2.38 0 0 1-1-.39c0 1.68-1.49 3.84-4.49 3.84a4.17 4.17 0 0 1-4.46-4.08 3.85 3.85 0 0 1 3.57-3.77c.51 0 .75-.33.75-.48a.5.5 0 0 0-.17-.36c-.19-.19-.29-.31-.29-.4s.1-.15.29-.15c.6 0 1.39.43 1.39.75s-.29.43-.38.69c2.3.43 3.48 1.75 3.74 3.19a10.12 10.12 0 0 0 1.23.05c.74 0 1.41-.05 2-.07zm-10.65 6.31a2.85 2.85 0 0 0 3 2.95 3 3 0 1 0 0-5.93 2.86 2.86 0 0 0-3 2.93zm14.66-7.58c-.05-.44-.84-1-2-1.59-.38-.12-.6-.29-.6-.41s.29-.24.94-.24c.91.17 2 .48 2.42.6.67.22.82.39.82.63s-.07.38-.1.69v15.2a16.68 16.68 0 0 1-.41 4.56c-.21.53-.45.81-.64.81s-.39-.33-.39-1.1zm14.57 1.75c-.87.12-1 .4-1.39.4-.63 0-2.43-.84-2.43-1.2 0-.07.1-.12.29-.12a3.13 3.13 0 0 1 .58.08c1 .09 2.13.14 3.31.14s2.42 0 3.65-.07c.69 0 .55-.27 1.32-.27.53 0 1.53.12 1.53.41s-.38.43-.57.72a23.75 23.75 0 0 1-10.23 9.82 2.45 2.45 0 0 1-.79.31c-.05 0-.07 0-.07-.05s.24-.31.69-.62c3.39-2.21 7.47-6.75 8.65-9.7zm1.7 11.56c-.12-.55-.53-.72-1.44-1.08-.29-.07-.53-.16-.53-.28s.2-.2.7-.32a15.3 15.3 0 0 1 3 .36l6.52-.12a7 7 0 0 1 1.18-.21c.48 0 1.42.09 1.42.41 0 .16-.27.38-.34.62-.48 1.85-1 4.25-1.13 5 .84.05 1.23.36 1.23.62s-.29.41-.8.41h-8.18c-.19 1-.55 1.54-.84 1.54s-.48-.44-.48-1.37zm1.54.8l.07 4 5.45-.1a5.18 5.18 0 0 0 1.49-.31l.26-5.13-6.91.09c-.1.07-.36.15-.36.39zm7.46-14.4c0-.24-.6-.73-2.06-1.3-.36-.12-.55-.26-.55-.39s.29-.26.86-.28a12.59 12.59 0 0 1 2.52.57c.7.27.87.44.87.67s-.1.37-.1.65v6.48h.93c1.25-.15.65-.68 2.4-.68.48 0 1.42 0 1.42.65a.66.66 0 0 1-.67.6l-4.11.07c0 3.63-.91 4-1.13 4s-.36-.27-.36-1zm6.31 9.96a20.82 20.82 0 0 0 6.77-7.92c0-.08.17-.48.17-.51 0-.24-.38-.67-1.25-1.27-.36-.22-.48-.36-.48-.48s.22-.22.51-.22a2.13 2.13 0 0 1 .57.1c.43.14 2.62 1.1 2.62 1.7a13.24 13.24 0 0 1-1.63 3 8.15 8.15 0 0 0 1.77 2.06c.65.58.94-.09 2.16 2.43a1.12 1.12 0 0 1 .2.62.52.52 0 0 1-.53.55.87.87 0 0 1-.7-.43c-1.13-1.51-2.47-3.33-3.41-4.65a20.8 20.8 0 0 1-7.05 5.59c-.08 0-.1 0-.1-.07s.12-.31.38-.5zm12.41 2a1 1 0 0 0-.31-.63.4.4 0 0 1-.21-.31c0-.09.09-.17.28-.17.48 0 1.59.48 1.59.82s-.27.41-.36.7c2.66.48 3.91 2.18 3.91 3.84 0 1.94-1.68 3.88-4.73 3.88s-4.58-1.94-4.58-3.86c0-1.73 1.29-3.5 4-3.89a.37.37 0 0 0 .41-.39zm-3.13 4.12c0 1.44 1.13 2.9 3.36 2.9s3.36-1.46 3.36-2.9-1.1-3-3.36-3a3 3 0 0 0-3.36 3zm7-11.16c-1.23 0-2 .16-2.62.19s-.77.29-1.17.29-2-.63-2-.89c0-.1.17-.15.43-.15h1.18c1.22 0 3-.07 4.15-.19v-4c-.05-.53-1.23-1.13-2.09-1.49-.36-.12-.6-.26-.6-.41s.22-.24.82-.29c.26 0 3.45.56 3.45 1.2 0 .15-.07.32-.07.6v8.88a7.35 7.35 0 0 1-.63 3.32c-.14.24-.29.38-.43.38s-.43-.43-.43-1.63zm25.53 4.53c-1.24-.09-2.85-.14-4.46-.14-1.87 0-3.74.05-4.94.09l-7 .39c-.74 0-.77.38-1.2.38s-3-1.08-3-1.41c0-.08.09-.15.31-.15a2.37 2.37 0 0 1 .45.07 23.58 23.58 0 0 0 4.28.24c3.33 0 7.92-.19 11.78-.4 1.23-.08 1-.48 2.31-.48 1.15 0 2.32.09 2.32.81a.69.69 0 0 1-.76.6zm-14.85 7c0-.29-.51-.43-1.3-.65-.21 0-.43-.12-.43-.21s.48-.34.91-.34a10 10 0 0 1 2.52.31c2.23 0 3.43-.07 5.71-.14a13 13 0 0 0 1.32-.22c.08-.5.1-1.44.15-2.64-1.59.05-4.71.12-7 .24-.7.15-.82.39-1.22.39s-2.33-.77-2.33-1.06c0-.07.09-.12.33-.12a1.63 1.63 0 0 1 .36 0c.84.09 2 .12 3.34.12 1.9 0 4.1-.08 6-.22a1.89 1.89 0 0 1 .81-.19c1.54 0 1.54.26 1.54.36s-.22.45-.31.69c-.27.75-.65 1.83-.77 2.28.65.12 1 .36 1 .56s-.29.31-.84.31l-7.82.21c-.24.12-.43.1-.43.36V355c0 .46.24.55.6.55h6c1.44-.17 1-.62 2.45-.62.67 0 1.87 0 1.87.69 0 .29-.31.56-.84.56h-9.48c-1.75 0-2.13-.63-2.13-1.33zm5.59-17c3 .41 4.32 2.09 4.32 3.79s-1.75 3.67-4.85 3.67-5-1.92-5-3.88c0-1.61 1.25-3.17 3.87-3.58a.51.51 0 0 0 .53-.48.63.63 0 0 0-.2-.46.66.66 0 0 1-.21-.36c0-.09.09-.14.26-.14.46 0 1.44.33 1.44.7 0 .19-.19.38-.19.64zm-4.06 3.7c0 1.41 1.18 2.8 3.51 2.8s3.48-1.39 3.48-2.8-1.2-2.84-3.53-2.84-3.46 1.39-3.46 2.81zm35.6-3.15c0-.24-.6-.73-2.07-1.3-.36-.12-.55-.26-.55-.39s.29-.26.86-.28a12.42 12.42 0 0 1 2.52.57c.7.27.87.44.87.67s-.1.37-.1.65v6.48h.93c1.25-.15.65-.68 2.4-.68.48 0 1.42 0 1.42.65a.65.65 0 0 1-.67.6l-4.11.07c0 3.63-.91 4-1.12 4s-.36-.27-.36-1v-3.15c-3.39 1.49-9.92 3.27-11.6 3.27-.45 0-1.08-.72-1.1-1.88l-.07-5c-.08-.56-.84-.77-1.8-1.08-.24-.05-.36-.12-.36-.22s.12-.34.88-.34a17.39 17.39 0 0 1 3 .24c1.47 0 2.53-.12 3.32-.19 1.56-.14.77-.65 3-.65.62 0 .91.29.91.58s-.24.5-.74.5c-2.52.17-4.47.24-6.17.29-.32.1-.48-.05-.48.34-.05 1.87-.1 3.57-.1 4.65s0 1.47.62 1.47a45.58 45.58 0 0 0 10.67-2.31zm.72 12.16c.88 0 1.15.17 1.15.34s-.34.48-.43.84c-.29 1.61-.75 3.79-1 4.66.72.12 1 .36 1 .57s-.27.34-.7.34c-1.61 0-6.45.17-8 .17-.14.93-.48 1.46-.76 1.46s-.36-.29-.44-.94-.19-4-.36-5.73c0-.34-.07-.53-1.39-.94-.26-.07-.53-.17-.53-.29s.22-.24.8-.33a21.24 21.24 0 0 1 2.68.33c1.13 0 5.24-.12 6.44-.24.55 0 .24-.24 1.13-.24zm-2.53 6.2a9 9 0 0 0 1.48-.32c.08-1.1.2-3.84.2-5-1.32.09-5.07.17-6.89.24-.12.17-.29.12-.29.36l.12 4.8zm23.41-18.29c0-.41-1.32-1-2.33-1.44-.27-.1-.43-.22-.43-.32s.28-.26 1-.28a18.81 18.81 0 0 1 2.76.65c.51.19.63.36.63.59s-.07.41-.07.77v8.74h1.2c1.12-.17.74-.62 2.28-.62.45 0 1.46 0 1.46.74 0 .34-.29.62-.82.62h-4.15v7a9.32 9.32 0 0 1-.6 3.56c-.19.29-.39.43-.55.43s-.36-.31-.36-1.11v-9.24c-2.93 1.56-8.88 3.6-11.74 3.68-.41 0-1.15-.92-1.15-1.9l-.08-7.73c-.16-.57-.84-.77-2-1.22-.16 0-.28-.07-.28-.17s.19-.26.74-.38a14.34 14.34 0 0 1 3.46.48 31.17 31.17 0 0 0 3.67-.17c1.2-.12.89-.72 2.54-.72.63 0 1.66 0 1.66.62 0 .27-.26.53-.74.58-2.31.12-4.85.26-6.92.26-.31.05-.5-.07-.5.31 0 1.13-.07 4.71-.07 6.7s0 2 .69 2a39.35 39.35 0 0 0 10.76-2.83z" transform="translate(-257 -304)"/><path id="_분할_영역_" data-name="&lt;분할 영역&gt;" class="cls-2" d="M0 0h315v188H0z"/></svg>